Russolo-24ptExtraLight.ufo
<glyph name="quotedbl" format="2">
  <advance width="455"/>
  <unicode hex="0022"/>
  <note>
quotedbl
</note>
  <outline>
    <contour>
      <point x="278" y="854" type="line"/>
      <point x="296" y="854" type="line"/>
      <point x="314" y="1354" type="line"/>
      <point x="262" y="1354" type="line"/>
    </contour>
    <contour>
      <point x="158" y="854" type="line"/>
      <point x="176" y="854" type="line"/>
      <point x="194" y="1354" type="line"/>
      <point x="142" y="1354" type="line"/>
    </contour>
  </outline>
</glyph>
<glyph name="numbersign" format="2">
  <advance width="1201"/>
  <unicode hex="0023"/>
  <note>
numbersign
</note>
  <outline>
    <contour>
      <point x="689" y="0" type="line"/>
      <point x="749" y="0" type="line"/>
      <point x="1009" y="1430" type="line"/>
      <point x="949" y="1430" type="line"/>
    </contour>
    <contour>
      <point x="94" y="501" type="line"/>
      <point x="1044" y="501" type="line"/>
      <point x="1044" y="523" type="line"/>
      <point x="94" y="523" type="line"/>
    </contour>
    <contour>
      <point x="219" y="0" type="line"/>
      <point x="279" y="0" type="line"/>
      <point x="539" y="1430" type="line"/>
      <point x="479" y="1430" type="line"/>
    </contour>
    <contour>
      <point x="154" y="911" type="line"/>
      <point x="1104" y="911" type="line"/>
      <point x="1104" y="933" type="line"/>
      <point x="154" y="933" type="line"/>
    </contour>
  </outline>
</glyph>
<glyph name="ampersand" format="2">
  <advance width="1183"/>
  <unicode hex="0026"/>
  <note>
ampersand
</note>
  <outline>
    <contour>
      <point x="522" y="-28" type="curve" smooth="yes"/>
      <point x="648" y="-28"/>
      <point x="786" y="-11"/>
      <point x="849" y="27" type="curve"/>
      <point x="841" y="60" type="line"/>
      <point x="780" y="16"/>
      <point x="623" y="-2"/>
      <point x="516" y="-2" type="curve" smooth="yes"/>
      <point x="266" y="-2"/>
      <point x="200" y="171"/>
      <point x="200" y="384" type="curve" smooth="yes"/>
      <point x="200" y="629"/>
      <point x="326" y="771"/>
      <point x="532" y="771" type="curve"/>
      <point x="536" y="800" type="line"/>
      <point x="350" y="800"/>
      <point x="278" y="951"/>
      <point x="278" y="1101" type="curve" smooth="yes"/>
      <point x="278" y="1284"/>
      <point x="384" y="1434"/>
      <point x="572" y="1434" type="curve" smooth="yes"/>
      <point x="714" y="1434" type="line"/>
      <point x="714" y="1460" type="line"/>
      <point x="568" y="1460" type="line" smooth="yes"/>
      <point x="348" y="1460"/>
      <point x="223" y="1292"/>
      <point x="223" y="1100" type="curve" smooth="yes"/>
      <point x="223" y="955"/>
      <point x="294" y="828"/>
      <point x="464" y="786" type="curve"/>
      <point x="284" y="758"/>
      <point x="135" y="619"/>
      <point x="135" y="378" type="curve" smooth="yes"/>
      <point x="135" y="137"/>
      <point x="251" y="-28"/>
    </contour>
    <contour>
      <point x="927" y="-26" type="curve" smooth="yes"/>
      <point x="971" y="-26"/>
      <point x="1038" y="-14"/>
      <point x="1071" y="6" type="curve"/>
      <point x="1071" y="48" type="line"/>
      <point x="1040" y="20"/>
      <point x="982" y="5"/>
      <point x="945" y="5" type="curve" smooth="yes"/>
      <point x="885" y="5"/>
      <point x="884" y="44"/>
      <point x="884" y="164" type="curve" smooth="yes"/>
      <point x="884" y="771" type="line"/>
      <point x="1024" y="771" type="line"/>
      <point x="1024" y="800" type="line"/>
      <point x="884" y="800" type="line"/>
      <point x="884" y="1075" type="line"/>
      <point x="852" y="1075" type="line"/>
      <point x="852" y="811"/>
      <point x="847" y="800"/>
      <point x="716" y="800" type="curve"/>
      <point x="522" y="800" type="line"/>
      <point x="516" y="771" type="line"/>
      <point x="832" y="771" type="line"/>
      <point x="832" y="190" type="line" smooth="yes"/>
      <point x="832" y="21"/>
      <point x="841" y="-26"/>
    </contour>
  </outline>
</glyph>
<glyph name="parenright" format="2">
  <advance width="515"/>
  <unicode hex="0029"/>
  <note>
parenright
</note>
  <outline>
    <contour>
      <point x="92" y="-395" type="line"/>
      <point x="323" y="-65"/>
      <point x="416" y="207"/>
      <point x="416" y="550" type="curve" smooth="yes"/>
      <point x="416" y="887"/>
      <point x="326" y="1143"/>
      <point x="94" y="1503" type="curve"/>
      <point x="71" y="1483" type="line"/>
      <point x="202" y="1298"/>
      <point x="350" y="901"/>
      <point x="350" y="550" type="curve" smooth="yes"/>
      <point x="350" y="203"/>
      <point x="206" y="-171"/>
      <point x="75" y="-370" type="curve"/>
    </contour>
  </outline>
</glyph>
<glyph name="asterisk" format="2">
  <advance width="694"/>
  <unicode hex="002A"/>
  <note>
asterisk
</note>
  <outline>
    <contour>
      <point x="340" y="1137" type="line"/>
      <point x="433" y="1191"/>
      <point x="503" y="1201"/>
      <point x="536" y="1219" type="curve" smooth="yes"/>
      <point x="545" y="1224"/>
      <point x="546" y="1256"/>
      <point x="569" y="1270" type="curve"/>
      <point x="564" y="1279" type="line"/>
      <point x="541" y="1266"/>
      <point x="526" y="1286"/>
      <point x="504" y="1273" type="curve" smooth="yes"/>
      <point x="466" y="1251"/>
      <point x="427" y="1200"/>
      <point x="334" y="1146" type="curve"/>
    </contour>
    <contour>
      <point x="110" y="1005" type="line"/>
      <point x="133" y="1018"/>
      <point x="159" y="1003"/>
      <point x="170" y="1009" type="curve" smooth="yes"/>
      <point x="206" y="1029"/>
      <point x="247" y="1083"/>
      <point x="340" y="1137" type="curve"/>
      <point x="334" y="1146" type="line"/>
      <point x="241" y="1093"/>
      <point x="173" y="1083"/>
      <point x="139" y="1063" type="curve" smooth="yes"/>
      <point x="128" y="1057"/>
      <point x="128" y="1027"/>
      <point x="105" y="1014" type="curve"/>
    </contour>
    <contour>
      <point x="331" y="876" type="curve"/>
      <point x="342" y="876" type="line"/>
      <point x="342" y="903"/>
      <point x="369" y="917"/>
      <point x="369" y="930" type="curve" smooth="yes"/>
      <point x="369" y="964"/>
      <point x="342" y="1034"/>
      <point x="342" y="1141" type="curve"/>
      <point x="331" y="1141" type="line"/>
      <point x="331" y="1034"/>
      <point x="306" y="964"/>
      <point x="306" y="930" type="curve" smooth="yes"/>
      <point x="306" y="917"/>
      <point x="331" y="903"/>
    </contour>
    <contour>
      <point x="334" y="1137" type="curve"/>
      <point x="340" y="1146" type="line"/>
      <point x="247" y="1200"/>
      <point x="208" y="1252"/>
      <point x="170" y="1273" type="curve" smooth="yes"/>
      <point x="165" y="1276"/>
      <point x="133" y="1265"/>
      <point x="110" y="1279" type="curve"/>
      <point x="105" y="1269" type="line"/>
      <point x="128" y="1256"/>
      <point x="131" y="1224"/>
      <point x="139" y="1219" type="curve" smooth="yes"/>
      <point x="176" y="1197"/>
      <point x="242" y="1190"/>
    </contour>
    <contour>
      <point x="504" y="1009" type="curve" smooth="yes"/>
      <point x="518" y="1001"/>
      <point x="541" y="1018"/>
      <point x="564" y="1004" type="curve"/>
      <point x="569" y="1014" type="line"/>
      <point x="546" y="1027"/>
      <point x="557" y="1050"/>
      <point x="535" y="1062" type="curve" smooth="yes"/>
      <point x="511" y="1075"/>
      <point x="433" y="1093"/>
      <point x="340" y="1146" type="curve"/>
      <point x="334" y="1137" type="line"/>
      <point x="428" y="1083"/>
      <point x="470" y="1029"/>
    </contour>
    <contour>
      <point x="331" y="1141" type="curve"/>
      <point x="342" y="1141" type="line"/>
      <point x="342" y="1249"/>
      <point x="369" y="1319"/>
      <point x="369" y="1352" type="curve" smooth="yes"/>
      <point x="369" y="1365"/>
      <point x="342" y="1379"/>
      <point x="342" y="1406" type="curve"/>
      <point x="331" y="1406" type="line"/>
      <point x="331" y="1379"/>
      <point x="306" y="1365"/>
      <point x="306" y="1352" type="curve" smooth="yes"/>
      <point x="306" y="1319"/>
      <point x="331" y="1249"/>
    </contour>
  </outline>
</glyph>
<glyph name="plus" format="2">
  <advance width="1000"/>
  <unicode hex="002B"/>
  <note>
plus
</note>
  <outline>
    <contour>
      <point x="112" y="658" type="line"/>
      <point x="888" y="658" type="line"/>
      <point x="888" y="678" type="line"/>
      <point x="112" y="678" type="line"/>
    </contour>
    <contour>
      <point x="490" y="280" type="line"/>
      <point x="510" y="280" type="line"/>
      <point x="510" y="1056" type="line"/>
      <point x="490" y="1056" type="line"/>
    </contour>
  </outline>
</glyph>
<glyph name="period" format="2">
  <advance width="376"/>
  <unicode hex="002E"/>
  <note>
period
</note>
  <outline>
    <contour>
      <point x="188" y="-14" type="curve" smooth="yes"/>
      <point x="220" y="-14"/>
      <point x="244" y="10"/>
      <point x="244" y="43" type="curve" smooth="yes"/>
      <point x="244" y="76"/>
      <point x="219" y="98"/>
      <point x="188" y="98" type="curve" smooth="yes"/>
      <point x="157" y="98"/>
      <point x="132" y="76"/>
      <point x="132" y="43" type="curve" smooth="yes"/>
      <point x="132" y="10"/>
      <point x="156" y="-14"/>
    </contour>
  </outline>
</glyph>
<glyph name="slash" format="2">
  <advance width="588"/>
  <unicode hex="002F"/>
  <note>
slash
</note>
  <outline>
    <contour>
      <point x="38" y="-406" type="line"/>
      <point x="79" y="-406" type="line"/>
      <point x="550" y="1498" type="line"/>
      <point x="509" y="1498" type="line"/>
    </contour>
  </outline>
</glyph>
<glyph name="one" format="2">
  <advance width="470"/>
  <unicode hex="0031"/>
  <note>
one
</note>
  <outline>
    <contour>
      <point x="244" y="0" type="line"/>
      <point x="304" y="0" type="line"/>
      <point x="304" y="1430" type="line"/>
      <point x="285" y="1430" type="line"/>
      <point x="26" y="1026" type="line"/>
      <point x="36" y="1018" type="line"/>
      <point x="250" y="1351" type="line"/>
      <point x="244" y="1351" type="line"/>
    </contour>
  </outline>
</glyph>
<glyph name="two" format="2">
  <advance width="969"/>
  <unicode hex="0032"/>
  <note>
two
</note>
  <outline>
    <contour>
      <point x="42" y="0" type="line"/>
      <point x="905" y="0" type="line"/>
      <point x="905" y="60" type="line"/>
      <point x="110" y="61" type="line"/>
      <point x="104" y="39" type="line"/>
      <point x="192" y="138"/>
      <point x="497" y="469"/>
      <point x="632" y="630" type="curve" smooth="yes"/>
      <point x="793" y="823"/>
      <point x="872" y="960"/>
      <point x="872" y="1111" type="curve" smooth="yes"/>
      <point x="872" y="1303"/>
      <point x="743" y="1460"/>
      <point x="502" y="1460" type="curve" smooth="yes"/>
      <point x="275" y="1460"/>
      <point x="106" y="1277"/>
      <point x="106" y="1032" type="curve" smooth="yes"/>
      <point x="106" y="1010"/>
      <point x="106" y="1004"/>
      <point x="107" y="999" type="curve"/>
      <point x="159" y="999" type="line"/>
      <point x="159" y="1010" type="line" smooth="yes"/>
      <point x="159" y="1270"/>
      <point x="287" y="1438"/>
      <point x="484" y="1438" type="curve" smooth="yes"/>
      <point x="617" y="1438"/>
      <point x="807" y="1387"/>
      <point x="807" y="1104" type="curve" smooth="yes"/>
      <point x="807" y="818"/>
      <point x="612" y="641"/>
      <point x="364" y="362" type="curve" smooth="yes"/>
    </contour>
  </outline>
</glyph>
<glyph name="three" format="2">
  <advance width="941"/>
  <unicode hex="0033"/>
  <note>
three
</note>
  <outline>
    <contour>
      <point x="444" y="-33" type="curve" smooth="yes"/>
      <point x="702" y="-33"/>
      <point x="851" y="147"/>
      <point x="851" y="378" type="curve" smooth="yes"/>
      <point x="851" y="602"/>
      <point x="708" y="741"/>
      <point x="523" y="763" type="curve"/>
      <point x="508" y="760" type="line"/>
      <point x="658" y="769"/>
      <point x="821" y="876"/>
      <point x="821" y="1100" type="curve" smooth="yes"/>
      <point x="821" y="1297"/>
      <point x="707" y="1455"/>
      <point x="478" y="1455" type="curve" smooth="yes"/>
      <point x="267" y="1455"/>
      <point x="103" y="1322"/>
      <point x="89" y="1083" type="curve"/>
      <point x="141" y="1083" type="line"/>
      <point x="141" y="1327"/>
      <point x="289" y="1429"/>
      <point x="474" y="1429" type="curve" smooth="yes"/>
      <point x="696" y="1429"/>
      <point x="771" y="1276"/>
      <point x="771" y="1102" type="curve" smooth="yes"/>
      <point x="771" y="883"/>
      <point x="652" y="775"/>
      <point x="430" y="775" type="curve" smooth="yes"/>
      <point x="267" y="775" type="line"/>
      <point x="267" y="749" type="line"/>
      <point x="434" y="749" type="line" smooth="yes"/>
      <point x="655" y="749"/>
      <point x="789" y="610"/>
      <point x="789" y="374" type="curve" smooth="yes"/>
      <point x="789" y="138"/>
      <point x="648" y="-7"/>
      <point x="450" y="-7" type="curve" smooth="yes"/>
      <point x="250" y="-7"/>
      <point x="121" y="141"/>
      <point x="121" y="346" type="curve" smooth="yes"/>
      <point x="121" y="357" type="line"/>
      <point x="63" y="357" type="line"/>
      <point x="63" y="336" type="line" smooth="yes"/>
      <point x="63" y="103"/>
      <point x="219" y="-33"/>
    </contour>
  </outline>
</glyph>
<glyph name="five" format="2">
  <advance width="864"/>
  <unicode hex="0035"/>
  <note>
five
</note>
  <outline>
    <contour>
      <point x="312" y="-22" type="curve" smooth="yes"/>
      <point x="582" y="-22"/>
      <point x="798" y="174"/>
      <point x="798" y="451" type="curve" smooth="yes"/>
      <point x="798" y="735"/>
      <point x="615" y="858"/>
      <point x="398" y="858" type="curve" smooth="yes"/>
      <point x="313" y="858"/>
      <point x="199" y="839"/>
      <point x="133" y="799" type="curve"/>
      <point x="144" y="799" type="line"/>
      <point x="279" y="1380" type="line"/>
      <point x="246" y="1354" type="line"/>
      <point x="723" y="1354" type="line"/>
      <point x="723" y="1430" type="line"/>
      <point x="252" y="1430" type="line"/>
      <point x="101" y="773" type="line"/>
      <point x="105" y="773" type="line"/>
      <point x="191" y="814"/>
      <point x="301" y="836"/>
      <point x="376" y="836" type="curve" smooth="yes"/>
      <point x="590" y="836"/>
      <point x="738" y="691"/>
      <point x="738" y="451" type="curve" smooth="yes"/>
      <point x="738" y="198"/>
      <point x="553" y="5"/>
      <point x="316" y="5" type="curve" smooth="yes"/>
      <point x="205" y="5"/>
      <point x="111" y="47"/>
      <point x="61" y="99" type="curve"/>
      <point x="43" y="77" type="line"/>
      <point x="115" y="19"/>
      <point x="189" y="-22"/>
    </contour>
  </outline>
</glyph>
<glyph name="six" format="2">
  <advance width="981"/>
  <unicode hex="0036"/>
  <note>
six
</note>
  <outline>
    <contour>
      <point x="476" y="-33" type="curve" smooth="yes"/>
      <point x="746" y="-38"/>
      <point x="924" y="171"/>
      <point x="924" y="436" type="curve" smooth="yes"/>
      <point x="924" y="689"/>
      <point x="755" y="877"/>
      <point x="513" y="877" type="curve" smooth="yes"/>
      <point x="297" y="877"/>
      <point x="168" y="743"/>
      <point x="122" y="559" type="curve"/>
      <point x="138" y="584" type="line"/>
      <point x="139" y="666"/>
      <point x="148" y="755"/>
      <point x="190" y="866" type="curve" smooth="yes"/>
      <point x="289" y="1131"/>
      <point x="489" y="1317"/>
      <point x="729" y="1392" type="curve"/>
      <point x="729" y="1434" type="line"/>
      <point x="506" y="1374"/>
      <point x="345" y="1245"/>
      <point x="221" y="1042" type="curve" smooth="yes"/>
      <point x="133" y="897"/>
      <point x="80" y="744"/>
      <point x="80" y="523" type="curve" smooth="yes"/>
      <point x="80" y="151"/>
      <point x="230" y="-29"/>
    </contour>
    <contour>
      <point x="494" y="-8" type="curve" smooth="yes"/>
      <point x="235" y="-4"/>
      <point x="142" y="224"/>
      <point x="146" y="462" type="curve" smooth="yes"/>
      <point x="149" y="635"/>
      <point x="285" y="850"/>
      <point x="523" y="850" type="curve" smooth="yes"/>
      <point x="778" y="850"/>
      <point x="861" y="588"/>
      <point x="861" y="419" type="curve" smooth="yes"/>
      <point x="861" y="222"/>
      <point x="758" y="-13"/>
    </contour>
  </outline>
</glyph>
<glyph name="seven" format="2">
  <advance width="811"/>
  <unicode hex="0037"/>
  <note>
seven
</note>
  <outline>
    <contour>
      <point x="182" y="0" type="curve"/>
      <point x="223" y="0" type="line"/>
      <point x="333" y="543"/>
      <point x="532" y="1046"/>
      <point x="785" y="1416" type="curve"/>
      <point x="29" y="1416" type="line"/>
      <point x="29" y="1340" type="line"/>
      <point x="712" y="1340" type="line"/>
      <point x="706" y="1366" type="line"/>
      <point x="477" y="1010"/>
      <point x="287" y="522"/>
    </contour>
  </outline>
</glyph>
<glyph name="eight" format="2">
  <advance width="942"/>
  <unicode hex="0038"/>
  <note>
eight
</note>
  <outline>
    <contour>
      <point x="468" y="-31" type="curve" smooth="yes"/>
      <point x="707" y="-31"/>
      <point x="862" y="122"/>
      <point x="862" y="376" type="curve" smooth="yes"/>
      <point x="862" y="559"/>
      <point x="785" y="706"/>
      <point x="578" y="791" type="curve" smooth="yes"/>
      <point x="290" y="909"/>
      <point x="213" y="993"/>
      <point x="213" y="1114" type="curve" smooth="yes"/>
      <point x="213" y="1286"/>
      <point x="323" y="1416"/>
      <point x="480" y="1416" type="curve" smooth="yes"/>
      <point x="624" y="1416"/>
      <point x="771" y="1275"/>
      <point x="771" y="1114" type="curve" smooth="yes"/>
      <point x="771" y="985"/>
      <point x="681" y="849"/>
      <point x="558" y="794" type="curve"/>
      <point x="577" y="789" type="line"/>
      <point x="710" y="854"/>
      <point x="803" y="991"/>
      <point x="803" y="1122" type="curve" smooth="yes"/>
      <point x="803" y="1303"/>
      <point x="658" y="1441"/>
      <point x="484" y="1441" type="curve" smooth="yes"/>
      <point x="301" y="1441"/>
      <point x="154" y="1326"/>
      <point x="154" y="1112" type="curve" smooth="yes"/>
      <point x="154" y="963"/>
      <point x="226" y="845"/>
      <point x="379" y="778" type="curve" smooth="yes"/>
      <point x="742" y="620"/>
      <point x="796" y="500"/>
      <point x="796" y="362" type="curve" smooth="yes"/>
      <point x="796" y="162"/>
      <point x="680" y="9"/>
      <point x="468" y="4" type="curve" smooth="yes"/>
      <point x="219" y="-1"/>
      <point x="117" y="193"/>
      <point x="117" y="371" type="curve" smooth="yes"/>
      <point x="117" y="550"/>
      <point x="220" y="695"/>
      <point x="394" y="780" type="curve"/>
      <point x="376" y="785" type="line"/>
      <point x="180" y="693"/>
      <point x="72" y="554"/>
      <point x="72" y="366" type="curve" smooth="yes"/>
      <point x="72" y="164"/>
      <point x="199" y="-31"/>
    </contour>
  </outline>
</glyph>
<glyph name="nine" format="2">
  <advance width="984"/>
  <unicode hex="0039"/>
  <note>
nine
</note>
  <outline>
    <contour>
      <point x="269" y="-27" type="line"/>
      <point x="401" y="13"/>
      <point x="552" y="83"/>
      <point x="651" y="189" type="curve" smooth="yes"/>
      <point x="692" y="233"/>
      <point x="734" y="287"/>
      <point x="777" y="366" type="curve" smooth="yes"/>
      <point x="846" y="492"/>
      <point x="903" y="640"/>
      <point x="903" y="865" type="curve" smooth="yes"/>
      <point x="903" y="1213"/>
      <point x="771" y="1438"/>
      <point x="497" y="1438" type="curve" smooth="yes"/>
      <point x="229" y="1438"/>
      <point x="57" y="1226"/>
      <point x="57" y="973" type="curve" smooth="yes"/>
      <point x="57" y="716"/>
      <point x="234" y="528"/>
      <point x="469" y="528" type="curve" smooth="yes"/>
      <point x="684" y="528"/>
      <point x="808" y="684"/>
      <point x="851" y="830" type="curve"/>
      <point x="844" y="878" type="line"/>
      <point x="867" y="573"/>
      <point x="703" y="340"/>
      <point x="659" y="277" type="curve" smooth="yes"/>
      <point x="545" y="114"/>
      <point x="417" y="59"/>
      <point x="269" y="3" type="curve"/>
    </contour>
    <contour>
      <point x="466" y="559" type="curve" smooth="yes"/>
      <point x="206" y="559"/>
      <point x="120" y="819"/>
      <point x="120" y="989" type="curve" smooth="yes"/>
      <point x="120" y="1183"/>
      <point x="233" y="1407"/>
      <point x="480" y="1407" type="curve" smooth="yes"/>
      <point x="726" y="1407"/>
      <point x="840" y="1184"/>
      <point x="840" y="989" type="curve" smooth="yes"/>
      <point x="840" y="776"/>
      <point x="704" y="559"/>
    </contour>
  </outline>
</glyph>
<glyph name="greater" format="2">
  <advance width="1000"/>
  <unicode hex="003E"/>
  <note>
greater
</note>
  <outline>
    <contour>
      <point x="112" y="382" type="line"/>
      <point x="816" y="683" type="line"/>
      <point x="816" y="685" type="line"/>
      <point x="112" y="984" type="line"/>
      <point x="112" y="952" type="line"/>
      <point x="743" y="683" type="line"/>
      <point x="112" y="414" type="line"/>
    </contour>
  </outline>
</glyph>
<glyph name="question" format="2">
  <advance width="814"/>
  <unicode hex="003F"/>
  <note>
question
</note>
  <outline>
    <contour>
      <point x="345" y="316" type="curve"/>
      <point x="402" y="316" type="line"/>
      <point x="372" y="423"/>
      <point x="355" y="507"/>
      <point x="355" y="586" type="curve" smooth="yes"/>
      <point x="355" y="947"/>
      <point x="709" y="874"/>
      <point x="709" y="1190" type="curve" smooth="yes"/>
      <point x="709" y="1395"/>
      <point x="562" y="1462"/>
      <point x="370" y="1462" type="curve" smooth="yes"/>
      <point x="127" y="1462"/>
      <point x="37" y="1354"/>
      <point x="37" y="1181" type="curve" smooth="yes"/>
      <point x="37" y="1172"/>
      <point x="37" y="1163"/>
      <point x="37" y="1151" type="curve"/>
      <point x="103" y="1151" type="line"/>
      <point x="100" y="1168"/>
      <point x="99" y="1193"/>
      <point x="99" y="1205" type="curve" smooth="yes"/>
      <point x="99" y="1345"/>
      <point x="204" y="1433"/>
      <point x="367" y="1433" type="curve" smooth="yes"/>
      <point x="525" y="1433"/>
      <point x="643" y="1370"/>
      <point x="643" y="1183" type="curve" smooth="yes"/>
      <point x="643" y="872"/>
      <point x="317" y="966"/>
      <point x="317" y="574" type="curve" smooth="yes"/>
      <point x="317" y="521"/>
      <point x="323" y="440"/>
    </contour>
    <contour>
      <point x="381" y="-14" type="curve" smooth="yes"/>
      <point x="413" y="-14"/>
      <point x="437" y="10"/>
      <point x="437" y="43" type="curve" smooth="yes"/>
      <point x="437" y="76"/>
      <point x="412" y="98"/>
      <point x="381" y="98" type="curve" smooth="yes"/>
      <point x="350" y="98"/>
      <point x="325" y="76"/>
      <point x="325" y="43" type="curve" smooth="yes"/>
      <point x="325" y="10"/>
      <point x="349" y="-14"/>
    </contour>
  </outline>
</glyph>
<glyph name="at" format="2">
  <advance width="1671"/>
  <unicode hex="0040"/>
  <note>
at
</note>
  <guideline x="1126" y="1003" angle="256.1538"/>
  <outline>
    <contour>
      <point x="883" y="-30" type="curve" smooth="yes"/>
      <point x="1157" y="-30"/>
      <point x="1399" y="120"/>
      <point x="1527" y="342" type="curve"/>
      <point x="1485" y="342" type="line"/>
      <point x="1359" y="140"/>
      <point x="1137" y="6"/>
      <point x="883" y="6" type="curve" smooth="yes"/>
      <point x="491" y="6"/>
      <point x="173" y="324"/>
      <point x="173" y="716" type="curve" smooth="yes"/>
      <point x="173" y="1106"/>
      <point x="491" y="1424"/>
      <point x="883" y="1424" type="curve" smooth="yes"/>
      <point x="1228" y="1424"/>
      <point x="1487" y="1180"/>
      <point x="1487" y="842" type="curve" smooth="yes"/>
      <point x="1487" y="747"/>
      <point x="1460" y="649"/>
      <point x="1413" y="570" type="curve" smooth="yes"/>
      <point x="1357" y="476"/>
      <point x="1272" y="410"/>
      <point x="1171" y="410" type="curve" smooth="yes"/>
      <point x="1128" y="410"/>
      <point x="1059" y="449"/>
      <point x="1071" y="539" type="curve"/>
      <point x="1203" y="1074" type="line"/>
      <point x="1139" y="1074" type="line"/>
      <point x="1104" y="932" type="line"/>
      <point x="1088" y="1050"/>
      <point x="1035" y="1094"/>
      <point x="935" y="1094" type="curve" smooth="yes"/>
      <point x="683" y="1094"/>
      <point x="507" y="822"/>
      <point x="507" y="608" type="curve" smooth="yes"/>
      <point x="507" y="454"/>
      <point x="598" y="352"/>
      <point x="754" y="352" type="curve" smooth="yes"/>
      <point x="859" y="352"/>
      <point x="953" y="388"/>
      <point x="1012" y="542" type="curve"/>
      <point x="1019" y="426"/>
      <point x="1079" y="365"/>
      <point x="1164" y="365" type="curve" smooth="yes"/>
      <point x="1232" y="365"/>
      <point x="1293" y="389"/>
      <point x="1344" y="429" type="curve" smooth="yes"/>
      <point x="1398" y="471"/>
      <point x="1441" y="530"/>
      <point x="1471" y="598" type="curve" smooth="yes"/>
      <point x="1505" y="672"/>
      <point x="1523" y="757"/>
      <point x="1523" y="838" type="curve" smooth="yes"/>
      <point x="1523" y="1213"/>
      <point x="1256" y="1460"/>
      <point x="883" y="1460" type="curve" smooth="yes"/>
      <point x="471" y="1460"/>
      <point x="137" y="1126"/>
      <point x="137" y="716" type="curve" smooth="yes"/>
      <point x="137" y="304"/>
      <point x="471" y="-30"/>
    </contour>
    <contour>
      <point x="788" y="389" type="curve" smooth="yes"/>
      <point x="652" y="389"/>
      <point x="555" y="473"/>
      <point x="555" y="592" type="curve" smooth="yes"/>
      <point x="555" y="852"/>
      <point x="737" y="1061"/>
      <point x="954" y="1061" type="curve" smooth="yes"/>
      <point x="1041" y="1061"/>
      <point x="1073" y="977"/>
      <point x="1073" y="874" type="curve" smooth="yes"/>
      <point x="1073" y="718"/>
      <point x="972" y="389"/>
    </contour>
  </outline>
</glyph>
<glyph name="A" format="2">
  <advance width="1348"/>
  <unicode hex="0041"/>
  <note>
A
</note>
  <anchor x="648" y="0" name="bottom"/>
  <anchor x="1200" y="0" name="ogonek"/>
  <anchor x="671" y="1430" name="top"/>
  <outline>
    <contour>
      <point x="73" y="0" type="line"/>
      <point x="94" y="0" type="line"/>
      <point x="657" y="1391" type="line"/>
      <point x="637" y="1386" type="line"/>
      <point x="1190" y="0" type="line"/>
      <point x="1275" y="0" type="line"/>
      <point x="673" y="1482" type="line"/>
    </contour>
    <contour>
      <point x="267" y="466" type="line"/>
      <point x="1042" y="466" type="line"/>
      <point x="1031" y="492" type="line"/>
      <point x="277" y="492" type="line"/>
    </contour>
  </outline>
</glyph>
<glyph name="B" format="2">
  <advance width="1108"/>
  <unicode hex="0042"/>
  <note>
B
</note>
  <anchor x="524" y="0" name="bottom"/>
  <anchor x="524" y="1430" name="top"/>
  <outline>
    <contour>
      <point x="175" y="0" type="line"/>
      <point x="557" y="0" type="line" smooth="yes"/>
      <point x="827" y="0"/>
      <point x="1003" y="151"/>
      <point x="1003" y="386" type="curve" smooth="yes"/>
      <point x="1003" y="586"/>
      <point x="875" y="747"/>
      <point x="695" y="762" type="curve"/>
      <point x="696" y="750" type="line"/>
      <point x="843" y="782"/>
      <point x="961" y="899"/>
      <point x="961" y="1074" type="curve" smooth="yes"/>
      <point x="961" y="1275"/>
      <point x="805" y="1430"/>
      <point x="577" y="1430" type="curve" smooth="yes"/>
      <point x="175" y="1430" type="line"/>
    </contour>
    <contour>
      <point x="235" y="10" type="line"/>
      <point x="235" y="755" type="line"/>
      <point x="190" y="747" type="line"/>
      <point x="587" y="747" type="line" smooth="yes"/>
      <point x="789" y="747"/>
      <point x="935" y="630"/>
      <point x="935" y="397" type="curve" smooth="yes"/>
      <point x="935" y="184"/>
      <point x="813" y="26"/>
      <point x="517" y="26" type="curve" smooth="yes"/>
      <point x="216" y="26" type="line"/>
    </contour>
    <contour>
      <point x="235" y="761" type="line"/>
      <point x="235" y="1420" type="line"/>
      <point x="206" y="1404" type="line"/>
      <point x="557" y="1404" type="line" smooth="yes"/>
      <point x="817" y="1404"/>
      <point x="895" y="1238"/>
      <point x="895" y="1069" type="curve" smooth="yes"/>
      <point x="895" y="837"/>
      <point x="748" y="768"/>
      <point x="577" y="768" type="curve" smooth="yes"/>
      <point x="190" y="768" type="line"/>
    </contour>
  </outline>
</glyph>
<glyph name="C" format="2">
  <advance width="1357"/>
  <unicode hex="0043"/>
  <note>
C
</note>
  <anchor x="685" y="0" name="bottom"/>
  <anchor x="685" y="1430" name="top"/>
  <outline>
    <contour>
      <point x="761" y="-6" type="curve" smooth="yes"/>
      <point x="1002" y="-6"/>
      <point x="1158" y="98"/>
      <point x="1276" y="308" type="curve"/>
      <point x="1216" y="308" type="line"/>
      <point x="1099" y="90"/>
      <point x="933" y="24"/>
      <point x="767" y="24" type="curve" smooth="yes"/>
      <point x="418" y="24"/>
      <point x="182" y="315"/>
      <point x="182" y="718" type="curve" smooth="yes"/>
      <point x="182" y="1131"/>
      <point x="423" y="1410"/>
      <point x="760" y="1410" type="curve" smooth="yes"/>
      <point x="925" y="1410"/>
      <point x="1111" y="1343"/>
      <point x="1218" y="1128" type="curve"/>
      <point x="1273" y="1128" type="line"/>
      <point x="1167" y="1350"/>
      <point x="985" y="1440"/>
      <point x="762" y="1440" type="curve" smooth="yes"/>
      <point x="369" y="1440"/>
      <point x="106" y="1154"/>
      <point x="106" y="715" type="curve" smooth="yes"/>
      <point x="106" y="254"/>
      <point x="379" y="-6"/>
    </contour>
  </outline>
</glyph>
<glyph name="D" format="2">
  <advance width="1332"/>
  <unicode hex="0044"/>
  <note>
D
</note>
  <anchor x="666" y="0" name="bottom"/>
  <anchor x="216" y="715" name="center"/>
  <anchor x="666" y="1430" name="top"/>
  <outline>
    <contour>
      <point x="175" y="0" type="line"/>
      <point x="499" y="0" type="line" smooth="yes"/>
      <point x="690" y="0"/>
      <point x="841" y="27"/>
      <point x="957" y="95" type="curve" smooth="yes"/>
      <point x="1128" y="194"/>
      <point x="1220" y="381"/>
      <point x="1220" y="715" type="curve" smooth="yes"/>
      <point x="1220" y="991"/>
      <point x="1158" y="1174"/>
      <point x="1019" y="1286" type="curve" smooth="yes"/>
      <point x="890" y="1390"/>
      <point x="696" y="1430"/>
      <point x="437" y="1430" type="curve" smooth="yes"/>
      <point x="175" y="1430" type="line"/>
    </contour>
    <contour>
      <point x="245" y="15" type="line"/>
      <point x="245" y="1415" type="line"/>
      <point x="221" y="1404" type="line"/>
      <point x="529" y="1404" type="line" smooth="yes"/>
      <point x="971" y="1404"/>
      <point x="1155" y="1180"/>
      <point x="1155" y="719" type="curve" smooth="yes"/>
      <point x="1155" y="250"/>
      <point x="964" y="26"/>
      <point x="519" y="26" type="curve" smooth="yes"/>
      <point x="221" y="26" type="line"/>
    </contour>
  </outline>
</glyph>
<glyph name="E" format="2">
  <advance width="1011"/>
  <unicode hex="0045"/>
  <note>
E
</note>
  <anchor x="530" y="0" name="bottom"/>
  <anchor x="782" y="0" name="ogonek"/>
  <anchor x="530" y="1430" name="top"/>
  <anchor x="-15" y="1430" name="topleft"/>
  <outline>
    <contour>
      <point x="175" y="0" type="line"/>
      <point x="919" y="0" type="line"/>
      <point x="919" y="26" type="line"/>
      <point x="210" y="26" type="line"/>
      <point x="235" y="12" type="line"/>
      <point x="235" y="738" type="line"/>
      <point x="203" y="715" type="line"/>
      <point x="919" y="715" type="line"/>
      <point x="919" y="741" type="line"/>
      <point x="210" y="741" type="line"/>
      <point x="235" y="727" type="line"/>
      <point x="235" y="1420" type="line"/>
      <point x="191" y="1404" type="line"/>
      <point x="919" y="1404" type="line"/>
      <point x="919" y="1430" type="line"/>
      <point x="175" y="1430" type="line"/>
    </contour>
  </outline>
</glyph>
<glyph name="F" format="2">
  <advance width="999"/>
  <unicode hex="0046"/>
  <note>
F
</note>
  <anchor x="537" y="0" name="bottom"/>
  <anchor x="537" y="1430" name="top"/>
  <outline>
    <contour>
      <point x="175" y="0" type="line"/>
      <point x="235" y="0" type="line"/>
      <point x="235" y="738" type="line"/>
      <point x="203" y="715" type="line"/>
      <point x="919" y="715" type="line"/>
      <point x="919" y="741" type="line"/>
      <point x="210" y="741" type="line"/>
      <point x="235" y="727" type="line"/>
      <point x="235" y="1420" type="line"/>
      <point x="191" y="1404" type="line"/>
      <point x="919" y="1404" type="line"/>
      <point x="919" y="1430" type="line"/>
      <point x="175" y="1430" type="line"/>
    </contour>
  </outline>
</glyph>
<glyph name="G" format="2">
  <advance width="1451"/>
  <unicode hex="0047"/>
  <note>
G
</note>
  <anchor x="711" y="0" name="bottom"/>
  <anchor x="711" y="1430" name="top"/>
  <outline>
    <contour>
      <point x="746" y="-6" type="curve" smooth="yes"/>
      <point x="1121" y="-6"/>
      <point x="1337" y="256"/>
      <point x="1369" y="624" type="curve"/>
      <point x="1312" y="624" type="line"/>
      <point x="1273" y="276"/>
      <point x="1056" y="35"/>
      <point x="746" y="24" type="curve"/>
      <point x="409" y="36"/>
      <point x="182" y="320"/>
      <point x="182" y="718" type="curve" smooth="yes"/>
      <point x="182" y="1122"/>
      <point x="416" y="1402"/>
      <point x="746" y="1410" type="curve"/>
      <point x="947" y="1405"/>
      <point x="1112" y="1300"/>
      <point x="1211" y="1127" type="curve"/>
      <point x="1290" y="1127" type="line"/>
      <point x="1185" y="1319"/>
      <point x="998" y="1440"/>
      <point x="746" y="1440" type="curve" smooth="yes"/>
      <point x="343" y="1440"/>
      <point x="106" y="1131"/>
      <point x="106" y="715" type="curve" smooth="yes"/>
      <point x="106" y="301"/>
      <point x="340" y="-6"/>
    </contour>
    <contour>
      <point x="886" y="598" type="line"/>
      <point x="1330" y="598" type="line"/>
      <point x="1330" y="624" type="line"/>
      <point x="886" y="624" type="line"/>
    </contour>
  </outline>
</glyph>
<glyph name="H" format="2">
  <advance width="1500"/>
  <unicode hex="0048"/>
  <note>
H
</note>
  <anchor x="750" y="0" name="bottom"/>
  <anchor x="750" y="715" name="center"/>
  <anchor x="750" y="1430" name="top"/>
  <anchor x="65" y="1430" name="topleft"/>
  <outline>
    <contour>
      <point x="175" y="0" type="line"/>
      <point x="241" y="0" type="line"/>
      <point x="241" y="725" type="line"/>
      <point x="234" y="719" type="line"/>
      <point x="1266" y="719" type="line"/>
      <point x="1259" y="725" type="line"/>
      <point x="1259" y="0" type="line"/>
      <point x="1325" y="0" type="line"/>
      <point x="1325" y="1430" type="line"/>
      <point x="1259" y="1430" type="line"/>
      <point x="1259" y="739" type="line"/>
      <point x="1266" y="745" type="line"/>
      <point x="234" y="745" type="line"/>
      <point x="241" y="739" type="line"/>
      <point x="241" y="1430" type="line"/>
      <point x="175" y="1430" type="line"/>
    </contour>
  </outline>
</glyph>
<glyph name="I" format="2">
  <advance width="410"/>
  <unicode hex="0049"/>
  <note>
I
</note>
  <anchor x="205" y="0" name="bottom"/>
  <anchor x="206" y="0" name="ogonek"/>
  <anchor x="205" y="1430" name="top"/>
  <anchor x="24" y="1430" name="topleft"/>
  <outline>
    <contour>
      <point x="175" y="0" type="line"/>
      <point x="235" y="0" type="line"/>
      <point x="235" y="1430" type="line"/>
      <point x="175" y="1430" type="line"/>
    </contour>
  </outline>
</glyph>
<glyph name="J" format="2">
  <advance width="634"/>
  <unicode hex="004A"/>
  <note>
J
</note>
  <anchor x="335" y="-4" name="bottom"/>
  <anchor x="335" y="1436" name="top"/>
  <outline>
    <contour>
      <point x="70" y="-57" type="line"/>
      <point x="123" y="-130"/>
      <point x="196" y="-153"/>
      <point x="245" y="-153" type="curve" smooth="yes"/>
      <point x="398" y="-153"/>
      <point x="460" y="-20"/>
      <point x="460" y="252" type="curve" smooth="yes"/>
      <point x="460" y="1431" type="line"/>
      <point x="400" y="1431" type="line"/>
      <point x="400" y="164" type="line" smooth="yes"/>
      <point x="400" y="-106"/>
      <point x="278" y="-118"/>
      <point x="246" y="-118" type="curve" smooth="yes"/>
      <point x="180" y="-118"/>
      <point x="116" y="-67"/>
      <point x="70" y="7" type="curve"/>
    </contour>
  </outline>
</glyph>
<glyph name="K" format="2">
  <advance width="1239"/>
  <unicode hex="004B"/>
  <note>
K
</note>
  <anchor x="617" y="0" name="bottom"/>
  <anchor x="617" y="1430" name="top"/>
  <outline>
    <contour>
      <point x="175" y="0" type="line"/>
      <point x="235" y="0" type="line"/>
      <point x="235" y="1430" type="line"/>
      <point x="175" y="1430" type="line"/>
    </contour>
    <contour>
      <point x="204" y="361" type="line"/>
      <point x="1101" y="1430" type="line"/>
      <point x="1070" y="1430" type="line"/>
      <point x="216" y="410" type="line"/>
    </contour>
    <contour>
      <point x="1097" y="0" type="line"/>
      <point x="1170" y="0" type="line"/>
      <point x="528" y="766" type="line"/>
      <point x="494" y="727" type="line"/>
    </contour>
  </outline>
</glyph>
<glyph name="L" format="2">
  <advance width="866"/>
  <unicode hex="004C"/>
  <note>
L
</note>
  <anchor x="433" y="0" name="bottom"/>
  <anchor x="203" y="715" name="center"/>
  <anchor x="545" y="695" name="dot"/>
  <anchor x="771" y="10" name="ogonek"/>
  <anchor x="283" y="1430" name="top"/>
  <anchor x="17" y="1430" name="topleft"/>
  <anchor x="731" y="1430" name="topright"/>
  <outline>
    <contour>
      <point x="175" y="0" type="line"/>
      <point x="799" y="0" type="line"/>
      <point x="799" y="26" type="line"/>
      <point x="207" y="26" type="line"/>
      <point x="235" y="14" type="line"/>
      <point x="235" y="1430" type="line"/>
      <point x="175" y="1430" type="line"/>
    </contour>
  </outline>
</glyph>
<glyph name="M" format="2">
  <advance width="1554"/>
  <unicode hex="004D"/>
  <note>
M
</note>
  <guideline x="398" y="856" angle="112.9199"/>
  <guideline x="996" y="711" angle="247.1086"/>
  <guideline x="542" y="730" angle="111.5953"/>
  <guideline x="1095" y="730" angle="248.2128"/>
  <guideline x="1055" y="689" angle="68.3561"/>
  <guideline x="478" y="712" angle="292.8657"/>
  <anchor x="777" y="0" name="bottom"/>
  <anchor x="777" y="1430" name="top"/>
  <outline>
    <contour>
      <point x="175" y="0" type="line"/>
      <point x="201" y="0" type="line"/>
      <point x="201" y="1417" type="line"/>
      <point x="183" y="1413" type="line"/>
      <point x="780" y="76" type="line"/>
      <point x="1336" y="1404" type="line"/>
      <point x="1319" y="1407" type="line"/>
      <point x="1319" y="0" type="line"/>
      <point x="1379" y="0" type="line"/>
      <point x="1379" y="1430" type="line"/>
      <point x="1319" y="1430" type="line"/>
      <point x="787" y="168" type="line"/>
      <point x="814" y="186" type="line"/>
      <point x="259" y="1430" type="line"/>
      <point x="175" y="1430" type="line"/>
    </contour>
  </outline>
</glyph>
<glyph name="N" format="2">
  <advance width="1452"/>
  <unicode hex="004E"/>
  <note>
N
</note>
  <anchor x="726" y="0" name="bottom"/>
  <anchor x="726" y="1430" name="top"/>
  <outline>
    <contour>
      <point x="175" y="5" type="line"/>
      <point x="201" y="5" type="line"/>
      <point x="201" y="1413" type="line"/>
      <point x="180" y="1417" type="line"/>
      <point x="1204" y="0" type="line"/>
      <point x="1277" y="0" type="line"/>
      <point x="1277" y="1430" type="line"/>
      <point x="1251" y="1430" type="line"/>
      <point x="1251" y="5" type="line"/>
      <point x="1269" y="24" type="line"/>
      <point x="259" y="1430" type="line"/>
      <point x="175" y="1430" type="line"/>
    </contour>
  </outline>
</glyph>
<glyph name="O" format="2">
  <advance width="1492"/>
  <unicode hex="004F"/>
  <note>
O
</note>
  <anchor x="746" y="0" name="bottom"/>
  <anchor x="746" y="715" name="center"/>
  <anchor x="819" y="0" name="ogonek"/>
  <anchor x="746" y="1430" name="top"/>
  <anchor x="51" y="1430" name="topleft"/>
  <anchor x="1365" y="1430" name="topright"/>
  <outline>
    <contour>
      <point x="746" y="-6" type="curve" smooth="yes"/>
      <point x="1151" y="-6"/>
      <point x="1386" y="300"/>
      <point x="1386" y="715" type="curve" smooth="yes"/>
      <point x="1386" y="1130"/>
      <point x="1150" y="1440"/>
      <point x="746" y="1440" type="curve" smooth="yes"/>
      <point x="343" y="1440"/>
      <point x="106" y="1131"/>
      <point x="106" y="715" type="curve" smooth="yes"/>
      <point x="106" y="301"/>
      <point x="340" y="-6"/>
    </contour>
    <contour>
      <point x="746" y="24" type="curve"/>
      <point x="409" y="36"/>
      <point x="182" y="320"/>
      <point x="182" y="718" type="curve" smooth="yes"/>
      <point x="182" y="1122"/>
      <point x="416" y="1402"/>
      <point x="746" y="1410" type="curve"/>
      <point x="1076" y="1402"/>
      <point x="1310" y="1122"/>
      <point x="1310" y="718" type="curve" smooth="yes"/>
      <point x="1310" y="320"/>
      <point x="1083" y="36"/>
    </contour>
  </outline>
</glyph>
<glyph name="P" format="2">
  <advance width="967"/>
  <unicode hex="0050"/>
  <note>
P
</note>
  <anchor x="483" y="0" name="bottom"/>
  <anchor x="483" y="1430" name="top"/>
  <outline>
    <contour>
      <point x="175" y="0" type="line"/>
      <point x="235" y="0" type="line"/>
      <point x="235" y="658" type="line"/>
      <point x="205" y="647" type="line"/>
      <point x="430" y="647" type="line" smooth="yes"/>
      <point x="563" y="647"/>
      <point x="661" y="672"/>
      <point x="731" y="716" type="curve" smooth="yes"/>
      <point x="835" y="783"/>
      <point x="876" y="895"/>
      <point x="876" y="1038" type="curve" smooth="yes"/>
      <point x="876" y="1175"/>
      <point x="838" y="1275"/>
      <point x="760" y="1340" type="curve" smooth="yes"/>
      <point x="691" y="1397"/>
      <point x="582" y="1430"/>
      <point x="430" y="1430" type="curve" smooth="yes"/>
      <point x="175" y="1430" type="line"/>
    </contour>
    <contour>
      <point x="235" y="661" type="line"/>
      <point x="235" y="1416" type="line"/>
      <point x="187" y="1404" type="line"/>
      <point x="392" y="1404" type="line" smooth="yes"/>
      <point x="702" y="1404"/>
      <point x="811" y="1292"/>
      <point x="811" y="1038" type="curve" smooth="yes"/>
      <point x="811" y="781"/>
      <point x="700" y="673"/>
      <point x="392" y="673" type="curve" smooth="yes"/>
      <point x="205" y="673" type="line"/>
    </contour>
  </outline>
</glyph>
<glyph name="Q" format="2">
  <advance width="1492"/>
  <unicode hex="0051"/>
  <note>
Q
</note>
  <anchor x="740" y="0" name="bottom"/>
  <anchor x="740" y="1430" name="top"/>
  <anchor x="746" y="716.0049999999999" name="center"/>
  <anchor x="819" y="-4.0" name="ogonek"/>
  <anchor x="51" y="1436.0099999999998" name="topleft"/>
  <anchor x="1365" y="1436.0099999999998" name="topright"/>
  <outline>
    <contour>
      <point x="978" y="-379" type="curve" smooth="yes"/>
      <point x="1032" y="-379"/>
      <point x="1056" y="-374"/>
      <point x="1058" y="-353" type="curve"/>
      <point x="1046" y="-353"/>
      <point x="1033" y="-353"/>
      <point x="1021" y="-353" type="curve" smooth="yes"/>
      <point x="855" y="-353"/>
      <point x="753" y="-305"/>
      <point x="753" y="-161" type="curve" smooth="yes"/>
      <point x="753" y="3" type="line"/>
      <point x="706" y="3" type="line"/>
      <point x="706" y="-177" type="line" smooth="yes"/>
      <point x="706" y="-260"/>
      <point x="752" y="-311"/>
      <point x="794" y="-338" type="curve" smooth="yes"/>
      <point x="838" y="-366"/>
      <point x="890" y="-379"/>
    </contour>
    <component base="O" yScale="1.007" yOffset="-4"/>
  </outline>
</glyph>
<glyph name="S" format="2">
  <advance width="1066"/>
  <unicode hex="0053"/>
  <note>
S
</note>
  <anchor x="520" y="0" name="bottom"/>
  <anchor x="520" y="1430" name="top"/>
  <outline>
    <contour>
      <point x="531" y="-26" type="curve" smooth="yes"/>
      <point x="842" y="-26"/>
      <point x="966" y="159"/>
      <point x="966" y="384" type="curve" smooth="yes"/>
      <point x="966" y="617"/>
      <point x="784" y="727"/>
      <point x="563" y="788" type="curve" smooth="yes"/>
      <point x="317" y="855"/>
      <point x="210" y="968"/>
      <point x="210" y="1130" type="curve" smooth="yes"/>
      <point x="210" y="1301"/>
      <point x="332" y="1438"/>
      <point x="516" y="1438" type="curve" smooth="yes"/>
      <point x="698" y="1438"/>
      <point x="876" y="1303"/>
      <point x="892" y="1128" type="curve"/>
      <point x="939" y="1128" type="line"/>
      <point x="904" y="1336"/>
      <point x="737" y="1464"/>
      <point x="523" y="1464" type="curve" smooth="yes"/>
      <point x="282" y="1464"/>
      <point x="148" y="1298"/>
      <point x="148" y="1112" type="curve" smooth="yes"/>
      <point x="148" y="904"/>
      <point x="288" y="813"/>
      <point x="505" y="744" type="curve" smooth="yes"/>
      <point x="751" y="665"/>
      <point x="899" y="589"/>
      <point x="899" y="355" type="curve" smooth="yes"/>
      <point x="899" y="170"/>
      <point x="817" y="0"/>
      <point x="535" y="0" type="curve" smooth="yes"/>
      <point x="319" y="0"/>
      <point x="175" y="100"/>
      <point x="141" y="393" type="curve"/>
      <point x="91" y="393" type="line"/>
      <point x="119" y="100"/>
      <point x="274" y="-26"/>
    </contour>
  </outline>
</glyph>
<glyph name="T" format="2">
  <advance width="1126"/>
  <unicode hex="0054"/>
  <note>
T
</note>
  <anchor x="563" y="0" name="bottom"/>
  <anchor x="563" y="715" name="center"/>
  <anchor x="563" y="1430" name="top"/>
  <outline>
    <contour>
      <point x="532" y="0" type="line"/>
      <point x="594" y="0" type="line"/>
      <point x="594" y="1419" type="line"/>
      <point x="569" y="1404" type="line"/>
      <point x="1059" y="1404" type="line"/>
      <point x="1059" y="1430" type="line"/>
      <point x="67" y="1430" type="line"/>
      <point x="67" y="1404" type="line"/>
      <point x="557" y="1404" type="line"/>
      <point x="532" y="1419" type="line"/>
    </contour>
  </outline>
</glyph>
<glyph name="V" format="2">
  <advance width="1325"/>
  <unicode hex="0056"/>
  <note>
V
</note>
  <anchor x="663" y="0" name="bottom"/>
  <anchor x="663" y="1430" name="top"/>
  <outline>
    <contour>
      <point x="669" y="-41" type="line"/>
      <point x="1251" y="1429" type="line"/>
      <point x="1240" y="1429" type="line"/>
      <point x="674" y="0" type="line"/>
      <point x="703" y="58" type="line"/>
      <point x="151" y="1430" type="line"/>
      <point x="73" y="1429" type="line"/>
    </contour>
  </outline>
</glyph>
<glyph name="Y" format="2">
  <advance width="928"/>
  <unicode hex="0059"/>
  <note>
Y
</note>
  <guideline x="736" y="1192" angle="245.6375"/>
  <guideline x="265" y="1004" angle="294.3172"/>
  <anchor x="464" y="0" name="bottom"/>
  <anchor x="464" y="1430" name="top"/>
  <anchor x="47" y="1430" name="topleft"/>
  <outline>
    <contour>
      <point x="438" y="0" type="line"/>
      <point x="498" y="0" type="line"/>
      <point x="498" y="633" type="line"/>
      <point x="856" y="1430" type="line"/>
      <point x="844" y="1430" type="line"/>
      <point x="475" y="616" type="line"/>
      <point x="498" y="648" type="line"/>
      <point x="151" y="1430" type="line"/>
      <point x="72" y="1430" type="line"/>
      <point x="438" y="620" type="line"/>
    </contour>
  </outline>
</glyph>
<glyph name="Z" format="2">
  <advance width="1150"/>
  <unicode hex="005A"/>
  <note>
Z
</note>
  <anchor x="575" y="0" name="bottom"/>
  <anchor x="575" y="715" name="center"/>
  <anchor x="575" y="1430" name="top"/>
  <outline>
    <contour>
      <point x="69" y="0" type="line"/>
      <point x="1073" y="0" type="line"/>
      <point x="1072" y="29" type="line"/>
      <point x="93" y="29" type="line"/>
      <point x="111" y="14" type="line"/>
      <point x="1053" y="1430" type="line"/>
      <point x="174" y="1430" type="line"/>
      <point x="174" y="1401" type="line"/>
      <point x="1030" y="1401" type="line"/>
      <point x="1011" y="1414" type="line"/>
    </contour>
  </outline>
</glyph>
<glyph name="bracketleft" format="2">
  <advance width="556"/>
  <unicode hex="005B"/>
  <note>
bracketleft
</note>
  <outline>
    <contour>
      <point x="170" y="-402" type="line"/>
      <point x="486" y="-402" type="line"/>
      <point x="486" y="-352" type="line"/>
      <point x="210" y="-352" type="line"/>
      <point x="210" y="1412" type="line"/>
      <point x="486" y="1412" type="line"/>
      <point x="486" y="1462" type="line"/>
      <point x="170" y="1462" type="line"/>
    </contour>
  </outline>
</glyph>
<glyph name="bracketright" format="2">
  <advance width="556"/>
  <unicode hex="005D"/>
  <note>
bracketright
</note>
  <outline>
    <contour>
      <point x="70" y="-402" type="line"/>
      <point x="386" y="-402" type="line"/>
      <point x="386" y="1462" type="line"/>
      <point x="70" y="1462" type="line"/>
      <point x="70" y="1412" type="line"/>
      <point x="346" y="1412" type="line"/>
      <point x="346" y="-352" type="line"/>
      <point x="70" y="-352" type="line"/>
    </contour>
  </outline>
</glyph>
<glyph name="asciicircum" format="2">
  <advance width="938"/>
  <unicode hex="005E"/>
  <note>
asciicircum
</note>
  <outline>
    <contour>
      <point x="121" y="859" type="line"/>
      <point x="159" y="859" type="line"/>
      <point x="477" y="1430" type="line"/>
      <point x="461" y="1430" type="line"/>
      <point x="779" y="859" type="line"/>
      <point x="817" y="859" type="line"/>
      <point x="480" y="1460" type="line"/>
      <point x="456" y="1460" type="line"/>
    </contour>
  </outline>
</glyph>
<glyph name="underscore" format="2">
  <advance width="1188"/>
  <unicode hex="005F"/>
  <note>
underscore
</note>
  <outline>
    <contour>
      <point x="77" y="-329" type="line"/>
      <point x="1111" y="-329" type="line"/>
      <point x="1111" y="-289" type="line"/>
      <point x="77" y="-289" type="line"/>
    </contour>
  </outline>
</glyph>
<glyph name="b" format="2">
  <advance width="1017"/>
  <unicode hex="0062"/>
  <note>
b
</note>
  <anchor x="457" y="0" name="bottom"/>
  <anchor x="457" y="1514" name="top"/>
  <outline>
    <contour>
      <point x="549" y="-24" type="curve" smooth="yes"/>
      <point x="794" y="-24"/>
      <point x="944" y="166"/>
      <point x="944" y="444" type="curve" smooth="yes"/>
      <point x="944" y="722"/>
      <point x="795" y="938"/>
      <point x="549" y="938" type="curve" smooth="yes"/>
      <point x="359" y="938"/>
      <point x="226" y="808"/>
      <point x="174" y="621" type="curve"/>
      <point x="194" y="607" type="line"/>
      <point x="194" y="1514" type="line"/>
      <point x="142" y="1514" type="line"/>
      <point x="142" y="0" type="line"/>
      <point x="194" y="0" type="line"/>
      <point x="194" y="285" type="line"/>
      <point x="174" y="271" type="line"/>
      <point x="225" y="91"/>
      <point x="358" y="-24"/>
    </contour>
    <contour>
      <point x="549" y="4" type="curve" smooth="yes"/>
      <point x="348" y="4"/>
      <point x="198" y="149"/>
      <point x="198" y="444" type="curve" smooth="yes"/>
      <point x="198" y="732"/>
      <point x="340" y="910"/>
      <point x="549" y="910" type="curve" smooth="yes"/>
      <point x="752" y="910"/>
      <point x="892" y="749"/>
      <point x="892" y="454" type="curve" smooth="yes"/>
      <point x="892" y="166"/>
      <point x="760" y="4"/>
    </contour>
  </outline>
</glyph>
<glyph name="c" format="2">
  <advance width="749"/>
  <unicode hex="0063"/>
  <note>
c
</note>
  <anchor x="438" y="-20" name="bottom"/>
  <anchor x="448" y="914" name="top"/>
  <outline>
    <contour>
      <point x="468" y="-29" type="curve" smooth="yes"/>
      <point x="548" y="-29"/>
      <point x="631" y="-4"/>
      <point x="693" y="44" type="curve"/>
      <point x="693" y="91" type="line"/>
      <point x="632" y="35"/>
      <point x="551" y="0"/>
      <point x="467" y="0" type="curve" smooth="yes"/>
      <point x="278" y="0"/>
      <point x="129" y="178"/>
      <point x="129" y="454" type="curve" smooth="yes"/>
      <point x="129" y="731"/>
      <point x="278" y="909"/>
      <point x="467" y="909" type="curve" smooth="yes"/>
      <point x="551" y="909"/>
      <point x="632" y="874"/>
      <point x="693" y="818" type="curve"/>
      <point x="693" y="865" type="line"/>
      <point x="631" y="912"/>
      <point x="548" y="938"/>
      <point x="468" y="938" type="curve" smooth="yes"/>
      <point x="271" y="938"/>
      <point x="74" y="784"/>
      <point x="74" y="454" type="curve" smooth="yes"/>
      <point x="74" y="125"/>
      <point x="271" y="-29"/>
    </contour>
  </outline>
</glyph>
<glyph name="e" format="2">
  <advance width="937"/>
  <unicode hex="0065"/>
  <note>
e
</note>
  <anchor x="476" y="-10" name="bottom"/>
  <anchor x="600" y="0" name="ogonek"/>
  <anchor x="476" y="914" name="top"/>
  <outline>
    <contour>
      <point x="475" y="-24" type="curve" smooth="yes"/>
      <point x="662" y="-24"/>
      <point x="801" y="87"/>
      <point x="853" y="262" type="curve"/>
      <point x="791" y="262" type="line"/>
      <point x="739" y="91"/>
      <point x="627" y="4"/>
      <point x="475" y="4" type="curve" smooth="yes"/>
      <point x="266" y="4"/>
      <point x="133" y="167"/>
      <point x="133" y="454" type="curve" smooth="yes"/>
      <point x="133" y="750"/>
      <point x="274" y="910"/>
      <point x="475" y="910" type="curve" smooth="yes"/>
      <point x="655" y="910"/>
      <point x="804" y="783"/>
      <point x="831" y="507" type="curve"/>
      <point x="874" y="507" type="line"/>
      <point x="853" y="781"/>
      <point x="690" y="938"/>
      <point x="475" y="938" type="curve" smooth="yes"/>
      <point x="222" y="938"/>
      <point x="74" y="717"/>
      <point x="74" y="444" type="curve" smooth="yes"/>
      <point x="74" y="161"/>
      <point x="233" y="-24"/>
    </contour>
    <contour>
      <point x="106" y="507" type="line"/>
      <point x="848" y="507" type="line"/>
      <point x="848" y="530" type="line"/>
      <point x="106" y="530" type="line"/>
    </contour>
  </outline>
</glyph>
<glyph name="f" format="2">
  <advance width="384"/>
  <unicode hex="0066"/>
  <note>
f
</note>
  <anchor x="192" y="0" name="bottom"/>
  <anchor x="192" y="1514" name="top"/>
  <outline>
    <contour>
      <point x="165" y="0" type="line"/>
      <point x="217" y="0" type="line"/>
      <point x="217" y="1155" type="line" smooth="yes"/>
      <point x="217" y="1429"/>
      <point x="239" y="1502"/>
      <point x="325" y="1502" type="curve"/>
      <point x="397" y="1492"/>
      <point x="408" y="1429"/>
      <point x="408" y="1380" type="curve" smooth="yes"/>
      <point x="408" y="1351"/>
      <point x="401" y="1313"/>
      <point x="393" y="1298" type="curve"/>
      <point x="438" y="1298" type="line"/>
      <point x="453" y="1343"/>
      <point x="456" y="1381"/>
      <point x="456" y="1403" type="curve" smooth="yes"/>
      <point x="456" y="1477"/>
      <point x="421" y="1531"/>
      <point x="318" y="1531" type="curve" smooth="yes"/>
      <point x="165" y="1531"/>
      <point x="165" y="1355"/>
      <point x="165" y="1155" type="curve" smooth="yes"/>
    </contour>
    <contour>
      <point x="45" y="886" type="line"/>
      <point x="341" y="886" type="line"/>
      <point x="341" y="912" type="line"/>
      <point x="45" y="912" type="line"/>
    </contour>
  </outline>
</glyph>
<glyph name="h" format="2">
  <advance width="957"/>
  <unicode hex="0068"/>
  <note>
h
</note>
  <anchor x="479" y="0" name="bottom"/>
  <anchor x="166" y="1295" name="center"/>
  <anchor x="479" y="1514" name="top"/>
  <outline>
    <contour>
      <point x="141" y="0" type="line"/>
      <point x="193" y="0" type="line"/>
      <point x="193" y="542" type="line" smooth="yes"/>
      <point x="193" y="757"/>
      <point x="302" y="910"/>
      <point x="506" y="910" type="curve" smooth="yes"/>
      <point x="724" y="910"/>
      <point x="794" y="764"/>
      <point x="794" y="539" type="curve" smooth="yes"/>
      <point x="794" y="0" type="line"/>
      <point x="846" y="0" type="line"/>
      <point x="846" y="536" type="line" smooth="yes"/>
      <point x="846" y="765"/>
      <point x="778" y="938"/>
      <point x="516" y="938" type="curve" smooth="yes"/>
      <point x="324" y="938"/>
      <point x="202" y="818"/>
      <point x="184" y="638" type="curve"/>
      <point x="193" y="646" type="line"/>
      <point x="193" y="1514" type="line"/>
      <point x="141" y="1514" type="line"/>
    </contour>
  </outline>
</glyph>
<glyph name="m" format="2">
  <advance width="1640"/>
  <unicode hex="006D"/>
  <note>
m
</note>
  <anchor x="810" y="0" name="bottom"/>
  <anchor x="820" y="914" name="top"/>
  <outline>
    <contour>
      <point x="129" y="0" type="line"/>
      <point x="181" y="0" type="line"/>
      <point x="181" y="542" type="line" smooth="yes"/>
      <point x="181" y="757"/>
      <point x="293" y="910"/>
      <point x="534" y="910" type="curve" smooth="yes"/>
      <point x="733" y="910"/>
      <point x="802" y="806"/>
      <point x="802" y="599" type="curve" smooth="yes"/>
      <point x="802" y="0" type="line"/>
      <point x="854" y="0" type="line"/>
      <point x="854" y="542" type="line" smooth="yes"/>
      <point x="854" y="757"/>
      <point x="966" y="910"/>
      <point x="1207" y="910" type="curve" smooth="yes"/>
      <point x="1406" y="910"/>
      <point x="1475" y="806"/>
      <point x="1475" y="599" type="curve" smooth="yes"/>
      <point x="1475" y="1" type="line"/>
      <point x="1527" y="1" type="line"/>
      <point x="1527" y="616" type="line" smooth="yes"/>
      <point x="1527" y="798"/>
      <point x="1459" y="938"/>
      <point x="1217" y="938" type="curve" smooth="yes"/>
      <point x="996" y="938"/>
      <point x="864" y="822"/>
      <point x="842" y="647" type="curve"/>
      <point x="851" y="646" type="line"/>
      <point x="844" y="813"/>
      <point x="773" y="938"/>
      <point x="544" y="938" type="curve" smooth="yes"/>
      <point x="330" y="938"/>
      <point x="202" y="828"/>
      <point x="175" y="661" type="curve"/>
      <point x="181" y="645" type="line"/>
      <point x="181" y="912" type="line"/>
      <point x="129" y="912" type="line"/>
    </contour>
  </outline>
</glyph>
<glyph name="n" format="2">
  <advance width="945"/>
  <unicode hex="006E"/>
  <note>
n
</note>
  <anchor x="473" y="0" name="bottom"/>
  <anchor x="473" y="914" name="top"/>
  <outline>
    <contour>
      <point x="129" y="0" type="line"/>
      <point x="181" y="0" type="line"/>
      <point x="181" y="542" type="line" smooth="yes"/>
      <point x="181" y="757"/>
      <point x="290" y="910"/>
      <point x="494" y="910" type="curve" smooth="yes"/>
      <point x="712" y="910"/>
      <point x="782" y="764"/>
      <point x="782" y="539" type="curve" smooth="yes"/>
      <point x="782" y="0" type="line"/>
      <point x="834" y="0" type="line"/>
      <point x="834" y="536" type="line" smooth="yes"/>
      <point x="834" y="765"/>
      <point x="766" y="938"/>
      <point x="504" y="938" type="curve" smooth="yes"/>
      <point x="312" y="938"/>
      <point x="190" y="818"/>
      <point x="172" y="638" type="curve"/>
      <point x="181" y="646" type="line"/>
      <point x="181" y="912" type="line"/>
      <point x="129" y="912" type="line"/>
    </contour>
  </outline>
</glyph>
<glyph name="p" format="2">
  <advance width="1017"/>
  <unicode hex="0070"/>
  <note>
p
</note>
  <anchor x="506" y="0" name="bottom"/>
  <anchor x="506" y="914" name="top"/>
  <outline>
    <contour>
      <point x="142" y="-600" type="line"/>
      <point x="194" y="-600" type="line"/>
      <point x="194" y="307" type="line"/>
      <point x="174" y="293" type="line"/>
      <point x="226" y="106"/>
      <point x="359" y="-24"/>
      <point x="549" y="-24" type="curve" smooth="yes"/>
      <point x="795" y="-24"/>
      <point x="944" y="192"/>
      <point x="944" y="470" type="curve" smooth="yes"/>
      <point x="944" y="748"/>
      <point x="794" y="938"/>
      <point x="549" y="938" type="curve" smooth="yes"/>
      <point x="358" y="938"/>
      <point x="225" y="823"/>
      <point x="174" y="643" type="curve"/>
      <point x="194" y="629" type="line"/>
      <point x="194" y="912" type="line"/>
      <point x="142" y="912" type="line"/>
    </contour>
    <contour>
      <point x="549" y="4" type="curve" smooth="yes"/>
      <point x="340" y="4"/>
      <point x="198" y="182"/>
      <point x="198" y="470" type="curve" smooth="yes"/>
      <point x="198" y="765"/>
      <point x="348" y="910"/>
      <point x="549" y="910" type="curve" smooth="yes"/>
      <point x="760" y="910"/>
      <point x="892" y="748"/>
      <point x="892" y="460" type="curve" smooth="yes"/>
      <point x="892" y="165"/>
      <point x="752" y="4"/>
    </contour>
  </outline>
</glyph>
<glyph name="q" format="2">
  <advance width="1005"/>
  <unicode hex="0071"/>
  <note>
q
</note>
  <anchor x="512" y="0" name="bottom"/>
  <anchor x="512" y="914" name="top"/>
  <outline>
    <contour>
      <point x="824" y="-600" type="line"/>
      <point x="876" y="-600" type="line"/>
      <point x="876" y="914" type="line"/>
      <point x="824" y="914" type="line"/>
      <point x="824" y="629" type="line"/>
      <point x="844" y="643" type="line"/>
      <point x="793" y="823"/>
      <point x="660" y="938"/>
      <point x="469" y="938" type="curve" smooth="yes"/>
      <point x="224" y="938"/>
      <point x="74" y="748"/>
      <point x="74" y="470" type="curve" smooth="yes"/>
      <point x="74" y="192"/>
      <point x="223" y="-24"/>
      <point x="469" y="-24" type="curve" smooth="yes"/>
      <point x="659" y="-24"/>
      <point x="792" y="106"/>
      <point x="844" y="293" type="curve"/>
      <point x="824" y="307" type="line"/>
    </contour>
    <contour>
      <point x="469" y="4" type="curve" smooth="yes"/>
      <point x="266" y="4"/>
      <point x="126" y="165"/>
      <point x="126" y="460" type="curve" smooth="yes"/>
      <point x="126" y="748"/>
      <point x="258" y="910"/>
      <point x="469" y="910" type="curve" smooth="yes"/>
      <point x="670" y="910"/>
      <point x="820" y="765"/>
      <point x="820" y="470" type="curve" smooth="yes"/>
      <point x="820" y="182"/>
      <point x="678" y="4"/>
    </contour>
  </outline>
</glyph>
<glyph name="r" format="2">
  <advance width="728"/>
  <unicode hex="0072"/>
  <note>
r
</note>
  <anchor x="123" y="0" name="bottom"/>
  <anchor x="433" y="914" name="top"/>
  <outline>
    <contour>
      <point x="129" y="0" type="line"/>
      <point x="181" y="0" type="line"/>
      <point x="181" y="562" type="line" smooth="yes"/>
      <point x="181" y="774"/>
      <point x="292" y="910"/>
      <point x="450" y="910" type="curve" smooth="yes"/>
      <point x="548" y="910"/>
      <point x="636" y="857"/>
      <point x="636" y="773" type="curve" smooth="yes"/>
      <point x="636" y="736"/>
      <point x="619" y="695"/>
      <point x="612" y="683" type="curve"/>
      <point x="660" y="664" type="line"/>
      <point x="667" y="686"/>
      <point x="682" y="725"/>
      <point x="682" y="772" type="curve" smooth="yes"/>
      <point x="682" y="882"/>
      <point x="574" y="938"/>
      <point x="464" y="938" type="curve" smooth="yes"/>
      <point x="309" y="938"/>
      <point x="199" y="826"/>
      <point x="173" y="656" type="curve"/>
      <point x="181" y="645" type="line"/>
      <point x="181" y="912" type="line"/>
      <point x="129" y="912" type="line"/>
    </contour>
  </outline>
</glyph>
<glyph name="s" format="2">
  <advance width="721"/>
  <unicode hex="0073"/>
  <note>
s
</note>
  <anchor x="342" y="0" name="bottom"/>
  <anchor x="342" y="914" name="top"/>
  <outline>
    <contour>
      <point x="338" y="-24" type="curve" smooth="yes"/>
      <point x="533" y="-24"/>
      <point x="662" y="83"/>
      <point x="662" y="243" type="curve" smooth="yes"/>
      <point x="662" y="387"/>
      <point x="582" y="454"/>
      <point x="349" y="504" type="curve" smooth="yes"/>
      <point x="176" y="541"/>
      <point x="130" y="586"/>
      <point x="130" y="719" type="curve" smooth="yes"/>
      <point x="130" y="834"/>
      <point x="223" y="910"/>
      <point x="362" y="907" type="curve" smooth="yes"/>
      <point x="475" y="904"/>
      <point x="537" y="869"/>
      <point x="605" y="770" type="curve"/>
      <point x="605" y="839" type="line"/>
      <point x="542" y="911"/>
      <point x="475" y="938"/>
      <point x="363" y="938" type="curve" smooth="yes"/>
      <point x="178" y="938"/>
      <point x="78" y="853"/>
      <point x="78" y="696" type="curve" smooth="yes"/>
      <point x="78" y="563"/>
      <point x="153" y="495"/>
      <point x="340" y="457" type="curve" smooth="yes"/>
      <point x="547" y="415"/>
      <point x="605" y="366"/>
      <point x="605" y="233" type="curve" smooth="yes"/>
      <point x="605" y="95"/>
      <point x="503" y="10"/>
      <point x="337" y="10" type="curve" smooth="yes"/>
      <point x="218" y="10"/>
      <point x="127" y="62"/>
      <point x="68" y="163" type="curve"/>
      <point x="68" y="86" type="line"/>
      <point x="128" y="12"/>
      <point x="216" y="-24"/>
    </contour>
  </outline>
</glyph>
<glyph name="t" format="2">
  <advance width="445"/>
  <unicode hex="0074"/>
  <note>
t
</note>
  <anchor x="227" y="0" name="bottom"/>
  <anchor x="187" y="567" name="center"/>
  <anchor x="227" y="914" name="top"/>
  <anchor x="391" y="1284" name="topright"/>
  <outline>
    <contour>
      <point x="257" y="-26" type="curve" smooth="yes"/>
      <point x="301" y="-26"/>
      <point x="368" y="-14"/>
      <point x="401" y="6" type="curve"/>
      <point x="401" y="48" type="line"/>
      <point x="370" y="20"/>
      <point x="312" y="5"/>
      <point x="275" y="5" type="curve" smooth="yes"/>
      <point x="215" y="5"/>
      <point x="214" y="44"/>
      <point x="214" y="164" type="curve" smooth="yes"/>
      <point x="214" y="883" type="line"/>
      <point x="354" y="883" type="line"/>
      <point x="354" y="912" type="line"/>
      <point x="214" y="912" type="line"/>
      <point x="214" y="1185" type="line"/>
      <point x="182" y="1185" type="line"/>
      <point x="182" y="923"/>
      <point x="177" y="912"/>
      <point x="46" y="912" type="curve"/>
      <point x="46" y="883" type="line"/>
      <point x="162" y="883" type="line"/>
      <point x="162" y="190" type="line" smooth="yes"/>
      <point x="162" y="21"/>
      <point x="171" y="-26"/>
    </contour>
  </outline>
</glyph>
<glyph name="v" format="2">
  <advance width="943"/>
  <unicode hex="0076"/>
  <note>
v
</note>
  <guideline x="745" y="525" angle="246.2505"/>
  <guideline x="130" y="689" angle="114.2118"/>
  <guideline x="733" y="524" angle="246.4287"/>
  <anchor x="472" y="0" name="bottom"/>
  <anchor x="472" y="914" name="top"/>
  <outline>
    <contour>
      <point x="474" y="-45" type="line"/>
      <point x="481" y="-45" type="line"/>
      <point x="902" y="912" type="line"/>
      <point x="890" y="912" type="line"/>
      <point x="487" y="-10" type="line"/>
      <point x="507" y="26" type="line"/>
      <point x="109" y="912" type="line"/>
      <point x="41" y="912" type="line"/>
    </contour>
  </outline>
</glyph>
<glyph name="w" format="2">
  <advance width="1449"/>
  <unicode hex="0077"/>
  <note>
w
</note>
  <anchor x="725" y="0" name="bottom"/>
  <anchor x="725" y="914" name="top"/>
  <outline>
    <contour>
      <point x="988" y="-25" type="line"/>
      <point x="995" y="-25" type="line"/>
      <point x="1408" y="912" type="line"/>
      <point x="1395" y="912" type="line"/>
      <point x="1001" y="10" type="line"/>
      <point x="1021" y="46" type="line"/>
      <point x="633" y="912" type="line"/>
      <point x="565" y="912" type="line"/>
    </contour>
    <contour>
      <point x="464" y="-25" type="line"/>
      <point x="471" y="-25" type="line"/>
      <point x="740" y="587" type="line"/>
      <point x="734" y="600" type="line"/>
      <point x="477" y="10" type="line"/>
      <point x="497" y="46" type="line"/>
      <point x="109" y="912" type="line"/>
      <point x="41" y="912" type="line"/>
    </contour>
    <contour>
      <point x="747" y="587" type="line"/>
      <point x="891" y="912" type="line"/>
      <point x="878" y="912" type="line"/>
      <point x="741" y="600" type="line"/>
    </contour>
  </outline>
</glyph>
<glyph name="x" format="2">
  <advance width="792"/>
  <unicode hex="0078"/>
  <note>
x
</note>
  <anchor x="396" y="0" name="bottom"/>
  <anchor x="396" y="914" name="top"/>
  <outline>
    <contour>
      <point x="666" y="0" type="line"/>
      <point x="718" y="0" type="line"/>
      <point x="164" y="912" type="line"/>
      <point x="112" y="912" type="line"/>
    </contour>
    <contour>
      <point x="38" y="0" type="line"/>
      <point x="64" y="0" type="line"/>
      <point x="405" y="458" type="line"/>
      <point x="388" y="476" type="line"/>
    </contour>
    <contour>
      <point x="418" y="467" type="line"/>
      <point x="745" y="912" type="line"/>
      <point x="715" y="912" type="line"/>
      <point x="409" y="492" type="line"/>
    </contour>
  </outline>
</glyph>
<glyph name="z" format="2">
  <advance width="718"/>
  <unicode hex="007A"/>
  <note>
z
</note>
  <anchor x="359" y="0" name="bottom"/>
  <anchor x="359" y="457" name="center"/>
  <anchor x="359" y="914" name="top"/>
  <outline>
    <contour>
      <point x="52" y="0" type="line"/>
      <point x="663" y="0" type="line"/>
      <point x="663" y="32" type="line"/>
      <point x="114" y="32" type="line"/>
      <point x="131" y="17" type="line"/>
      <point x="663" y="912" type="line"/>
      <point x="63" y="912" type="line"/>
      <point x="63" y="880" type="line"/>
      <point x="614" y="880" type="line"/>
      <point x="583" y="891" type="line"/>
    </contour>
  </outline>
</glyph>
<glyph name="braceleft" format="2">
  <advance width="566"/>
  <unicode hex="007B"/>
  <note>
braceleft
</note>
  <outline>
    <contour>
      <point x="496" y="-402" type="curve"/>
      <point x="496" y="-352" type="line"/>
      <point x="316" y="-352"/>
      <point x="220" y="-212"/>
      <point x="220" y="8" type="curve" smooth="yes"/>
      <point x="220" y="330" type="line" smooth="yes"/>
      <point x="220" y="400"/>
      <point x="160" y="450"/>
      <point x="120" y="478" type="curve"/>
      <point x="160" y="508"/>
      <point x="220" y="556"/>
      <point x="220" y="626" type="curve" smooth="yes"/>
      <point x="220" y="1052" type="line" smooth="yes"/>
      <point x="220" y="1272"/>
      <point x="316" y="1412"/>
      <point x="496" y="1412" type="curve"/>
      <point x="496" y="1462" type="line"/>
      <point x="292" y="1462"/>
      <point x="180" y="1322"/>
      <point x="180" y="1122" type="curve" smooth="yes"/>
      <point x="180" y="626" type="line" smooth="yes"/>
      <point x="180" y="556"/>
      <point x="120" y="508"/>
      <point x="80" y="478" type="curve"/>
      <point x="120" y="448"/>
      <point x="180" y="400"/>
      <point x="180" y="330" type="curve" smooth="yes"/>
      <point x="180" y="-62" type="line" smooth="yes"/>
      <point x="180" y="-262"/>
      <point x="290" y="-402"/>
    </contour>
  </outline>
</glyph>
<glyph name="braceright" format="2">
  <advance width="566"/>
  <unicode hex="007D"/>
  <note>
braceright
</note>
  <outline>
    <contour>
      <point x="70" y="-402" type="line"/>
      <point x="276" y="-402"/>
      <point x="386" y="-262"/>
      <point x="386" y="-62" type="curve" smooth="yes"/>
      <point x="386" y="330" type="line" smooth="yes"/>
      <point x="386" y="400"/>
      <point x="446" y="448"/>
      <point x="486" y="478" type="curve"/>
      <point x="446" y="508"/>
      <point x="386" y="556"/>
      <point x="386" y="626" type="curve" smooth="yes"/>
      <point x="386" y="1122" type="line" smooth="yes"/>
      <point x="386" y="1322"/>
      <point x="274" y="1462"/>
      <point x="70" y="1462" type="curve"/>
      <point x="70" y="1412" type="line"/>
      <point x="250" y="1412"/>
      <point x="346" y="1272"/>
      <point x="346" y="1052" type="curve" smooth="yes"/>
      <point x="346" y="626" type="line" smooth="yes"/>
      <point x="346" y="556"/>
      <point x="406" y="508"/>
      <point x="446" y="478" type="curve"/>
      <point x="406" y="450"/>
      <point x="346" y="400"/>
      <point x="346" y="330" type="curve" smooth="yes"/>
      <point x="346" y="8" type="line" smooth="yes"/>
      <point x="346" y="-212"/>
      <point x="250" y="-352"/>
      <point x="70" y="-352" type="curve"/>
    </contour>
  </outline>
</glyph>
<glyph name="asciitilde" format="2">
  <advance width="1062"/>
  <unicode hex="007E"/>
  <note>
asciitilde
</note>
  <outline>
    <contour>
      <point x="692" y="650" type="curve" smooth="yes"/>
      <point x="797" y="650"/>
      <point x="864" y="695"/>
      <point x="929" y="793" type="curve"/>
      <point x="906" y="812" type="line"/>
      <point x="864" y="747"/>
      <point x="771" y="691"/>
      <point x="686" y="691" type="curve" smooth="yes"/>
      <point x="627" y="691"/>
      <point x="591" y="719"/>
      <point x="552" y="749" type="curve" smooth="yes"/>
      <point x="507" y="783"/>
      <point x="458" y="820"/>
      <point x="363" y="820" type="curve" smooth="yes"/>
      <point x="257" y="820"/>
      <point x="187" y="774"/>
      <point x="133" y="676" type="curve"/>
      <point x="158" y="658" type="line"/>
      <point x="200" y="723"/>
      <point x="282" y="777"/>
      <point x="366" y="777" type="curve" smooth="yes"/>
      <point x="434" y="777"/>
      <point x="472" y="741"/>
      <point x="519" y="708" type="curve" smooth="yes"/>
      <point x="561" y="679"/>
      <point x="609" y="650"/>
    </contour>
  </outline>
</glyph>
<glyph name=".notdef" format="2">
  <advance width="1272"/>
  <unicode hex="007F"/>
  <note>
.notdef
</note>
  <outline>
    <contour>
      <point x="136" y="-354" type="line"/>
      <point x="1136" y="-354" type="line"/>
      <point x="1136" y="1410" type="line"/>
      <point x="136" y="1410" type="line"/>
    </contour>
    <contour>
      <point x="248" y="-242" type="line"/>
      <point x="248" y="1298" type="line"/>
      <point x="1024" y="1298" type="line"/>
      <point x="1024" y="-242" type="line"/>
    </contour>
  </outline>
</glyph>
<glyph name="Euro" format="2">
  <advance width="1430"/>
  <unicode hex="0080"/>
  <note>
Euro
</note>
  <outline>
    <contour>
      <point x="848" y="-6" type="curve" smooth="yes"/>
      <point x="1057" y="-6"/>
      <point x="1191" y="98"/>
      <point x="1293" y="308" type="curve"/>
      <point x="1241" y="308" type="line"/>
      <point x="1140" y="90"/>
      <point x="998" y="24"/>
      <point x="854" y="24" type="curve" smooth="yes"/>
      <point x="552" y="24"/>
      <point x="348" y="316"/>
      <point x="348" y="718" type="curve" smooth="yes"/>
      <point x="348" y="1131"/>
      <point x="557" y="1410"/>
      <point x="848" y="1410" type="curve" smooth="yes"/>
      <point x="989" y="1410"/>
      <point x="1151" y="1343"/>
      <point x="1243" y="1128" type="curve"/>
      <point x="1291" y="1128" type="line"/>
      <point x="1199" y="1350"/>
      <point x="1042" y="1440"/>
      <point x="849" y="1440" type="curve" smooth="yes"/>
      <point x="510" y="1440"/>
      <point x="283" y="1154"/>
      <point x="283" y="715" type="curve" smooth="yes"/>
      <point x="283" y="254"/>
      <point x="519" y="-6"/>
    </contour>
    <contour>
      <point x="126" y="536" type="line"/>
      <point x="906" y="536" type="line"/>
      <point x="912" y="562" type="line"/>
      <point x="132" y="562" type="line"/>
    </contour>
    <contour>
      <point x="174" y="838" type="line"/>
      <point x="954" y="838" type="line"/>
      <point x="960" y="864" type="line"/>
      <point x="180" y="864" type="line"/>
    </contour>
  </outline>
</glyph>
<glyph name="sterling" format="2">
  <advance width="1163"/>
  <unicode hex="00A3"/>
  <note>
sterling
</note>
  <outline>
    <contour>
      <point x="312" y="37" type="curve" smooth="yes"/>
      <point x="466" y="37"/>
      <point x="679" y="219"/>
      <point x="679" y="444" type="curve" smooth="yes"/>
      <point x="679" y="677"/>
      <point x="577" y="747"/>
      <point x="456" y="836" type="curve" smooth="yes"/>
      <point x="360" y="906"/>
      <point x="263" y="1008"/>
      <point x="263" y="1170" type="curve" smooth="yes"/>
      <point x="263" y="1341"/>
      <point x="385" y="1438"/>
      <point x="569" y="1438" type="curve" smooth="yes"/>
      <point x="751" y="1438"/>
      <point x="929" y="1303"/>
      <point x="945" y="1128" type="curve"/>
      <point x="992" y="1128" type="line"/>
      <point x="957" y="1336"/>
      <point x="790" y="1464"/>
      <point x="576" y="1464" type="curve" smooth="yes"/>
      <point x="335" y="1464"/>
      <point x="201" y="1338"/>
      <point x="201" y="1152" type="curve" smooth="yes"/>
      <point x="201" y="944"/>
      <point x="327" y="847"/>
      <point x="450" y="755" type="curve" smooth="yes"/>
      <point x="544" y="685"/>
      <point x="612" y="649"/>
      <point x="612" y="415" type="curve" smooth="yes"/>
      <point x="612" y="230"/>
      <point x="440" y="37"/>
      <point x="158" y="37" type="curve"/>
      <point x="209" y="37"/>
      <point x="261" y="37"/>
    </contour>
    <contour>
      <point x="144" y="0" type="line"/>
      <point x="1028" y="0" type="line"/>
      <point x="1028" y="37" type="line"/>
      <point x="144" y="37" type="line"/>
    </contour>
    <contour>
      <point x="164" y="717" type="line"/>
      <point x="958" y="717" type="line"/>
      <point x="958" y="743" type="line"/>
      <point x="164" y="743" type="line"/>
    </contour>
  </outline>
</glyph>
<glyph name="currency" format="2">
  <advance width="1100"/>
  <unicode hex="00A4"/>
  <note>
currency
</note>
  <outline>
    <contour>
      <point x="176" y="281" type="line"/>
      <point x="362" y="477" type="line"/>
      <point x="415" y="432"/>
      <point x="483" y="405"/>
      <point x="557" y="405" type="curve" smooth="yes"/>
      <point x="627" y="405"/>
      <point x="690" y="429"/>
      <point x="741" y="468" type="curve"/>
      <point x="920" y="281" type="line"/>
      <point x="951" y="313" type="line"/>
      <point x="774" y="498" type="line"/>
      <point x="826" y="552"/>
      <point x="857" y="625"/>
      <point x="857" y="705" type="curve" smooth="yes"/>
      <point x="857" y="787"/>
      <point x="824" y="861"/>
      <point x="771" y="916" type="curve"/>
      <point x="951" y="1104" type="line"/>
      <point x="918" y="1135" type="line"/>
      <point x="737" y="945" type="line"/>
      <point x="687" y="983"/>
      <point x="625" y="1005"/>
      <point x="557" y="1005" type="curve" smooth="yes"/>
      <point x="485" y="1005"/>
      <point x="418" y="980"/>
      <point x="367" y="937" type="curve"/>
      <point x="178" y="1135" type="line"/>
      <point x="145" y="1104" type="line"/>
      <point x="334" y="906" type="line"/>
      <point x="286" y="853"/>
      <point x="257" y="783"/>
      <point x="257" y="705" type="curve" smooth="yes"/>
      <point x="257" y="629"/>
      <point x="285" y="560"/>
      <point x="331" y="508" type="curve"/>
      <point x="145" y="313" type="line"/>
    </contour>
    <contour>
      <point x="557" y="446" type="curve" smooth="yes"/>
      <point x="414" y="446"/>
      <point x="298" y="562"/>
      <point x="298" y="705" type="curve" smooth="yes"/>
      <point x="298" y="848"/>
      <point x="414" y="964"/>
      <point x="557" y="964" type="curve" smooth="yes"/>
      <point x="700" y="964"/>
      <point x="816" y="848"/>
      <point x="816" y="705" type="curve" smooth="yes"/>
      <point x="816" y="562"/>
      <point x="700" y="446"/>
    </contour>
  </outline>
</glyph>
<glyph name="brokenbar" format="2">
  <advance width="494"/>
  <unicode hex="00A6"/>
  <note>
brokenbar
</note>
  <outline>
    <contour>
      <point x="217" y="-300" type="line"/>
      <point x="277" y="-300" type="line"/>
      <point x="277" y="561" type="line"/>
      <point x="217" y="561" type="line"/>
    </contour>
    <contour>
      <point x="217" y="831" type="line"/>
      <point x="277" y="831" type="line"/>
      <point x="277" y="1664" type="line"/>
      <point x="217" y="1664" type="line"/>
    </contour>
  </outline>
</glyph>
<glyph name="ordfeminine" format="2">
  <advance width="686"/>
  <unicode hex="00AA"/>
  <note>
ordfeminine
</note>
  <outline>
    <contour>
      <point x="309" y="845" type="curve" smooth="yes"/>
      <point x="367" y="845"/>
      <point x="520" y="855"/>
      <point x="534" y="1064" type="curve"/>
      <point x="534" y="863" type="line"/>
      <point x="557" y="863" type="line"/>
      <point x="557" y="1435" type="line"/>
      <point x="532" y="1435" type="line"/>
      <point x="532" y="1230" type="line"/>
      <point x="518" y="1440"/>
      <point x="362" y="1451"/>
      <point x="305" y="1451" type="curve" smooth="yes"/>
      <point x="169" y="1451"/>
      <point x="91" y="1325"/>
      <point x="91" y="1146" type="curve" smooth="yes"/>
      <point x="91" y="957"/>
      <point x="172" y="845"/>
    </contour>
    <contour>
      <point x="315" y="869" type="curve" smooth="yes"/>
      <point x="178" y="869"/>
      <point x="131" y="994"/>
      <point x="131" y="1146" type="curve" smooth="yes"/>
      <point x="131" y="1298"/>
      <point x="172" y="1427"/>
      <point x="312" y="1427" type="curve" smooth="yes"/>
      <point x="450" y="1427"/>
      <point x="520" y="1337"/>
      <point x="520" y="1146" type="curve" smooth="yes"/>
      <point x="520" y="956"/>
      <point x="453" y="869"/>
    </contour>
    <contour>
      <point x="94" y="733" type="line"/>
      <point x="582" y="733" type="line"/>
      <point x="582" y="767" type="line"/>
      <point x="94" y="767" type="line"/>
    </contour>
  </outline>
</glyph>
<glyph name="logicalnot" format="2">
  <advance width="1000"/>
  <unicode hex="00AC"/>
  <note>
logicalnot
</note>
  <outline>
    <contour>
      <point x="1018" y="351" type="line"/>
      <point x="1058" y="351" type="line"/>
      <point x="1058" y="861" type="line"/>
      <point x="119" y="861" type="line"/>
      <point x="119" y="835" type="line"/>
      <point x="1018" y="835" type="line"/>
    </contour>
  </outline>
</glyph>
<glyph name="degree" format="2">
  <advance width="659"/>
  <unicode hex="00B0"/>
  <note>
degree
</note>
  <outline>
    <contour>
      <point x="328" y="1061" type="curve" smooth="yes"/>
      <point x="431" y="1061"/>
      <point x="514" y="1144"/>
      <point x="514" y="1245" type="curve" smooth="yes"/>
      <point x="514" y="1346"/>
      <point x="431" y="1429"/>
      <point x="330" y="1429" type="curve" smooth="yes"/>
      <point x="227" y="1429"/>
      <point x="146" y="1348"/>
      <point x="146" y="1245" type="curve" smooth="yes"/>
      <point x="146" y="1142"/>
      <point x="226" y="1061"/>
    </contour>
    <contour>
      <point x="330" y="1083" type="curve" smooth="yes"/>
      <point x="240" y="1083"/>
      <point x="168" y="1155"/>
      <point x="168" y="1245" type="curve" smooth="yes"/>
      <point x="168" y="1334"/>
      <point x="240" y="1406"/>
      <point x="330" y="1406" type="curve" smooth="yes"/>
      <point x="420" y="1406"/>
      <point x="491" y="1334"/>
      <point x="491" y="1245" type="curve" smooth="yes"/>
      <point x="491" y="1155"/>
      <point x="420" y="1083"/>
    </contour>
  </outline>
</glyph>
<glyph name="plusminus" format="2">
  <advance width="1000"/>
  <unicode hex="00B1"/>
  <note>
plusminus
</note>
  <outline>
    <contour>
      <point x="414" y="405" type="line"/>
      <point x="434" y="405" type="line"/>
      <point x="434" y="658" type="line"/>
      <point x="712" y="658" type="line"/>
      <point x="712" y="678" type="line"/>
      <point x="434" y="678" type="line"/>
      <point x="434" y="931" type="line"/>
      <point x="414" y="931" type="line"/>
      <point x="414" y="678" type="line"/>
      <point x="136" y="678" type="line"/>
      <point x="136" y="658" type="line"/>
      <point x="414" y="658" type="line"/>
    </contour>
    <contour>
      <point x="135" y="263" type="line"/>
      <point x="711" y="263" type="line"/>
      <point x="711" y="283" type="line"/>
      <point x="135" y="283" type="line"/>
    </contour>
  </outline>
</glyph>
<glyph name="paragraph" format="2">
  <advance width="1025"/>
  <unicode hex="00B6"/>
  <note>
paragraph
</note>
  <outline>
    <contour>
      <point x="489" y="0" type="line"/>
      <point x="549" y="0" type="line"/>
      <point x="549" y="1418" type="line"/>
      <point x="727" y="1418" type="line"/>
      <point x="727" y="0" type="line"/>
      <point x="787" y="0" type="line"/>
      <point x="787" y="1418" type="line"/>
      <point x="909" y="1418" type="line"/>
      <point x="909" y="1444" type="line"/>
      <point x="507" y="1444" type="line" smooth="yes"/>
      <point x="275" y="1444"/>
      <point x="123" y="1308"/>
      <point x="123" y="1104" type="curve" smooth="yes"/>
      <point x="123" y="908"/>
      <point x="263" y="774"/>
      <point x="489" y="764" type="curve"/>
    </contour>
  </outline>
</glyph>
<glyph name="ordmasculine" format="2">
  <advance width="748"/>
  <unicode hex="00BA"/>
  <note>
ordmasculine
</note>
  <outline>
    <contour>
      <point x="373" y="860" type="curve" smooth="yes"/>
      <point x="507" y="860"/>
      <point x="625" y="965"/>
      <point x="625" y="1147" type="curve" smooth="yes"/>
      <point x="625" y="1330"/>
      <point x="508" y="1438"/>
      <point x="373" y="1438" type="curve" smooth="yes"/>
      <point x="238" y="1438"/>
      <point x="123" y="1331"/>
      <point x="123" y="1147" type="curve" smooth="yes"/>
      <point x="123" y="964"/>
      <point x="239" y="860"/>
    </contour>
    <contour>
      <point x="374" y="882" type="curve" smooth="yes"/>
      <point x="258" y="882"/>
      <point x="161" y="982"/>
      <point x="161" y="1147" type="curve" smooth="yes"/>
      <point x="161" y="1312"/>
      <point x="259" y="1415"/>
      <point x="374" y="1415" type="curve" smooth="yes"/>
      <point x="489" y="1415"/>
      <point x="587" y="1312"/>
      <point x="587" y="1147" type="curve" smooth="yes"/>
      <point x="587" y="982"/>
      <point x="490" y="882"/>
    </contour>
    <contour>
      <point x="130" y="733" type="line"/>
      <point x="618" y="733" type="line"/>
      <point x="618" y="767" type="line"/>
      <point x="130" y="767" type="line"/>
    </contour>
  </outline>
</glyph>
<glyph name="AE" format="2">
  <advance width="1676"/>
  <unicode hex="00C6"/>
  <note>
AE
</note>
  <anchor x="884" y="-20" name="bottom"/>
  <anchor x="884" y="1450" name="top"/>
  <outline>
    <contour>
      <point x="69" y="-10" type="line"/>
      <point x="135" y="-10" type="line"/>
      <point x="983" y="1440" type="line"/>
      <point x="917" y="1440" type="line"/>
    </contour>
    <contour>
      <point x="365" y="459" type="line"/>
      <point x="1007" y="459" type="line"/>
      <point x="1007" y="486" type="line"/>
      <point x="365" y="486" type="line"/>
    </contour>
    <contour>
      <point x="974" y="-10" type="line"/>
      <point x="1584" y="-10" type="line"/>
      <point x="1584" y="17" type="line"/>
      <point x="1005" y="17" type="line"/>
      <point x="1034" y="0" type="line"/>
      <point x="1034" y="745" type="line"/>
      <point x="1006" y="715" type="line"/>
      <point x="1584" y="715" type="line"/>
      <point x="1584" y="742" type="line"/>
      <point x="1006" y="742" type="line"/>
      <point x="1034" y="722" type="line"/>
      <point x="1034" y="1440" type="line"/>
      <point x="1005" y="1413" type="line"/>
      <point x="1584" y="1413" type="line"/>
      <point x="1584" y="1440" type="line"/>
      <point x="974" y="1440" type="line"/>
    </contour>
  </outline>
</glyph>
<glyph name="germandbls" format="2">
  <advance width="927"/>
  <unicode hex="00DF"/>
  <note>
germandbls
</note>
  <anchor x="464" y="0" name="bottom"/>
  <anchor x="464" y="914" name="top"/>
  <outline>
    <contour>
      <point x="569" y="-24" type="curve" smooth="yes"/>
      <point x="764" y="-24"/>
      <point x="873" y="83"/>
      <point x="873" y="243" type="curve" smooth="yes"/>
      <point x="873" y="387"/>
      <point x="813" y="454"/>
      <point x="580" y="504" type="curve" smooth="yes"/>
      <point x="407" y="541"/>
      <point x="381" y="586"/>
      <point x="381" y="719" type="curve" smooth="yes"/>
      <point x="381" y="808"/>
      <point x="446" y="865"/>
      <point x="520" y="927" type="curve" smooth="yes"/>
      <point x="602" y="997"/>
      <point x="693" y="1075"/>
      <point x="693" y="1235" type="curve" smooth="yes"/>
      <point x="693" y="1376"/>
      <point x="607" y="1531"/>
      <point x="417" y="1531" type="curve" smooth="yes"/>
      <point x="251" y="1531"/>
      <point x="174" y="1355"/>
      <point x="174" y="1155" type="curve" smooth="yes"/>
      <point x="174" y="0" type="line"/>
      <point x="226" y="0" type="line"/>
      <point x="226" y="1155" type="line" smooth="yes"/>
      <point x="226" y="1429"/>
      <point x="337" y="1502"/>
      <point x="424" y="1502" type="curve" smooth="yes"/>
      <point x="555" y="1502"/>
      <point x="638" y="1352"/>
      <point x="638" y="1215" type="curve" smooth="yes"/>
      <point x="638" y="1092"/>
      <point x="575" y="1019"/>
      <point x="502" y="956" type="curve" smooth="yes"/>
      <point x="421" y="886"/>
      <point x="329" y="827"/>
      <point x="329" y="696" type="curve" smooth="yes"/>
      <point x="329" y="563"/>
      <point x="384" y="495"/>
      <point x="571" y="457" type="curve" smooth="yes"/>
      <point x="778" y="415"/>
      <point x="816" y="366"/>
      <point x="816" y="233" type="curve" smooth="yes"/>
      <point x="816" y="95"/>
      <point x="734" y="10"/>
      <point x="568" y="10" type="curve" smooth="yes"/>
      <point x="449" y="10"/>
      <point x="358" y="62"/>
      <point x="299" y="163" type="curve"/>
      <point x="299" y="86" type="line"/>
      <point x="359" y="12"/>
      <point x="447" y="-24"/>
    </contour>
    <contour>
      <point x="34" y="889" type="line"/>
      <point x="181" y="889" type="line"/>
      <point x="181" y="915" type="line"/>
      <point x="34" y="915" type="line"/>
    </contour>
  </outline>
</glyph>
<glyph name="ae" format="2">
  <advance width="1664"/>
  <unicode hex="00E6"/>
  <note>
ae
</note>
  <guideline x="1018" y="685" angle="0"/>
  <anchor x="833" y="0" name="bottom"/>
  <anchor x="833" y="914" name="top"/>
  <outline>
    <contour>
      <point x="469" y="-24" type="curve" smooth="yes"/>
      <point x="660" y="-24"/>
      <point x="793" y="92"/>
      <point x="844" y="273" type="curve"/>
      <point x="834" y="287" type="line"/>
      <point x="824" y="0" type="line"/>
      <point x="881" y="0" type="line"/>
      <point x="881" y="920" type="line"/>
      <point x="824" y="920" type="line"/>
      <point x="824" y="611" type="line"/>
      <point x="844" y="625" type="line"/>
      <point x="792" y="814"/>
      <point x="659" y="945"/>
      <point x="469" y="945" type="curve" smooth="yes"/>
      <point x="223" y="945"/>
      <point x="74" y="727"/>
      <point x="74" y="447" type="curve" smooth="yes"/>
      <point x="74" y="167"/>
      <point x="224" y="-24"/>
    </contour>
    <contour>
      <point x="469" y="4" type="curve" smooth="yes"/>
      <point x="258" y="4"/>
      <point x="126" y="167"/>
      <point x="126" y="457" type="curve" smooth="yes"/>
      <point x="126" y="754"/>
      <point x="266" y="916"/>
      <point x="469" y="916" type="curve" smooth="yes"/>
      <point x="678" y="916"/>
      <point x="820" y="737"/>
      <point x="820" y="447" type="curve" smooth="yes"/>
      <point x="820" y="150"/>
      <point x="670" y="4"/>
    </contour>
    <contour>
      <point x="1221" y="-24" type="curve" smooth="yes"/>
      <point x="1399" y="-24"/>
      <point x="1532" y="87"/>
      <point x="1581" y="262" type="curve"/>
      <point x="1522" y="262" type="line"/>
      <point x="1472" y="91"/>
      <point x="1366" y="4"/>
      <point x="1221" y="4" type="curve" smooth="yes"/>
      <point x="1022" y="4"/>
      <point x="895" y="167"/>
      <point x="895" y="454" type="curve" smooth="yes"/>
      <point x="895" y="750"/>
      <point x="1030" y="910"/>
      <point x="1221" y="910" type="curve" smooth="yes"/>
      <point x="1392" y="910"/>
      <point x="1534" y="783"/>
      <point x="1560" y="507" type="curve"/>
      <point x="1601" y="507" type="line"/>
      <point x="1581" y="781"/>
      <point x="1426" y="938"/>
      <point x="1221" y="938" type="curve" smooth="yes"/>
      <point x="980" y="938"/>
      <point x="839" y="717"/>
      <point x="839" y="444" type="curve" smooth="yes"/>
      <point x="839" y="161"/>
      <point x="991" y="-24"/>
    </contour>
    <contour>
      <point x="870" y="507" type="line"/>
      <point x="1576" y="507" type="line"/>
      <point x="1576" y="530" type="line"/>
      <point x="870" y="530" type="line"/>
    </contour>
  </outline>
</glyph>
<glyph name="thorn" format="2">
  <advance width="1029"/>
  <unicode hex="00FE"/>
  <note>
thorn
</note>
  <anchor x="518" y="0" name="bottom"/>
  <anchor x="518" y="914" name="top"/>
  <outline>
    <contour>
      <point x="154" y="-600" type="line"/>
      <point x="206" y="-600" type="line"/>
      <point x="206" y="307" type="line"/>
      <point x="186" y="293" type="line"/>
      <point x="238" y="106"/>
      <point x="371" y="-24"/>
      <point x="561" y="-24" type="curve" smooth="yes"/>
      <point x="807" y="-24"/>
      <point x="956" y="192"/>
      <point x="956" y="470" type="curve" smooth="yes"/>
      <point x="956" y="748"/>
      <point x="806" y="938"/>
      <point x="561" y="938" type="curve" smooth="yes"/>
      <point x="370" y="938"/>
      <point x="237" y="823"/>
      <point x="186" y="643" type="curve"/>
      <point x="206" y="629" type="line"/>
      <point x="206" y="1514" type="line"/>
      <point x="154" y="1514" type="line"/>
    </contour>
    <contour>
      <point x="561" y="4" type="curve" smooth="yes"/>
      <point x="352" y="4"/>
      <point x="210" y="182"/>
      <point x="210" y="470" type="curve" smooth="yes"/>
      <point x="210" y="765"/>
      <point x="360" y="910"/>
      <point x="561" y="910" type="curve" smooth="yes"/>
      <point x="772" y="910"/>
      <point x="904" y="748"/>
      <point x="904" y="460" type="curve" smooth="yes"/>
      <point x="904" y="165"/>
      <point x="764" y="4"/>
    </contour>
  </outline>
</glyph>
<glyph name="idotless" format="2">
  <advance width="310"/>
  <unicode hex="0131"/>
  <note>
dotlessi
</note>
  <anchor x="155" y="0" name="bottom"/>
  <anchor x="155" y="0" name="ogonek"/>
  <anchor x="159" y="910" name="top"/>
  <outline>
    <contour>
      <point x="129" y="0" type="line"/>
      <point x="181" y="0" type="line"/>
      <point x="181" y="912" type="line"/>
      <point x="129" y="912" type="line"/>
    </contour>
  </outline>
</glyph>
<glyph name="lslash" format="2">
  <advance width="552"/>
  <unicode hex="0142"/>
  <outline>
    <contour>
      <point x="247" y="0" type="line"/>
      <point x="311" y="0" type="line"/>
      <point x="311" y="1514" type="line"/>
      <point x="247" y="1514" type="line"/>
    </contour>
    <contour>
      <point x="55" y="550" type="line"/>
      <point x="519" y="832" type="line"/>
      <point x="497" y="869" type="line"/>
      <point x="33" y="587" type="line"/>
    </contour>
  </outline>
</glyph>
<glyph name="eng" format="2">
  <advance width="965"/>
  <unicode hex="014B"/>
  <outline>
    <contour>
      <point x="701" y="-457" type="curve" smooth="yes"/>
      <point x="854" y="-457"/>
      <point x="854" y="-281"/>
      <point x="854" y="-81" type="curve" smooth="yes"/>
      <point x="854" y="616" type="line" smooth="yes"/>
      <point x="854" y="798"/>
      <point x="786" y="938"/>
      <point x="544" y="938" type="curve" smooth="yes"/>
      <point x="329" y="938"/>
      <point x="203" y="828"/>
      <point x="175" y="661" type="curve"/>
      <point x="181" y="645" type="line"/>
      <point x="181" y="912" type="line"/>
      <point x="129" y="912" type="line"/>
      <point x="129" y="0" type="line"/>
      <point x="181" y="0" type="line"/>
      <point x="181" y="542" type="line" smooth="yes"/>
      <point x="181" y="757"/>
      <point x="293" y="910"/>
      <point x="534" y="910" type="curve" smooth="yes"/>
      <point x="733" y="910"/>
      <point x="802" y="806"/>
      <point x="802" y="599" type="curve" smooth="yes"/>
      <point x="802" y="-81" type="line" smooth="yes"/>
      <point x="802" y="-355"/>
      <point x="780" y="-428"/>
      <point x="694" y="-428" type="curve"/>
      <point x="622" y="-418"/>
      <point x="611" y="-355"/>
      <point x="611" y="-306" type="curve" smooth="yes"/>
      <point x="611" y="-277"/>
      <point x="618" y="-239"/>
      <point x="626" y="-224" type="curve"/>
      <point x="581" y="-224" type="line"/>
      <point x="566" y="-269"/>
      <point x="563" y="-307"/>
      <point x="563" y="-329" type="curve" smooth="yes"/>
      <point x="563" y="-403"/>
      <point x="598" y="-457"/>
    </contour>
  </outline>
</glyph>
<glyph name="OE" format="2">
  <advance width="1962"/>
  <unicode hex="0152"/>
  <note>
OE
</note>
  <anchor x="993" y="0" name="bottom"/>
  <anchor x="993" y="1430" name="top"/>
  <outline>
    <contour>
      <point x="696" y="-6" type="curve" smooth="yes"/>
      <point x="1101" y="-6"/>
      <point x="1286" y="300"/>
      <point x="1286" y="715" type="curve" smooth="yes"/>
      <point x="1286" y="1130"/>
      <point x="1100" y="1440"/>
      <point x="696" y="1440" type="curve" smooth="yes"/>
      <point x="293" y="1440"/>
      <point x="106" y="1131"/>
      <point x="106" y="715" type="curve" smooth="yes"/>
      <point x="106" y="301"/>
      <point x="290" y="-6"/>
    </contour>
    <contour>
      <point x="696" y="24" type="curve"/>
      <point x="359" y="36"/>
      <point x="182" y="320"/>
      <point x="182" y="718" type="curve" smooth="yes"/>
      <point x="182" y="1122"/>
      <point x="366" y="1402"/>
      <point x="696" y="1410" type="curve"/>
      <point x="1026" y="1402"/>
      <point x="1210" y="1122"/>
      <point x="1210" y="718" type="curve" smooth="yes"/>
      <point x="1210" y="320"/>
      <point x="1033" y="36"/>
    </contour>
    <contour>
      <point x="1226" y="0" type="line"/>
      <point x="1870" y="0" type="line"/>
      <point x="1870" y="26" type="line"/>
      <point x="1261" y="26" type="line"/>
      <point x="1286" y="12" type="line"/>
      <point x="1286" y="738" type="line"/>
      <point x="1254" y="715" type="line"/>
      <point x="1870" y="715" type="line"/>
      <point x="1870" y="741" type="line"/>
      <point x="1261" y="741" type="line"/>
      <point x="1286" y="727" type="line"/>
      <point x="1286" y="1420" type="line"/>
      <point x="1242" y="1404" type="line"/>
      <point x="1870" y="1404" type="line"/>
      <point x="1870" y="1430" type="line"/>
      <point x="1226" y="1430" type="line"/>
    </contour>
  </outline>
</glyph>
<glyph name="Schwa" format="2">
  <advance width="1471"/>
  <unicode hex="018F"/>
  <anchor x="735" y="0" name="bottom"/>
  <anchor x="735" y="1430" name="top"/>
  <outline>
    <contour>
      <point x="725" y="-6" type="curve" smooth="yes"/>
      <point x="1130" y="-6"/>
      <point x="1365" y="300"/>
      <point x="1365" y="715" type="curve" smooth="yes"/>
      <point x="1365" y="1130"/>
      <point x="1129" y="1440"/>
      <point x="725" y="1440" type="curve" smooth="yes"/>
      <point x="492" y="1440"/>
      <point x="315" y="1337"/>
      <point x="206" y="1169" type="curve"/>
      <point x="287" y="1169" type="line"/>
      <point x="387" y="1317"/>
      <point x="541" y="1406"/>
      <point x="725" y="1410" type="curve"/>
      <point x="1055" y="1402"/>
      <point x="1289" y="1122"/>
      <point x="1289" y="718" type="curve" smooth="yes"/>
      <point x="1289" y="320"/>
      <point x="1062" y="36"/>
      <point x="725" y="24" type="curve"/>
      <point x="388" y="36"/>
      <point x="161" y="320"/>
      <point x="161" y="718" type="curve"/>
      <point x="85" y="718" type="line"/>
      <point x="85" y="301"/>
      <point x="319" y="-6"/>
    </contour>
    <contour>
      <point x="159" y="692" type="line"/>
      <point x="1349" y="692" type="line"/>
      <point x="1349" y="718" type="line"/>
      <point x="159" y="718" type="line"/>
    </contour>
  </outline>
</glyph>
<glyph name="florin" format="2">
  <advance width="1177"/>
  <unicode hex="0192"/>
  <note>
florin
</note>
  <outline>
    <contour>
      <point x="520" y="354" type="line"/>
      <point x="568" y="354" type="line"/>
      <point x="761" y="1155" type="line" smooth="yes"/>
      <point x="827" y="1429"/>
      <point x="868" y="1502"/>
      <point x="954" y="1502" type="curve"/>
      <point x="1000" y="1495"/>
      <point x="1014" y="1465"/>
      <point x="1015" y="1431" type="curve"/>
      <point x="1059" y="1484" type="line"/>
      <point x="1045" y="1513"/>
      <point x="1013" y="1531"/>
      <point x="954" y="1531" type="curve" smooth="yes"/>
      <point x="801" y="1531"/>
      <point x="761" y="1355"/>
      <point x="713" y="1155" type="curve" smooth="yes"/>
    </contour>
    <contour>
      <point x="222" y="-458" type="curve" smooth="yes"/>
      <point x="375" y="-458"/>
      <point x="415" y="-282"/>
      <point x="463" y="-82" type="curve" smooth="yes"/>
      <point x="606" y="513" type="line"/>
      <point x="558" y="513" type="line"/>
      <point x="415" y="-82" type="line" smooth="yes"/>
      <point x="349" y="-356"/>
      <point x="308" y="-429"/>
      <point x="222" y="-429" type="curve"/>
      <point x="176" y="-422"/>
      <point x="162" y="-392"/>
      <point x="161" y="-358" type="curve"/>
      <point x="117" y="-411" type="line"/>
      <point x="131" y="-440"/>
      <point x="163" y="-458"/>
    </contour>
    <contour>
      <point x="495" y="884" type="line"/>
      <point x="851" y="884" type="line"/>
      <point x="858" y="910" type="line"/>
      <point x="502" y="910" type="line"/>
    </contour>
  </outline>
</glyph>
<glyph name="jdotless" format="2">
  <advance width="336"/>
  <unicode hex="0237"/>
  <anchor x="167" y="-526" name="bottom"/>
  <anchor x="167" y="914" name="top"/>
  <outline>
    <contour>
      <point x="41" y="-557" type="curve" smooth="yes"/>
      <point x="194" y="-557"/>
      <point x="194" y="-381"/>
      <point x="194" y="-181" type="curve" smooth="yes"/>
      <point x="194" y="912" type="line"/>
      <point x="142" y="912" type="line"/>
      <point x="142" y="-181" type="line" smooth="yes"/>
      <point x="142" y="-455"/>
      <point x="120" y="-528"/>
      <point x="34" y="-528" type="curve"/>
      <point x="-38" y="-518"/>
      <point x="-49" y="-455"/>
      <point x="-49" y="-406" type="curve" smooth="yes"/>
      <point x="-49" y="-377"/>
      <point x="-42" y="-339"/>
      <point x="-34" y="-324" type="curve"/>
      <point x="-79" y="-324" type="line"/>
      <point x="-94" y="-369"/>
      <point x="-97" y="-407"/>
      <point x="-97" y="-429" type="curve" smooth="yes"/>
      <point x="-97" y="-503"/>
      <point x="-62" y="-557"/>
    </contour>
  </outline>
</glyph>
<glyph name="primemod" format="2">
  <advance width="132"/>
  <unicode hex="02B9"/>
  <outline>
    <contour>
      <point x="132" y="1331" type="curve"/>
      <point x="51" y="1331" type="line"/>
      <point x="32" y="1262"/>
      <point x="7" y="1115"/>
      <point x="0" y="1052" type="curve"/>
      <point x="53" y="1052" type="line"/>
      <point x="89" y="1142"/>
      <point x="115" y="1247"/>
    </contour>
  </outline>
</glyph>
<glyph name="gravecomb" format="2">
  <unicode hex="0300"/>
  <note>
grave
</note>
  <anchor x="164" y="914" name="_top"/>
  <anchor x="164" y="1276" name="top"/>
  <outline>
    <contour>
      <point x="239" y="1063" type="curve"/>
      <point x="255" y="1063" type="line"/>
      <point x="229" y="1114"/>
      <point x="171" y="1219"/>
      <point x="129" y="1276" type="curve"/>
      <point x="73" y="1276" type="line"/>
      <point x="123" y="1207"/>
      <point x="159" y="1157"/>
    </contour>
  </outline>
</glyph>
<glyph name="tildecomb" format="2">
  <unicode hex="0303"/>
  <note>
tilde
</note>
  <anchor x="356" y="914" name="_top"/>
  <anchor x="356" y="1280" name="top"/>
  <outline>
    <contour>
      <point x="461" y="1130" type="curve" smooth="yes"/>
      <point x="536" y="1130"/>
      <point x="594" y="1187"/>
      <point x="619" y="1253" type="curve"/>
      <point x="604" y="1268" type="line"/>
      <point x="572" y="1217"/>
      <point x="541" y="1161"/>
      <point x="457" y="1161" type="curve" smooth="yes"/>
      <point x="388" y="1161"/>
      <point x="344" y="1280"/>
      <point x="246" y="1280" type="curve" smooth="yes"/>
      <point x="177" y="1280"/>
      <point x="113" y="1223"/>
      <point x="92" y="1156" type="curve"/>
      <point x="109" y="1141" type="line"/>
      <point x="141" y="1193"/>
      <point x="166" y="1249"/>
      <point x="248" y="1249" type="curve" smooth="yes"/>
      <point x="323" y="1249"/>
      <point x="366" y="1130"/>
    </contour>
  </outline>
</glyph>
<glyph name="macroncomb" format="2">
  <unicode hex="0304"/>
  <note>
macron
</note>
  <anchor x="294" y="914" name="_top"/>
  <anchor x="294" y="1171" name="top"/>
  <outline>
    <contour>
      <point x="55" y="1143" type="line"/>
      <point x="533" y="1143" type="line"/>
      <point x="533" y="1171" type="line"/>
      <point x="55" y="1171" type="line"/>
    </contour>
  </outline>
</glyph>
<glyph name="brevecomb" format="2">
  <unicode hex="0306"/>
  <note>
breve
</note>
  <anchor x="264" y="914" name="_top"/>
  <anchor x="264" y="1270" name="top"/>
  <outline>
    <contour>
      <point x="264" y="1082" type="curve" smooth="yes"/>
      <point x="342" y="1082"/>
      <point x="412" y="1122"/>
      <point x="451" y="1270" type="curve"/>
      <point x="430" y="1270" type="line"/>
      <point x="390" y="1165"/>
      <point x="354" y="1122"/>
      <point x="264" y="1122" type="curve" smooth="yes"/>
      <point x="174" y="1122"/>
      <point x="138" y="1165"/>
      <point x="98" y="1270" type="curve"/>
      <point x="77" y="1270" type="line"/>
      <point x="116" y="1122"/>
      <point x="186" y="1082"/>
    </contour>
  </outline>
</glyph>
<glyph name="ringcomb" format="2">
  <unicode hex="030A"/>
  <note>
ring
</note>
  <anchor x="234" y="914" name="_top"/>
  <anchor x="234" y="1379" name="top"/>
  <outline>
    <contour>
      <point x="233" y="1090" type="curve" smooth="yes"/>
      <point x="312" y="1090"/>
      <point x="379" y="1156"/>
      <point x="379" y="1236" type="curve" smooth="yes"/>
      <point x="379" y="1314"/>
      <point x="312" y="1382"/>
      <point x="233" y="1382" type="curve" smooth="yes"/>
      <point x="153" y="1382"/>
      <point x="87" y="1315"/>
      <point x="87" y="1236" type="curve" smooth="yes"/>
      <point x="87" y="1155"/>
      <point x="153" y="1090"/>
    </contour>
    <contour>
      <point x="233" y="1124" type="curve" smooth="yes"/>
      <point x="171" y="1124"/>
      <point x="121" y="1175"/>
      <point x="121" y="1236" type="curve" smooth="yes"/>
      <point x="121" y="1298"/>
      <point x="172" y="1348"/>
      <point x="233" y="1348" type="curve" smooth="yes"/>
      <point x="295" y="1348"/>
      <point x="345" y="1297"/>
      <point x="345" y="1236" type="curve" smooth="yes"/>
      <point x="345" y="1174"/>
      <point x="294" y="1124"/>
    </contour>
  </outline>
</glyph>
<glyph name="horncomb" format="2">
  <unicode hex="031B"/>
  <anchor x="300" y="1204" name="_topright"/>
  <anchor x="289" y="1241" name="topright"/>
  <outline>
    <contour>
      <point x="269" y="1261" type="curve"/>
      <point x="225" y="1261" type="line"/>
      <point x="225" y="1205"/>
      <point x="164" y="1145"/>
      <point x="100" y="1137" type="curve"/>
      <point x="100" y="1110" type="line"/>
      <point x="182" y="1108"/>
      <point x="269" y="1190"/>
    </contour>
  </outline>
</glyph>
<glyph name="cedillacomb" format="2">
  <unicode hex="0327"/>
  <anchor x="168" y="0" name="_bottom"/>
  <anchor x="168" y="-321" name="bottom"/>
  <outline>
    <contour>
      <point x="166" y="-324" type="curve" smooth="yes"/>
      <point x="243" y="-324"/>
      <point x="302" y="-272"/>
      <point x="302" y="-211" type="curve" smooth="yes"/>
      <point x="302" y="-155"/>
      <point x="252" y="-114"/>
      <point x="188" y="-114" type="curve" smooth="yes"/>
      <point x="154" y="-114"/>
      <point x="126" y="-126"/>
      <point x="81" y="-151" type="curve"/>
      <point x="63" y="-174" type="line"/>
      <point x="93" y="-160"/>
      <point x="145" y="-150"/>
      <point x="178" y="-150" type="curve" smooth="yes"/>
      <point x="227" y="-150"/>
      <point x="247" y="-174"/>
      <point x="247" y="-214" type="curve" smooth="yes"/>
      <point x="247" y="-263"/>
      <point x="225" y="-291"/>
      <point x="162" y="-291" type="curve" smooth="yes"/>
      <point x="130" y="-291"/>
      <point x="90" y="-284"/>
      <point x="38" y="-265" type="curve"/>
      <point x="38" y="-288" type="line"/>
      <point x="75" y="-309"/>
      <point x="125" y="-324"/>
    </contour>
    <contour>
      <point x="63" y="-174" type="line"/>
      <point x="135" y="-130" type="line"/>
      <point x="211" y="0" type="line"/>
      <point x="172" y="0" type="line"/>
    </contour>
  </outline>
</glyph>
<glyph name="strokeshortcomb" format="2">
  <unicode hex="0335"/>
  <anchor x="241" y="752" name="_center"/>
  <outline>
    <contour>
      <point x="52" y="737" type="line"/>
      <point x="428" y="737" type="line"/>
      <point x="428" y="765" type="line"/>
      <point x="52" y="765" type="line"/>
    </contour>
  </outline>
</glyph>
<glyph name="slashshortcomb" format="2">
  <unicode hex="0337"/>
  <anchor x="268" y="710" name="_center"/>
  <outline>
    <contour>
      <point x="47" y="551" type="line"/>
      <point x="511" y="832" type="line"/>
      <point x="489" y="869" type="line"/>
      <point x="25" y="588" type="line"/>
    </contour>
  </outline>
</glyph>
<glyph name="Dje-cy" format="2">
  <advance width="1350"/>
  <unicode hex="0402"/>
  <outline>
    <contour>
      <point x="801" y="-26" type="line"/>
      <point x="1112" y="-26"/>
      <point x="1236" y="166"/>
      <point x="1236" y="442" type="curve" smooth="yes"/>
      <point x="1236" y="692"/>
      <point x="1131" y="832"/>
      <point x="890" y="832" type="curve" smooth="yes"/>
      <point x="701" y="832"/>
      <point x="545" y="746"/>
      <point x="480" y="544" type="curve"/>
      <point x="480" y="1430" type="line"/>
      <point x="420" y="1430" type="line"/>
      <point x="420" y="0" type="line"/>
      <point x="480" y="0" type="line"/>
      <point x="480" y="387" type="line" smooth="yes"/>
      <point x="480" y="612"/>
      <point x="633" y="803"/>
      <point x="876" y="803" type="curve" smooth="yes"/>
      <point x="1090" y="803"/>
      <point x="1176" y="676"/>
      <point x="1176" y="436" type="curve" smooth="yes"/>
      <point x="1176" y="191"/>
      <point x="1087" y="0"/>
      <point x="805" y="0" type="curve"/>
    </contour>
    <contour>
      <point x="68" y="1404" type="line"/>
      <point x="832" y="1404" type="line"/>
      <point x="832" y="1430" type="line"/>
      <point x="68" y="1430" type="line"/>
    </contour>
  </outline>
</glyph>
<glyph name="Lje-cy" format="2">
  <advance width="1926"/>
  <unicode hex="0409"/>
  <outline>
    <contour>
      <point x="1117" y="26" type="line"/>
      <point x="1105" y="0" type="line"/>
      <point x="1387" y="0" type="line" smooth="yes"/>
      <point x="1529" y="0"/>
      <point x="1633" y="29"/>
      <point x="1702" y="80" type="curve" smooth="yes"/>
      <point x="1792" y="147"/>
      <point x="1833" y="272"/>
      <point x="1833" y="412" type="curve" smooth="yes"/>
      <point x="1833" y="552"/>
      <point x="1793" y="678"/>
      <point x="1702" y="744" type="curve" smooth="yes"/>
      <point x="1633" y="794"/>
      <point x="1529" y="825"/>
      <point x="1387" y="824" type="curve" smooth="yes"/>
      <point x="1136" y="823" type="line"/>
      <point x="1136" y="797" type="line"/>
      <point x="1349" y="798" type="line" smooth="yes"/>
      <point x="1658" y="799"/>
      <point x="1768" y="678"/>
      <point x="1768" y="412" type="curve" smooth="yes"/>
      <point x="1768" y="146"/>
      <point x="1658" y="26"/>
      <point x="1349" y="26" type="curve" smooth="yes"/>
    </contour>
    <contour>
      <point x="445" y="1430" type="line"/>
      <point x="445" y="946"/>
      <point x="440" y="784"/>
      <point x="419" y="624" type="curve" smooth="yes"/>
      <point x="386" y="371"/>
      <point x="295" y="51"/>
      <point x="132" y="51" type="curve" smooth="yes"/>
      <point x="68" y="51" type="line"/>
      <point x="68" y="0" type="line"/>
      <point x="135" y="0" type="line" smooth="yes"/>
      <point x="288" y="0"/>
      <point x="411" y="262"/>
      <point x="457" y="625" type="curve" smooth="yes"/>
      <point x="487" y="864"/>
      <point x="478" y="1102"/>
      <point x="477" y="1426" type="curve"/>
      <point x="450" y="1404" type="line"/>
      <point x="1132" y="1404" type="line"/>
      <point x="1105" y="1421" type="line"/>
      <point x="1105" y="0" type="line"/>
      <point x="1165" y="0" type="line"/>
      <point x="1165" y="1430" type="line"/>
    </contour>
  </outline>
</glyph>
<glyph name="Nje-cy" format="2">
  <advance width="1980"/>
  <unicode hex="040A"/>
  <outline>
    <contour>
      <point x="175" y="0" type="line"/>
      <point x="241" y="0" type="line"/>
      <point x="241" y="725" type="line"/>
      <point x="234" y="719" type="line"/>
      <point x="1166" y="719" type="line"/>
      <point x="1159" y="725" type="line"/>
      <point x="1159" y="0" type="line"/>
      <point x="1225" y="0" type="line"/>
      <point x="1225" y="1430" type="line"/>
      <point x="1159" y="1430" type="line"/>
      <point x="1159" y="739" type="line"/>
      <point x="1166" y="745" type="line"/>
      <point x="234" y="745" type="line"/>
      <point x="241" y="739" type="line"/>
      <point x="241" y="1430" type="line"/>
      <point x="175" y="1430" type="line"/>
    </contour>
    <contour>
      <point x="1171" y="26" type="line"/>
      <point x="1159" y="0" type="line"/>
      <point x="1441" y="0" type="line" smooth="yes"/>
      <point x="1583" y="0"/>
      <point x="1687" y="29"/>
      <point x="1756" y="80" type="curve" smooth="yes"/>
      <point x="1846" y="147"/>
      <point x="1887" y="272"/>
      <point x="1887" y="412" type="curve" smooth="yes"/>
      <point x="1887" y="552"/>
      <point x="1847" y="678"/>
      <point x="1756" y="744" type="curve" smooth="yes"/>
      <point x="1687" y="794"/>
      <point x="1583" y="825"/>
      <point x="1441" y="824" type="curve" smooth="yes"/>
      <point x="1190" y="823" type="line"/>
      <point x="1190" y="797" type="line"/>
      <point x="1403" y="798" type="line" smooth="yes"/>
      <point x="1712" y="799"/>
      <point x="1822" y="678"/>
      <point x="1822" y="412" type="curve" smooth="yes"/>
      <point x="1822" y="146"/>
      <point x="1712" y="26"/>
      <point x="1403" y="26" type="curve" smooth="yes"/>
    </contour>
  </outline>
</glyph>
<glyph name="Tshe-cy" format="2">
  <advance width="1350"/>
  <unicode hex="040B"/>
  <outline>
    <contour>
      <point x="480" y="1430" type="line"/>
      <point x="420" y="1430" type="line"/>
      <point x="420" y="0" type="line"/>
      <point x="480" y="0" type="line"/>
      <point x="480" y="387" type="line" smooth="yes"/>
      <point x="480" y="612"/>
      <point x="633" y="803"/>
      <point x="876" y="803" type="curve" smooth="yes"/>
      <point x="1090" y="803"/>
      <point x="1176" y="655"/>
      <point x="1176" y="436" type="curve" smooth="yes"/>
      <point x="1176" y="0" type="line"/>
      <point x="1236" y="0" type="line"/>
      <point x="1236" y="442" type="line" smooth="yes"/>
      <point x="1236" y="685"/>
      <point x="1134" y="832"/>
      <point x="890" y="832" type="curve" smooth="yes"/>
      <point x="669" y="832"/>
      <point x="485" y="711"/>
      <point x="454" y="416" type="curve"/>
      <point x="480" y="486" type="line"/>
    </contour>
    <contour>
      <point x="68" y="1404" type="line"/>
      <point x="832" y="1404" type="line"/>
      <point x="832" y="1430" type="line"/>
      <point x="68" y="1430" type="line"/>
    </contour>
  </outline>
</glyph>
<glyph name="Be-cy" format="2">
  <advance width="1096"/>
  <unicode hex="0411"/>
  <outline>
    <contour>
      <point x="175" y="0" type="line"/>
      <point x="618" y="2" type="line" smooth="yes"/>
      <point x="847" y="1"/>
      <point x="1007" y="166"/>
      <point x="1007" y="387" type="curve" smooth="yes"/>
      <point x="1007" y="608"/>
      <point x="847" y="773"/>
      <point x="618" y="772" type="curve" smooth="yes"/>
      <point x="208" y="768" type="line"/>
      <point x="235" y="741" type="line"/>
      <point x="235" y="1431" type="line"/>
      <point x="175" y="1431" type="line"/>
    </contour>
    <contour>
      <point x="235" y="9" type="line"/>
      <point x="235" y="774" type="line"/>
      <point x="208" y="744" type="line"/>
      <point x="552" y="745" type="line" smooth="yes"/>
      <point x="801" y="746"/>
      <point x="935" y="610"/>
      <point x="935" y="387" type="curve" smooth="yes"/>
      <point x="935" y="164"/>
      <point x="801" y="29"/>
      <point x="552" y="29" type="curve" smooth="yes"/>
      <point x="208" y="29" type="line"/>
    </contour>
    <contour>
      <point x="895" y="1404" type="line"/>
      <point x="895" y="1430" type="line"/>
      <point x="175" y="1430" type="line"/>
      <point x="175" y="1404" type="line"/>
    </contour>
  </outline>
</glyph>
<glyph name="De-cy" format="2">
  <advance width="1432"/>
  <unicode hex="0414"/>
  <outline>
    <contour>
      <point x="108" y="0" type="line"/>
      <point x="1353" y="0" type="line"/>
      <point x="1353" y="26" type="line"/>
      <point x="1160" y="26" type="line"/>
      <point x="1183" y="17" type="line"/>
      <point x="1183" y="1430" type="line"/>
      <point x="503" y="1430" type="line"/>
      <point x="503" y="1404" type="line"/>
      <point x="1146" y="1404" type="line"/>
      <point x="1123" y="1419" type="line"/>
      <point x="1123" y="17" type="line"/>
      <point x="1146" y="26" type="line"/>
      <point x="108" y="26" type="line"/>
    </contour>
    <contour>
      <point x="268" y="14" type="line"/>
      <point x="462" y="474"/>
      <point x="546" y="930"/>
      <point x="545" y="1420" type="curve"/>
      <point x="503" y="1420" type="line"/>
      <point x="504" y="931"/>
      <point x="412" y="473"/>
      <point x="223" y="14" type="curve"/>
    </contour>
    <component base="_cyrillicdescender01.case" xOffset="1103"/>
    <component base="_cyrillicdescender01.case" xScale="-1" xOffset="329"/>
  </outline>
</glyph>
<glyph name="Zhe-cy" format="2">
  <advance width="1742"/>
  <unicode hex="0416"/>
  <anchor x="1702" y="-5" name="bottomright"/>
  <anchor x="872" y="1435" name="top"/>
  <outline>
    <contour>
      <point x="1502" y="0" type="line"/>
      <point x="1568" y="0" type="line"/>
      <point x="1003" y="749" type="line"/>
      <point x="973" y="721" type="line"/>
    </contour>
    <contour>
      <point x="820" y="0" type="line"/>
      <point x="880" y="0" type="line"/>
      <point x="880" y="1430" type="line"/>
      <point x="820" y="1430" type="line"/>
    </contour>
    <contour>
      <point x="864" y="712" type="line"/>
      <point x="1002" y="712" type="line"/>
      <point x="1002" y="738" type="line"/>
      <point x="864" y="738" type="line"/>
    </contour>
    <contour>
      <point x="968" y="731" type="line"/>
      <point x="1011" y="737" type="line"/>
      <point x="1511" y="1430" type="line"/>
      <point x="1464" y="1430" type="line"/>
    </contour>
    <contour>
      <point x="198" y="0" type="line"/>
      <point x="727" y="721" type="line"/>
      <point x="697" y="749" type="line"/>
      <point x="132" y="0" type="line"/>
    </contour>
    <contour>
      <point x="836" y="712" type="line"/>
      <point x="836" y="738" type="line"/>
      <point x="708" y="738" type="line"/>
      <point x="708" y="712" type="line"/>
    </contour>
    <contour>
      <point x="732" y="731" type="line"/>
      <point x="236" y="1430" type="line"/>
      <point x="189" y="1430" type="line"/>
      <point x="689" y="737" type="line"/>
    </contour>
  </outline>
</glyph>
<glyph name="Ze-cy" format="2">
  <advance width="1076"/>
  <unicode hex="0417"/>
  <anchor x="538" y="0" name="bottom"/>
  <anchor x="538" y="1430" name="top"/>
  <outline>
    <contour>
      <point x="504" y="-33" type="curve" smooth="yes"/>
      <point x="789" y="-33"/>
      <point x="971" y="102"/>
      <point x="971" y="378" type="curve" smooth="yes"/>
      <point x="971" y="629"/>
      <point x="856" y="733"/>
      <point x="587" y="763" type="curve"/>
      <point x="571" y="760" type="line"/>
      <point x="807" y="773"/>
      <point x="908" y="873"/>
      <point x="908" y="1104" type="curve" smooth="yes"/>
      <point x="908" y="1346"/>
      <point x="771" y="1455"/>
      <point x="540" y="1455" type="curve" smooth="yes"/>
      <point x="351" y="1455"/>
      <point x="238" y="1382"/>
      <point x="172" y="1247" type="curve"/>
      <point x="208" y="1226" type="line"/>
      <point x="257" y="1367"/>
      <point x="378" y="1425"/>
      <point x="536" y="1425" type="curve" smooth="yes"/>
      <point x="741" y="1425"/>
      <point x="842" y="1327"/>
      <point x="842" y="1102" type="curve" smooth="yes"/>
      <point x="842" y="872"/>
      <point x="736" y="775"/>
      <point x="489" y="775" type="curve" smooth="yes"/>
      <point x="408" y="775" type="line"/>
      <point x="408" y="749" type="line"/>
      <point x="494" y="749" type="line" smooth="yes"/>
      <point x="775" y="749"/>
      <point x="896" y="640"/>
      <point x="896" y="374" type="curve" smooth="yes"/>
      <point x="896" y="114"/>
      <point x="752" y="-3"/>
      <point x="510" y="-3" type="curve" smooth="yes"/>
      <point x="272" y="-3"/>
      <point x="162" y="110"/>
      <point x="111" y="291" type="curve"/>
      <point x="72" y="263" type="line"/>
      <point x="128" y="91"/>
      <point x="230" y="-33"/>
    </contour>
  </outline>
</glyph>
<glyph name="Ii-cy" format="2">
  <advance width="1452"/>
  <unicode hex="0418"/>
  <anchor x="726" y="0" name="bottom"/>
  <anchor x="1432" y="0" name="bottomright"/>
  <anchor x="726" y="1430" name="top"/>
  <outline>
    <contour>
      <point x="1277" y="0" type="line"/>
      <point x="1277" y="1430" type="line"/>
      <point x="1193" y="1430" type="line"/>
      <point x="183" y="24" type="line"/>
      <point x="201" y="5" type="line"/>
      <point x="201" y="1430" type="line"/>
      <point x="175" y="1430" type="line"/>
      <point x="175" y="0" type="line"/>
      <point x="248" y="0" type="line"/>
      <point x="1272" y="1417" type="line"/>
      <point x="1251" y="1413" type="line"/>
      <point x="1251" y="0" type="line"/>
    </contour>
  </outline>
</glyph>
<glyph name="Ka-cy" format="2">
  <advance width="1080"/>
  <unicode hex="041A"/>
  <anchor x="1080" y="0" name="bottomright"/>
  <anchor x="540" y="1430" name="top"/>
  <outline>
    <contour>
      <point x="175" y="0" type="line"/>
      <point x="235" y="0" type="line"/>
      <point x="235" y="1430" type="line"/>
      <point x="175" y="1430" type="line"/>
    </contour>
    <contour>
      <point x="206" y="674" type="line"/>
      <point x="950" y="1430" type="line"/>
      <point x="910" y="1430" type="line"/>
      <point x="216" y="723" type="line"/>
    </contour>
    <contour>
      <point x="901" y="0" type="line"/>
      <point x="1010" y="0" type="line"/>
      <point x="268" y="759" type="line"/>
      <point x="221" y="696" type="line"/>
    </contour>
  </outline>
</glyph>
<glyph name="El-cy" format="2">
  <advance width="1340"/>
  <unicode hex="041B"/>
  <outline>
    <contour>
      <point x="445" y="1430" type="line"/>
      <point x="445" y="946"/>
      <point x="440" y="784"/>
      <point x="419" y="624" type="curve" smooth="yes"/>
      <point x="387" y="371"/>
      <point x="295" y="51"/>
      <point x="132" y="51" type="curve" smooth="yes"/>
      <point x="68" y="51" type="line"/>
      <point x="68" y="0" type="line"/>
      <point x="135" y="0" type="line" smooth="yes"/>
      <point x="288" y="0"/>
      <point x="411" y="262"/>
      <point x="457" y="625" type="curve" smooth="yes"/>
      <point x="487" y="864"/>
      <point x="478" y="1102"/>
      <point x="477" y="1426" type="curve"/>
      <point x="450" y="1404" type="line"/>
      <point x="1132" y="1404" type="line"/>
      <point x="1105" y="1421" type="line"/>
      <point x="1105" y="0" type="line"/>
      <point x="1165" y="0" type="line"/>
      <point x="1165" y="1430" type="line"/>
    </contour>
  </outline>
</glyph>
<glyph name="Pe-cy" format="2">
  <advance width="1380"/>
  <unicode hex="041F"/>
  <anchor x="1360" y="0" name="bottomright"/>
  <outline>
    <contour>
      <point x="175" y="0" type="line"/>
      <point x="241" y="0" type="line"/>
      <point x="241" y="1404" type="line"/>
      <point x="1139" y="1404" type="line"/>
      <point x="1139" y="0" type="line"/>
      <point x="1205" y="0" type="line"/>
      <point x="1205" y="1430" type="line"/>
      <point x="175" y="1430" type="line"/>
    </contour>
  </outline>
</glyph>
<glyph name="U-cy" format="2">
  <advance width="928"/>
  <unicode hex="0423"/>
  <guideline x="659" y="940" angle="68.37"/>
  <guideline x="656" y="960" angle="248.3564"/>
  <anchor x="464" y="1430" name="top"/>
  <outline>
    <contour>
      <point x="198" y="0" type="line"/>
      <point x="229" y="0" type="line"/>
      <point x="317" y="0"/>
      <point x="369" y="34"/>
      <point x="417" y="172" type="curve" smooth="yes"/>
      <point x="854" y="1430" type="line"/>
      <point x="823" y="1430" type="line"/>
      <point x="406" y="231" type="line" smooth="yes"/>
      <point x="352" y="76"/>
      <point x="330" y="39"/>
      <point x="238" y="39" type="curve" smooth="yes"/>
      <point x="198" y="39" type="line"/>
    </contour>
    <contour>
      <point x="493" y="459" type="line"/>
      <point x="523" y="542" type="line"/>
      <point x="139" y="1430" type="line"/>
      <point x="74" y="1430" type="line"/>
    </contour>
  </outline>
</glyph>
<glyph name="Ef-cy" format="2">
  <advance width="1222"/>
  <unicode hex="0424"/>
  <outline>
    <contour>
      <point x="610" y="213" type="curve"/>
      <point x="610" y="238" type="line"/>
      <point x="352" y="238"/>
      <point x="170" y="434"/>
      <point x="170" y="712" type="curve" smooth="yes"/>
      <point x="170" y="993"/>
      <point x="352" y="1192"/>
      <point x="610" y="1192" type="curve"/>
      <point x="610" y="1217" type="line"/>
      <point x="307" y="1217"/>
      <point x="93" y="1004"/>
      <point x="93" y="703" type="curve" smooth="yes"/>
      <point x="93" y="416"/>
      <point x="307" y="213"/>
    </contour>
    <contour>
      <point x="581" y="0" type="line"/>
      <point x="642" y="0" type="line"/>
      <point x="642" y="1430" type="line"/>
      <point x="581" y="1430" type="line"/>
    </contour>
    <contour>
      <point x="610" y="213" type="line"/>
      <point x="914" y="213"/>
      <point x="1129" y="416"/>
      <point x="1129" y="703" type="curve" smooth="yes"/>
      <point x="1129" y="1004"/>
      <point x="914" y="1217"/>
      <point x="610" y="1217" type="curve"/>
      <point x="610" y="1192" type="line"/>
      <point x="868" y="1192"/>
      <point x="1050" y="989"/>
      <point x="1050" y="703" type="curve" smooth="yes"/>
      <point x="1050" y="431"/>
      <point x="868" y="238"/>
      <point x="610" y="238" type="curve"/>
    </contour>
  </outline>
</glyph>
<glyph name="Che-cy" format="2">
  <advance width="1106"/>
  <unicode hex="0427"/>
  <anchor x="1056" y="0" name="bottomright"/>
  <anchor x="553" y="1430" name="top"/>
  <outline>
    <contour>
      <point x="871" y="0" type="line"/>
      <point x="931" y="0" type="line"/>
      <point x="931" y="1430" type="line"/>
      <point x="871" y="1430" type="line"/>
      <point x="871" y="1043" type="line" smooth="yes"/>
      <point x="871" y="818"/>
      <point x="718" y="627"/>
      <point x="475" y="627" type="curve" smooth="yes"/>
      <point x="261" y="627"/>
      <point x="175" y="775"/>
      <point x="175" y="994" type="curve" smooth="yes"/>
      <point x="175" y="1430" type="line"/>
      <point x="115" y="1430" type="line"/>
      <point x="115" y="988" type="line" smooth="yes"/>
      <point x="115" y="745"/>
      <point x="217" y="598"/>
      <point x="461" y="598" type="curve" smooth="yes"/>
      <point x="682" y="598"/>
      <point x="866" y="719"/>
      <point x="897" y="1014" type="curve"/>
      <point x="871" y="944" type="line"/>
    </contour>
  </outline>
</glyph>
<glyph name="Sha-cy" format="2">
  <advance width="1660"/>
  <unicode hex="0428"/>
  <outline>
    <contour>
      <point x="175" y="0" type="line"/>
      <point x="1485" y="0" type="line"/>
      <point x="1485" y="1430" type="line"/>
      <point x="1419" y="1430" type="line"/>
      <point x="1419" y="26" type="line"/>
      <point x="241" y="26" type="line"/>
      <point x="241" y="1430" type="line"/>
      <point x="175" y="1430" type="line"/>
    </contour>
    <contour>
      <point x="800" y="0" type="line"/>
      <point x="860" y="0" type="line"/>
      <point x="860" y="1430" type="line"/>
      <point x="800" y="1430" type="line"/>
    </contour>
  </outline>
</glyph>
<glyph name="Softsign-cy" format="2">
  <advance width="989"/>
  <unicode hex="042C"/>
  <outline>
    <contour>
      <point x="175" y="0" type="line"/>
      <point x="450" y="0" type="line" smooth="yes"/>
      <point x="592" y="0"/>
      <point x="696" y="29"/>
      <point x="765" y="80" type="curve" smooth="yes"/>
      <point x="855" y="147"/>
      <point x="896" y="272"/>
      <point x="896" y="412" type="curve" smooth="yes"/>
      <point x="896" y="552"/>
      <point x="856" y="678"/>
      <point x="765" y="744" type="curve" smooth="yes"/>
      <point x="696" y="794"/>
      <point x="592" y="825"/>
      <point x="450" y="824" type="curve" smooth="yes"/>
      <point x="205" y="823" type="line"/>
      <point x="235" y="812" type="line"/>
      <point x="235" y="1430" type="line"/>
      <point x="175" y="1430" type="line"/>
    </contour>
    <contour>
      <point x="235" y="14" type="line"/>
      <point x="235" y="810" type="line"/>
      <point x="205" y="797" type="line"/>
      <point x="412" y="798" type="line" smooth="yes"/>
      <point x="721" y="799"/>
      <point x="831" y="678"/>
      <point x="831" y="412" type="curve" smooth="yes"/>
      <point x="831" y="146"/>
      <point x="721" y="26"/>
      <point x="412" y="26" type="curve" smooth="yes"/>
      <point x="187" y="26" type="line"/>
    </contour>
  </outline>
</glyph>
<glyph name="be-cy" format="2">
  <advance width="978"/>
  <unicode hex="0431"/>
  <outline>
    <contour>
      <point x="494" y="-24" type="curve" smooth="yes"/>
      <point x="740" y="-24"/>
      <point x="902" y="166"/>
      <point x="902" y="444" type="curve" smooth="yes"/>
      <point x="902" y="721"/>
      <point x="740" y="938"/>
      <point x="494" y="938" type="curve" smooth="yes"/>
      <point x="311" y="938"/>
      <point x="242" y="860"/>
      <point x="127" y="695" type="curve"/>
      <point x="163" y="693" type="line"/>
      <point x="233" y="941"/>
      <point x="320" y="1173"/>
      <point x="518" y="1258" type="curve" smooth="yes"/>
      <point x="657" y="1318"/>
      <point x="804" y="1286"/>
      <point x="906" y="1429" type="curve"/>
      <point x="866" y="1440" type="line"/>
      <point x="796" y="1327"/>
      <point x="670" y="1342"/>
      <point x="538" y="1291" type="curve" smooth="yes"/>
      <point x="305" y="1201"/>
      <point x="88" y="917"/>
      <point x="88" y="444" type="curve" smooth="yes"/>
      <point x="88" y="166"/>
      <point x="248" y="-24"/>
    </contour>
    <contour>
      <point x="494" y="2" type="curve" smooth="yes"/>
      <point x="295" y="2"/>
      <point x="148" y="154"/>
      <point x="148" y="452" type="curve" smooth="yes"/>
      <point x="148" y="737"/>
      <point x="294" y="913"/>
      <point x="494" y="913" type="curve" smooth="yes"/>
      <point x="694" y="913"/>
      <point x="840" y="729"/>
      <point x="840" y="444" type="curve" smooth="yes"/>
      <point x="840" y="146"/>
      <point x="693" y="2"/>
    </contour>
  </outline>
</glyph>
<glyph name="ve-cy" format="2">
  <advance width="791"/>
  <unicode hex="0432"/>
  <outline>
    <contour>
      <point x="130" y="0" type="line"/>
      <point x="394" y="0" type="line" smooth="yes"/>
      <point x="598" y="0"/>
      <point x="716" y="88"/>
      <point x="716" y="249" type="curve" smooth="yes"/>
      <point x="716" y="382"/>
      <point x="634" y="473"/>
      <point x="507" y="486" type="curve"/>
      <point x="507" y="478" type="line"/>
      <point x="604" y="499"/>
      <point x="684" y="564"/>
      <point x="684" y="681" type="curve" smooth="yes"/>
      <point x="684" y="820"/>
      <point x="572" y="912"/>
      <point x="405" y="912" type="curve" smooth="yes"/>
      <point x="130" y="912" type="line"/>
    </contour>
    <contour>
      <point x="182" y="10" type="line"/>
      <point x="182" y="481" type="line"/>
      <point x="147" y="473" type="line"/>
      <point x="418" y="473" type="line" smooth="yes"/>
      <point x="564" y="473"/>
      <point x="659" y="388"/>
      <point x="659" y="254" type="curve" smooth="yes"/>
      <point x="659" y="106"/>
      <point x="553" y="21"/>
      <point x="371" y="21" type="curve" smooth="yes"/>
      <point x="162" y="21" type="line"/>
    </contour>
    <contour>
      <point x="182" y="484" type="line"/>
      <point x="182" y="903" type="line"/>
      <point x="154" y="890" type="line"/>
      <point x="394" y="890" type="line" smooth="yes"/>
      <point x="580" y="890"/>
      <point x="628" y="772"/>
      <point x="628" y="675" type="curve" smooth="yes"/>
      <point x="628" y="546"/>
      <point x="538" y="492"/>
      <point x="405" y="492" type="curve" smooth="yes"/>
      <point x="146" y="492" type="line"/>
    </contour>
  </outline>
</glyph>
<glyph name="ge-cy" format="2">
  <advance width="612"/>
  <unicode hex="0433"/>
  <anchor x="592" y="0" name="bottomright"/>
  <anchor x="154" y="495" name="center"/>
  <anchor x="306" y="912" name="top"/>
  <outline>
    <contour>
      <point x="130" y="912" type="line"/>
      <point x="130" y="0" type="line"/>
      <point x="182" y="0" type="line"/>
      <point x="182" y="901" type="line"/>
      <point x="153" y="890" type="line"/>
      <point x="578" y="890" type="line"/>
      <point x="578" y="912" type="line"/>
    </contour>
  </outline>
</glyph>
<glyph name="de-cy" format="2">
  <advance width="1013"/>
  <unicode hex="0434"/>
  <outline>
    <contour>
      <point x="66" y="0" type="line"/>
      <point x="956" y="0" type="line"/>
      <point x="956" y="19" type="line"/>
      <point x="807" y="19" type="line"/>
      <point x="833" y="11" type="line"/>
      <point x="833" y="912" type="line"/>
      <point x="340" y="912" type="line"/>
      <point x="340" y="889" type="line"/>
      <point x="811" y="889" type="line"/>
      <point x="781" y="904" type="line"/>
      <point x="781" y="11" type="line"/>
      <point x="811" y="23" type="line"/>
      <point x="66" y="23" type="line"/>
    </contour>
    <contour>
      <point x="188" y="10" type="line"/>
      <point x="326" y="309"/>
      <point x="377" y="595"/>
      <point x="377" y="904" type="curve"/>
      <point x="340" y="904" type="line"/>
      <point x="341" y="595"/>
      <point x="283" y="309"/>
      <point x="148" y="10" type="curve"/>
    </contour>
    <component base="_cyrillicdescender02" xOffset="782"/>
    <component base="_cyrillicdescender02" xScale="-1" xOffset="227"/>
  </outline>
</glyph>
<glyph name="zhe-cy" format="2">
  <advance width="1061"/>
  <unicode hex="0436"/>
  <anchor x="1041" y="0" name="bottomright"/>
  <anchor x="531" y="912" name="top"/>
  <outline>
    <contour>
      <point x="967" y="-2" type="line"/>
      <point x="1018" y="-2" type="line"/>
      <point x="650" y="503" type="line"/>
      <point x="617" y="480" type="line"/>
    </contour>
    <contour>
      <point x="504" y="-2" type="line"/>
      <point x="556" y="-2" type="line"/>
      <point x="556" y="913" type="line"/>
      <point x="504" y="913" type="line"/>
    </contour>
    <contour>
      <point x="540" y="474" type="line"/>
      <point x="650" y="474" type="line"/>
      <point x="650" y="495" type="line"/>
      <point x="540" y="495" type="line"/>
    </contour>
    <contour>
      <point x="615" y="487" type="line"/>
      <point x="654" y="485" type="line"/>
      <point x="978" y="913" type="line"/>
      <point x="938" y="913" type="line"/>
    </contour>
    <contour>
      <point x="94" y="-2" type="line"/>
      <point x="444" y="480" type="line"/>
      <point x="411" y="503" type="line"/>
      <point x="43" y="-2" type="line"/>
    </contour>
    <contour>
      <point x="521" y="474" type="line"/>
      <point x="521" y="495" type="line"/>
      <point x="417" y="495" type="line"/>
      <point x="417" y="474" type="line"/>
    </contour>
    <contour>
      <point x="447" y="487" type="line"/>
      <point x="124" y="913" type="line"/>
      <point x="83" y="913" type="line"/>
      <point x="407" y="485" type="line"/>
    </contour>
  </outline>
</glyph>
<glyph name="ze-cy" format="2">
  <advance width="767"/>
  <unicode hex="0437"/>
  <anchor x="384" y="0" name="bottom"/>
  <anchor x="384" y="911" name="top"/>
  <outline>
    <contour>
      <point x="359" y="-23" type="curve" smooth="yes"/>
      <point x="565" y="-23"/>
      <point x="692" y="61"/>
      <point x="692" y="242" type="curve" smooth="yes"/>
      <point x="692" y="390"/>
      <point x="612" y="467"/>
      <point x="426" y="488" type="curve"/>
      <point x="399" y="480" type="line"/>
      <point x="576" y="492"/>
      <point x="647" y="564"/>
      <point x="647" y="704" type="curve" smooth="yes"/>
      <point x="647" y="868"/>
      <point x="546" y="930"/>
      <point x="384" y="930" type="curve" smooth="yes"/>
      <point x="251" y="930"/>
      <point x="172" y="888"/>
      <point x="122" y="795" type="curve"/>
      <point x="152" y="779" type="line"/>
      <point x="184" y="860"/>
      <point x="265" y="904"/>
      <point x="382" y="904" type="curve" smooth="yes"/>
      <point x="524" y="904"/>
      <point x="593" y="840"/>
      <point x="593" y="701" type="curve" smooth="yes"/>
      <point x="593" y="548"/>
      <point x="507" y="492"/>
      <point x="349" y="495" type="curve" smooth="yes"/>
      <point x="294" y="496" type="line"/>
      <point x="294" y="474" type="line"/>
      <point x="352" y="475" type="line" smooth="yes"/>
      <point x="548" y="478"/>
      <point x="632" y="395"/>
      <point x="632" y="240" type="curve" smooth="yes"/>
      <point x="632" y="69"/>
      <point x="525" y="4"/>
      <point x="363" y="4" type="curve" smooth="yes"/>
      <point x="210" y="4"/>
      <point x="124" y="62"/>
      <point x="86" y="187" type="curve"/>
      <point x="52" y="170" type="line"/>
      <point x="89" y="58"/>
      <point x="156" y="-23"/>
    </contour>
  </outline>
</glyph>
<glyph name="ii-cy" format="2">
  <advance width="963"/>
  <unicode hex="0438"/>
  <anchor x="943" y="0" name="bottomright"/>
  <anchor x="482" y="912" name="top"/>
  <outline>
    <contour>
      <point x="130" y="0" type="line"/>
      <point x="154" y="0" type="line"/>
      <point x="828" y="865" type="line"/>
      <point x="817" y="870" type="line"/>
      <point x="817" y="0" type="line"/>
      <point x="833" y="0" type="line"/>
      <point x="833" y="912" type="line"/>
      <point x="802" y="912" type="line"/>
      <point x="138" y="53" type="line"/>
      <point x="146" y="43" type="line"/>
      <point x="146" y="912" type="line"/>
      <point x="130" y="912" type="line"/>
    </contour>
  </outline>
</glyph>
<glyph name="ka-cy" format="2">
  <advance width="771"/>
  <unicode hex="043A"/>
  <anchor x="751" y="0" name="bottomright"/>
  <anchor x="386" y="912" name="top"/>
  <outline>
    <contour>
      <point x="130" y="0" type="line"/>
      <point x="180" y="0" type="line"/>
      <point x="180" y="912" type="line"/>
      <point x="130" y="912" type="line"/>
    </contour>
    <contour>
      <point x="173" y="437" type="line"/>
      <point x="681" y="912" type="line"/>
      <point x="643" y="912" type="line"/>
      <point x="167" y="467" type="line"/>
    </contour>
    <contour>
      <point x="644" y="0" type="line"/>
      <point x="733" y="0" type="line"/>
      <point x="215" y="488" type="line"/>
      <point x="166" y="451" type="line"/>
    </contour>
  </outline>
</glyph>
<glyph name="el-cy" format="2">
  <advance width="953"/>
  <unicode hex="043B"/>
  <outline>
    <contour>
      <point x="771" y="0" type="line"/>
      <point x="823" y="0" type="line"/>
      <point x="823" y="912" type="line"/>
      <point x="307" y="912" type="line"/>
      <point x="307" y="889" type="line"/>
      <point x="797" y="889" type="line"/>
      <point x="771" y="904" type="line"/>
    </contour>
    <contour>
      <point x="38" y="0" type="line"/>
      <point x="77" y="0" type="line" smooth="yes"/>
      <point x="196" y="0"/>
      <point x="279" y="161"/>
      <point x="313" y="400" type="curve" smooth="yes"/>
      <point x="334" y="548"/>
      <point x="333" y="704"/>
      <point x="337" y="904" type="curve"/>
      <point x="307" y="904" type="line"/>
      <point x="307" y="711"/>
      <point x="307" y="539"/>
      <point x="287" y="403" type="curve" smooth="yes"/>
      <point x="262" y="229"/>
      <point x="196" y="54"/>
      <point x="82" y="54" type="curve" smooth="yes"/>
      <point x="38" y="54" type="line"/>
    </contour>
  </outline>
</glyph>
<glyph name="em-cy" format="2">
  <advance width="1106"/>
  <unicode hex="043C"/>
  <outline>
    <contour>
      <point x="130" y="0" type="line"/>
      <point x="146" y="0" type="line"/>
      <point x="146" y="893" type="line"/>
      <point x="132" y="895" type="line"/>
      <point x="543" y="52" type="line"/>
      <point x="938" y="895" type="line"/>
      <point x="924" y="898" type="line"/>
      <point x="924" y="0" type="line"/>
      <point x="976" y="0" type="line"/>
      <point x="976" y="912" type="line"/>
      <point x="921" y="912" type="line"/>
      <point x="559" y="137" type="line"/>
      <point x="574" y="141" type="line"/>
      <point x="198" y="912" type="line"/>
      <point x="130" y="912" type="line"/>
    </contour>
  </outline>
</glyph>
<glyph name="en-cy" format="2">
  <advance width="1013"/>
  <unicode hex="043D"/>
  <anchor x="893" y="0" name="bottomright"/>
  <outline>
    <contour>
      <point x="130" y="0" type="line"/>
      <point x="182" y="0" type="line"/>
      <point x="182" y="462" type="line"/>
      <point x="169" y="454" type="line"/>
      <point x="843" y="454" type="line"/>
      <point x="831" y="462" type="line"/>
      <point x="831" y="0" type="line"/>
      <point x="883" y="0" type="line"/>
      <point x="883" y="912" type="line"/>
      <point x="831" y="912" type="line"/>
      <point x="831" y="470" type="line"/>
      <point x="843" y="477" type="line"/>
      <point x="169" y="477" type="line"/>
      <point x="182" y="470" type="line"/>
      <point x="182" y="912" type="line"/>
      <point x="130" y="912" type="line"/>
    </contour>
  </outline>
</glyph>
<glyph name="pe-cy" format="2">
  <advance width="982"/>
  <unicode hex="043F"/>
  <anchor x="962" y="0" name="bottomright"/>
  <outline>
    <contour>
      <point x="130" y="0" type="line"/>
      <point x="182" y="0" type="line"/>
      <point x="182" y="887" type="line"/>
      <point x="801" y="887" type="line"/>
      <point x="801" y="0" type="line"/>
      <point x="852" y="0" type="line"/>
      <point x="852" y="912" type="line"/>
      <point x="130" y="912" type="line"/>
    </contour>
  </outline>
</glyph>
<glyph name="te-cy" format="2">
  <advance width="764"/>
  <unicode hex="0442"/>
  <anchor x="744" y="0" name="bottomright"/>
  <outline>
    <contour>
      <point x="356" y="0" type="line"/>
      <point x="408" y="0" type="line"/>
      <point x="408" y="902" type="line"/>
      <point x="384" y="887" type="line"/>
      <point x="729" y="887" type="line"/>
      <point x="729" y="912" type="line"/>
      <point x="35" y="912" type="line"/>
      <point x="35" y="887" type="line"/>
      <point x="380" y="887" type="line"/>
      <point x="356" y="902" type="line"/>
    </contour>
  </outline>
</glyph>
<glyph name="ef-cy" format="2">
  <advance width="1263"/>
  <unicode hex="0444"/>
  <outline>
    <contour>
      <point x="821" y="-13" type="curve" smooth="yes"/>
      <point x="1058" y="-13"/>
      <point x="1183" y="146"/>
      <point x="1183" y="456" type="curve" smooth="yes"/>
      <point x="1183" y="773"/>
      <point x="1049" y="931"/>
      <point x="821" y="931" type="curve" smooth="yes"/>
      <point x="780" y="931"/>
      <point x="724" y="926"/>
      <point x="639" y="872" type="curve"/>
      <point x="643" y="854" type="line"/>
      <point x="701" y="889"/>
      <point x="764" y="903"/>
      <point x="816" y="903" type="curve" smooth="yes"/>
      <point x="999" y="903"/>
      <point x="1126" y="731"/>
      <point x="1126" y="459" type="curve" smooth="yes"/>
      <point x="1126" y="196"/>
      <point x="1001" y="15"/>
      <point x="816" y="15" type="curve" smooth="yes"/>
      <point x="764" y="15"/>
      <point x="701" y="29"/>
      <point x="643" y="64" type="curve"/>
      <point x="639" y="46" type="line"/>
      <point x="723" y="-8"/>
      <point x="779" y="-13"/>
    </contour>
    <contour>
      <point x="442" y="-13" type="curve" smooth="yes"/>
      <point x="484" y="-13"/>
      <point x="540" y="-8"/>
      <point x="624" y="46" type="curve"/>
      <point x="620" y="64" type="line"/>
      <point x="562" y="29"/>
      <point x="499" y="15"/>
      <point x="447" y="15" type="curve" smooth="yes"/>
      <point x="262" y="15"/>
      <point x="137" y="189"/>
      <point x="137" y="459" type="curve" smooth="yes"/>
      <point x="137" y="724"/>
      <point x="263" y="903"/>
      <point x="447" y="903" type="curve" smooth="yes"/>
      <point x="498" y="903"/>
      <point x="562" y="889"/>
      <point x="620" y="854" type="curve"/>
      <point x="624" y="872" type="line"/>
      <point x="539" y="926"/>
      <point x="482" y="931"/>
      <point x="442" y="931" type="curve" smooth="yes"/>
      <point x="213" y="931"/>
      <point x="80" y="773"/>
      <point x="80" y="456" type="curve" smooth="yes"/>
      <point x="80" y="146"/>
      <point x="205" y="-13"/>
    </contour>
    <contour>
      <point x="605" y="-526" type="line"/>
      <point x="657" y="-526" type="line"/>
      <point x="657" y="1514" type="line"/>
      <point x="605" y="1514" type="line"/>
    </contour>
  </outline>
</glyph>
<glyph name="tse-cy" format="2">
  <advance width="1020"/>
  <unicode hex="0446"/>
  <anchor x="961" y="912" name="bottomright"/>
  <outline>
    <contour>
      <point x="953" y="0" type="line"/>
      <point x="953" y="25" type="line"/>
      <point x="824" y="25" type="line"/>
      <point x="824" y="0" type="line"/>
    </contour>
    <component base="pe-cy" yScale="-1" xOffset="-1" yOffset="912"/>
    <component base="_cyrillicdescender01" xScale="-1" xOffset="1006"/>
  </outline>
</glyph>
<glyph name="che-cy" format="2">
  <advance width="792"/>
  <unicode hex="0447"/>
  <anchor x="672" y="0" name="bottomright"/>
  <anchor x="396" y="912" name="top"/>
  <outline>
    <contour>
      <point x="610" y="0" type="line"/>
      <point x="662" y="0" type="line"/>
      <point x="662" y="912" type="line"/>
      <point x="610" y="912" type="line"/>
      <point x="610" y="640" type="line" smooth="yes"/>
      <point x="610" y="489"/>
      <point x="497" y="382"/>
      <point x="336" y="382" type="curve" smooth="yes"/>
      <point x="201" y="382"/>
      <point x="129" y="462"/>
      <point x="129" y="615" type="curve" smooth="yes"/>
      <point x="129" y="912" type="line"/>
      <point x="77" y="912" type="line"/>
      <point x="77" y="604" type="line" smooth="yes"/>
      <point x="77" y="450"/>
      <point x="154" y="353"/>
      <point x="322" y="353" type="curve" smooth="yes"/>
      <point x="477" y="353"/>
      <point x="601" y="431"/>
      <point x="626" y="613" type="curve"/>
      <point x="610" y="598" type="line"/>
    </contour>
  </outline>
</glyph>
<glyph name="sha-cy" format="2">
  <advance width="1170"/>
  <unicode hex="0448"/>
  <anchor x="1061" y="0" name="bottomright"/>
  <outline>
    <contour>
      <point x="130" y="0" type="line"/>
      <point x="1040" y="0" type="line"/>
      <point x="1040" y="912" type="line"/>
      <point x="988" y="912" type="line"/>
      <point x="988" y="25" type="line"/>
      <point x="182" y="25" type="line"/>
      <point x="182" y="912" type="line"/>
      <point x="130" y="912" type="line"/>
    </contour>
    <contour>
      <point x="559" y="0" type="line"/>
      <point x="611" y="0" type="line"/>
      <point x="611" y="912" type="line"/>
      <point x="559" y="912" type="line"/>
    </contour>
  </outline>
</glyph>
<glyph name="softsign-cy" format="2">
  <advance width="715"/>
  <unicode hex="044C"/>
  <outline>
    <contour>
      <point x="125" y="0" type="line"/>
      <point x="327" y="0" type="line" smooth="yes"/>
      <point x="533" y="0"/>
      <point x="646" y="76"/>
      <point x="646" y="267" type="curve" smooth="yes"/>
      <point x="646" y="458"/>
      <point x="532" y="537"/>
      <point x="327" y="537" type="curve" smooth="yes"/>
      <point x="153" y="537" type="line"/>
      <point x="177" y="528" type="line"/>
      <point x="177" y="912" type="line"/>
      <point x="125" y="912" type="line"/>
    </contour>
    <contour>
      <point x="177" y="9" type="line"/>
      <point x="177" y="526" type="line"/>
      <point x="141" y="516" type="line"/>
      <point x="302" y="517" type="line" smooth="yes"/>
      <point x="496" y="518"/>
      <point x="592" y="436"/>
      <point x="592" y="267" type="curve" smooth="yes"/>
      <point x="592" y="95"/>
      <point x="502" y="19"/>
      <point x="301" y="19" type="curve" smooth="yes"/>
      <point x="134" y="19" type="line"/>
    </contour>
  </outline>
</glyph>
<glyph name="ereversed-cy" format="2">
  <advance width="949"/>
  <unicode hex="044D"/>
  <anchor x="474" y="912" name="top"/>
  <outline>
    <contour>
      <point x="417" y="-24" type="curve" smooth="yes"/>
      <point x="689" y="-24"/>
      <point x="876" y="175"/>
      <point x="876" y="456" type="curve" smooth="yes"/>
      <point x="876" y="740"/>
      <point x="680" y="939"/>
      <point x="417" y="939" type="curve" smooth="yes"/>
      <point x="256" y="939"/>
      <point x="129" y="864"/>
      <point x="55" y="720" type="curve"/>
      <point x="102" y="720" type="line"/>
      <point x="162" y="840"/>
      <point x="275" y="912"/>
      <point x="418" y="912" type="curve" smooth="yes"/>
      <point x="648" y="912"/>
      <point x="814" y="727"/>
      <point x="814" y="457" type="curve" smooth="yes"/>
      <point x="814" y="191"/>
      <point x="648" y="3"/>
      <point x="414" y="3" type="curve" smooth="yes"/>
      <point x="274" y="3"/>
      <point x="169" y="70"/>
      <point x="101" y="194" type="curve"/>
      <point x="51" y="194" type="line"/>
      <point x="135" y="54"/>
      <point x="246" y="-24"/>
    </contour>
    <contour>
      <point x="336" y="447" type="line"/>
      <point x="817" y="447" type="line"/>
      <point x="817" y="468" type="line"/>
      <point x="336" y="468" type="line"/>
    </contour>
  </outline>
</glyph>
<glyph name="ia-cy" format="2">
  <advance width="830"/>
  <unicode hex="044F"/>
  <anchor x="415" y="912" name="top"/>
  <outline>
    <contour>
      <point x="648" y="-2" type="line"/>
      <point x="700" y="-2" type="line"/>
      <point x="700" y="913" type="line"/>
      <point x="428" y="913" type="line" smooth="yes"/>
      <point x="257" y="913"/>
      <point x="110" y="830"/>
      <point x="110" y="666" type="curve" smooth="yes"/>
      <point x="110" y="528"/>
      <point x="182" y="429"/>
      <point x="322" y="406" type="curve"/>
      <point x="358" y="402" type="line"/>
      <point x="680" y="402" type="line"/>
      <point x="648" y="409" type="line"/>
    </contour>
    <contour>
      <point x="648" y="415" type="line"/>
      <point x="680" y="425" type="line"/>
      <point x="427" y="425" type="line" smooth="yes"/>
      <point x="267" y="425"/>
      <point x="169" y="518"/>
      <point x="169" y="666" type="curve" smooth="yes"/>
      <point x="169" y="801"/>
      <point x="269" y="890"/>
      <point x="449" y="890" type="curve" smooth="yes"/>
      <point x="697" y="890" type="line"/>
      <point x="648" y="902" type="line"/>
    </contour>
    <contour>
      <point x="73" y="-2" type="curve"/>
      <point x="132" y="-2" type="line"/>
      <point x="145" y="53"/>
      <point x="160" y="126"/>
      <point x="168" y="154" type="curve" smooth="yes"/>
      <point x="211" y="306"/>
      <point x="223" y="321"/>
      <point x="277" y="362" type="curve" smooth="yes"/>
      <point x="310" y="387"/>
      <point x="361" y="402"/>
      <point x="421" y="402" type="curve"/>
      <point x="299" y="416" type="line"/>
      <point x="272" y="412"/>
      <point x="238" y="406"/>
      <point x="203" y="373" type="curve" smooth="yes"/>
      <point x="164" y="336"/>
      <point x="148" y="281"/>
      <point x="121" y="193" type="curve" smooth="yes"/>
      <point x="102" y="131"/>
      <point x="91" y="63"/>
    </contour>
  </outline>
</glyph>
<glyph name="dje-cy" format="2">
  <advance width="969"/>
  <unicode hex="0452"/>
  <outline>
    <contour>
      <point x="141" y="0" type="line"/>
      <point x="193" y="0" type="line"/>
      <point x="193" y="542" type="line" smooth="yes"/>
      <point x="193" y="757"/>
      <point x="302" y="910"/>
      <point x="506" y="910" type="curve" smooth="yes"/>
      <point x="724" y="910"/>
      <point x="794" y="764"/>
      <point x="794" y="539" type="curve" smooth="yes"/>
      <point x="794" y="0" type="line"/>
      <point x="846" y="0" type="line"/>
      <point x="846" y="536" type="line" smooth="yes"/>
      <point x="846" y="765"/>
      <point x="778" y="938"/>
      <point x="516" y="938" type="curve" smooth="yes"/>
      <point x="324" y="938"/>
      <point x="202" y="818"/>
      <point x="184" y="638" type="curve"/>
      <point x="193" y="646" type="line"/>
      <point x="193" y="1514" type="line"/>
      <point x="141" y="1514" type="line"/>
    </contour>
    <contour>
      <point x="-3" y="1211" type="line"/>
      <point x="335" y="1211" type="line"/>
      <point x="335" y="1237" type="line"/>
      <point x="-3" y="1237" type="line"/>
    </contour>
    <contour>
      <point x="693" y="-557" type="curve" smooth="yes"/>
      <point x="846" y="-557"/>
      <point x="846" y="-381"/>
      <point x="846" y="-181" type="curve" smooth="yes"/>
      <point x="846" y="412" type="line"/>
      <point x="794" y="412" type="line"/>
      <point x="794" y="-181" type="line" smooth="yes"/>
      <point x="794" y="-455"/>
      <point x="772" y="-528"/>
      <point x="686" y="-528" type="curve"/>
      <point x="614" y="-518"/>
      <point x="603" y="-455"/>
      <point x="603" y="-406" type="curve" smooth="yes"/>
      <point x="603" y="-377"/>
      <point x="610" y="-339"/>
      <point x="618" y="-324" type="curve"/>
      <point x="573" y="-324" type="line"/>
      <point x="558" y="-369"/>
      <point x="555" y="-407"/>
      <point x="555" y="-429" type="curve" smooth="yes"/>
      <point x="555" y="-503"/>
      <point x="590" y="-557"/>
    </contour>
  </outline>
</glyph>
<glyph name="Yat-cy" format="2">
  <advance width="957"/>
  <unicode hex="0462"/>
  <outline>
    <contour>
      <point x="257" y="0" type="line"/>
      <point x="486" y="0" type="line" smooth="yes"/>
      <point x="605" y="0"/>
      <point x="695" y="26"/>
      <point x="751" y="70" type="curve" smooth="yes"/>
      <point x="828" y="129"/>
      <point x="864" y="237"/>
      <point x="864" y="358" type="curve" smooth="yes"/>
      <point x="864" y="480"/>
      <point x="831" y="588"/>
      <point x="751" y="647" type="curve" smooth="yes"/>
      <point x="697" y="688"/>
      <point x="605" y="717"/>
      <point x="486" y="717" type="curve" smooth="yes"/>
      <point x="282" y="716" type="line"/>
      <point x="317" y="708" type="line"/>
      <point x="317" y="1430" type="line"/>
      <point x="257" y="1430" type="line"/>
    </contour>
    <contour>
      <point x="317" y="14" type="line"/>
      <point x="317" y="706" type="line"/>
      <point x="282" y="690" type="line"/>
      <point x="455" y="691" type="line" smooth="yes"/>
      <point x="712" y="692"/>
      <point x="804" y="590"/>
      <point x="804" y="358" type="curve" smooth="yes"/>
      <point x="804" y="127"/>
      <point x="712" y="26"/>
      <point x="455" y="26" type="curve" smooth="yes"/>
      <point x="267" y="26" type="line"/>
    </contour>
    <contour>
      <point x="68" y="1260" type="line"/>
      <point x="506" y="1260" type="line"/>
      <point x="506" y="1286" type="line"/>
      <point x="68" y="1286" type="line"/>
    </contour>
  </outline>
</glyph>
<glyph name="yat-cy" format="2">
  <advance width="732"/>
  <unicode hex="0463"/>
  <anchor x="168" y="1109" name="center"/>
  <outline>
    <contour>
      <point x="142" y="0" type="line"/>
      <point x="344" y="0" type="line" smooth="yes"/>
      <point x="550" y="0"/>
      <point x="663" y="76"/>
      <point x="663" y="267" type="curve" smooth="yes"/>
      <point x="663" y="458"/>
      <point x="549" y="537"/>
      <point x="344" y="537" type="curve" smooth="yes"/>
      <point x="170" y="537" type="line"/>
      <point x="194" y="528" type="line"/>
      <point x="194" y="1430" type="line"/>
      <point x="142" y="1430" type="line"/>
    </contour>
    <contour>
      <point x="194" y="9" type="line"/>
      <point x="194" y="526" type="line"/>
      <point x="158" y="516" type="line"/>
      <point x="319" y="517" type="line" smooth="yes"/>
      <point x="513" y="518"/>
      <point x="609" y="436"/>
      <point x="609" y="267" type="curve" smooth="yes"/>
      <point x="609" y="95"/>
      <point x="519" y="19"/>
      <point x="318" y="19" type="curve" smooth="yes"/>
      <point x="151" y="19" type="line"/>
    </contour>
    <component base="_cyrillic_bar" xOffset="-1" yOffset="617"/>
  </outline>
</glyph>
<glyph name="Fita-cy" format="2">
  <advance width="1492"/>
  <unicode hex="0472"/>
  <anchor x="746" y="0" name="bottom"/>
  <anchor x="746" y="715" name="center"/>
  <anchor x="819" y="0" name="ogonek"/>
  <anchor x="746" y="1430" name="top"/>
  <anchor x="51" y="1430" name="topleft"/>
  <anchor x="1365" y="1430" name="topright"/>
  <outline>
    <contour>
      <point x="988" y="649" type="curve" smooth="yes"/>
      <point x="1156" y="649"/>
      <point x="1295" y="683"/>
      <point x="1337" y="763" type="curve"/>
      <point x="1337" y="762" type="line"/>
      <point x="1267" y="731"/>
      <point x="1199" y="689"/>
      <point x="1056" y="689" type="curve" smooth="yes"/>
      <point x="755" y="689"/>
      <point x="765" y="785"/>
      <point x="508" y="785" type="curve" smooth="yes"/>
      <point x="343" y="785"/>
      <point x="199" y="749"/>
      <point x="157" y="669" type="curve"/>
      <point x="157" y="667" type="line"/>
      <point x="227" y="698"/>
      <point x="297" y="743"/>
      <point x="440" y="743" type="curve" smooth="yes"/>
      <point x="741" y="743"/>
      <point x="731" y="649"/>
    </contour>
    <component base="O"/>
  </outline>
</glyph>
<glyph name="Izhitsa-cy" format="2">
  <advance width="1522"/>
  <unicode hex="0474"/>
  <anchor x="761" y="1430" name="top"/>
  <outline>
    <contour>
      <point x="670" y="-41" type="line"/>
      <point x="1151" y="1173" type="line" smooth="yes"/>
      <point x="1238" y="1392"/>
      <point x="1314" y="1411"/>
      <point x="1344" y="1411" type="curve" smooth="yes"/>
      <point x="1399" y="1411"/>
      <point x="1427" y="1355"/>
      <point x="1427" y="1290" type="curve" smooth="yes"/>
      <point x="1427" y="1258"/>
      <point x="1420" y="1223"/>
      <point x="1412" y="1208" type="curve"/>
      <point x="1427" y="1208" type="line"/>
      <point x="1442" y="1253"/>
      <point x="1445" y="1294"/>
      <point x="1445" y="1313" type="curve" smooth="yes"/>
      <point x="1445" y="1390"/>
      <point x="1393" y="1441"/>
      <point x="1342" y="1441" type="curve" smooth="yes"/>
      <point x="1231" y="1441"/>
      <point x="1151" y="1203"/>
      <point x="1106" y="1088" type="curve" smooth="yes"/>
      <point x="691" y="41" type="line"/>
      <point x="711" y="41" type="line"/>
      <point x="152" y="1430" type="line"/>
      <point x="74" y="1429" type="line"/>
    </contour>
  </outline>
</glyph>
<glyph name="izhitsa-cy" format="2">
  <advance width="1136"/>
  <unicode hex="0475"/>
  <anchor x="568" y="912" name="top"/>
  <outline>
    <contour>
      <point x="474" y="-45" type="line"/>
      <point x="481" y="-45" type="line"/>
      <point x="791" y="660" type="line" smooth="yes"/>
      <point x="880" y="855"/>
      <point x="911" y="910"/>
      <point x="983" y="910" type="curve" smooth="yes"/>
      <point x="1035" y="910"/>
      <point x="1055" y="884"/>
      <point x="1067" y="859" type="curve"/>
      <point x="1104" y="895" type="line"/>
      <point x="1083" y="922"/>
      <point x="1034" y="939"/>
      <point x="989" y="939" type="curve" smooth="yes"/>
      <point x="863" y="939"/>
      <point x="840" y="799"/>
      <point x="737" y="563" type="curve" smooth="yes"/>
      <point x="494" y="6" type="line"/>
      <point x="508" y="24" type="line"/>
      <point x="109" y="912" type="line"/>
      <point x="41" y="912" type="line"/>
    </contour>
  </outline>
</glyph>
<glyph name="Shha-cy" format="2">
  <advance width="1118"/>
  <unicode hex="04BA"/>
  <anchor x="1098" y="0" name="bottomright"/>
  <outline>
    <contour>
      <point x="142" y="0" type="line"/>
      <point x="201" y="0" type="line"/>
      <point x="204" y="411" type="line" smooth="yes"/>
      <point x="206" y="636"/>
      <point x="332" y="826"/>
      <point x="564" y="826" type="curve" smooth="yes"/>
      <point x="776" y="826"/>
      <point x="880" y="667"/>
      <point x="880" y="360" type="curve" smooth="yes"/>
      <point x="880" y="0" type="line"/>
      <point x="940" y="0" type="line"/>
      <point x="940" y="366" type="line" smooth="yes"/>
      <point x="940" y="707"/>
      <point x="827" y="856"/>
      <point x="580" y="856" type="curve" smooth="yes"/>
      <point x="358" y="856"/>
      <point x="210" y="735"/>
      <point x="176" y="470" type="curve"/>
      <point x="202" y="510" type="line"/>
      <point x="202" y="1430" type="line"/>
      <point x="142" y="1430" type="line"/>
    </contour>
  </outline>
</glyph>
<glyph name="Germandbls" format="2">
  <advance width="1327"/>
  <unicode hex="1E9E"/>
  <anchor x="661" y="0" name="bottom"/>
  <anchor x="661" y="1430" name="top"/>
  <outline>
    <contour>
      <point x="804" y="-26" type="curve" smooth="yes"/>
      <point x="1115" y="-26"/>
      <point x="1239" y="159"/>
      <point x="1239" y="384" type="curve" smooth="yes"/>
      <point x="1239" y="617"/>
      <point x="1057" y="727"/>
      <point x="836" y="788" type="curve" smooth="yes"/>
      <point x="797" y="799"/>
      <point x="760" y="810"/>
      <point x="713" y="830" type="curve"/>
      <point x="717" y="792" type="line"/>
      <point x="929" y="1475" type="line"/>
      <point x="851" y="1497"/>
      <point x="778" y="1514"/>
      <point x="653" y="1514" type="curve" smooth="yes"/>
      <point x="283" y="1514"/>
      <point x="168" y="1410"/>
      <point x="168" y="1257" type="curve" smooth="yes"/>
      <point x="168" y="0" type="line"/>
      <point x="228" y="0" type="line"/>
      <point x="228" y="1268" type="line" smooth="yes"/>
      <point x="228" y="1416"/>
      <point x="361" y="1488"/>
      <point x="653" y="1488" type="curve" smooth="yes"/>
      <point x="742" y="1488"/>
      <point x="839" y="1474"/>
      <point x="882" y="1462" type="curve"/>
      <point x="886" y="1484" type="line"/>
      <point x="668" y="784" type="line"/>
      <point x="702" y="770"/>
      <point x="734" y="758"/>
      <point x="778" y="744" type="curve" smooth="yes"/>
      <point x="1024" y="665"/>
      <point x="1172" y="589"/>
      <point x="1172" y="355" type="curve" smooth="yes"/>
      <point x="1172" y="170"/>
      <point x="1090" y="0"/>
      <point x="808" y="0" type="curve" smooth="yes"/>
      <point x="666" y="0"/>
      <point x="555" y="43"/>
      <point x="486" y="157" type="curve"/>
      <point x="468" y="105" type="line"/>
      <point x="544" y="15"/>
      <point x="657" y="-26"/>
    </contour>
  </outline>
</glyph>
<glyph name="endash" format="2">
  <advance width="1378"/>
  <unicode hex="2013"/>
  <note>
endash
</note>
  <outline>
    <contour>
      <point x="76" y="405" type="line"/>
      <point x="1280" y="405" type="line"/>
      <point x="1302" y="485" type="line"/>
      <point x="98" y="485" type="line"/>
    </contour>
  </outline>
</glyph>
<glyph name="emdash" format="2">
  <advance width="1906"/>
  <unicode hex="2014"/>
  <note>
emdash
</note>
  <outline>
    <contour>
      <point x="76" y="415" type="line"/>
      <point x="1816" y="415" type="line"/>
      <point x="1830" y="475" type="line"/>
      <point x="90" y="475" type="line"/>
    </contour>
  </outline>
</glyph>
<glyph name="dagger" format="2">
  <advance width="886"/>
  <unicode hex="2020"/>
  <note>
dagger
</note>
  <outline>
    <contour>
      <point x="443" y="-300" type="curve" smooth="yes"/>
      <point x="460" y="-300"/>
      <point x="473" y="-159"/>
      <point x="473" y="-103" type="curve" smooth="yes"/>
      <point x="473" y="639" type="line" smooth="yes"/>
      <point x="473" y="776"/>
      <point x="465" y="975"/>
      <point x="460" y="970" type="curve" smooth="yes"/>
      <point x="455" y="964"/>
      <point x="565" y="956"/>
      <point x="686" y="956" type="curve" smooth="yes"/>
      <point x="697" y="956"/>
      <point x="783" y="969"/>
      <point x="783" y="986" type="curve" smooth="yes"/>
      <point x="783" y="1003"/>
      <point x="697" y="1016"/>
      <point x="686" y="1016" type="curve" smooth="yes"/>
      <point x="555" y="1016"/>
      <point x="453" y="1010"/>
      <point x="460" y="1003" type="curve" smooth="yes"/>
      <point x="466" y="997"/>
      <point x="473" y="1138"/>
      <point x="473" y="1267" type="curve" smooth="yes"/>
      <point x="473" y="1273"/>
      <point x="460" y="1364"/>
      <point x="443" y="1364" type="curve" smooth="yes"/>
      <point x="426" y="1364"/>
      <point x="413" y="1273"/>
      <point x="413" y="1267" type="curve" smooth="yes"/>
      <point x="413" y="1138"/>
      <point x="420" y="997"/>
      <point x="426" y="1003" type="curve" smooth="yes"/>
      <point x="433" y="1010"/>
      <point x="331" y="1016"/>
      <point x="200" y="1016" type="curve" smooth="yes"/>
      <point x="189" y="1016"/>
      <point x="103" y="1003"/>
      <point x="103" y="986" type="curve" smooth="yes"/>
      <point x="103" y="969"/>
      <point x="189" y="956"/>
      <point x="200" y="956" type="curve" smooth="yes"/>
      <point x="321" y="956"/>
      <point x="431" y="964"/>
      <point x="426" y="970" type="curve" smooth="yes"/>
      <point x="421" y="975"/>
      <point x="413" y="776"/>
      <point x="413" y="639" type="curve" smooth="yes"/>
      <point x="413" y="-103" type="line" smooth="yes"/>
      <point x="413" y="-159"/>
      <point x="426" y="-300"/>
    </contour>
  </outline>
</glyph>
<glyph name="daggerdbl" format="2">
  <advance width="904"/>
  <unicode hex="2021"/>
  <note>
daggerdbl
</note>
  <outline>
    <contour>
      <point x="452" y="-300" type="curve" smooth="yes"/>
      <point x="469" y="-300"/>
      <point x="482" y="-209"/>
      <point x="482" y="-203" type="curve" smooth="yes"/>
      <point x="482" y="-87"/>
      <point x="476" y="39"/>
      <point x="471" y="59" type="curve"/>
      <point x="486" y="53"/>
      <point x="579" y="48"/>
      <point x="695" y="48" type="curve" smooth="yes"/>
      <point x="706" y="48"/>
      <point x="792" y="61"/>
      <point x="792" y="78" type="curve" smooth="yes"/>
      <point x="792" y="95"/>
      <point x="706" y="108"/>
      <point x="695" y="108" type="curve" smooth="yes"/>
      <point x="584" y="108"/>
      <point x="482" y="101"/>
      <point x="470" y="95" type="curve"/>
      <point x="475" y="114"/>
      <point x="482" y="297"/>
      <point x="482" y="425" type="curve" smooth="yes"/>
      <point x="482" y="639" type="line" smooth="yes"/>
      <point x="482" y="767"/>
      <point x="475" y="950"/>
      <point x="470" y="969" type="curve"/>
      <point x="482" y="963"/>
      <point x="584" y="956"/>
      <point x="695" y="956" type="curve" smooth="yes"/>
      <point x="706" y="956"/>
      <point x="792" y="969"/>
      <point x="792" y="986" type="curve" smooth="yes"/>
      <point x="792" y="1003"/>
      <point x="706" y="1016"/>
      <point x="695" y="1016" type="curve" smooth="yes"/>
      <point x="579" y="1016"/>
      <point x="486" y="1011"/>
      <point x="471" y="1005" type="curve"/>
      <point x="476" y="1025"/>
      <point x="482" y="1151"/>
      <point x="482" y="1267" type="curve" smooth="yes"/>
      <point x="482" y="1273"/>
      <point x="469" y="1364"/>
      <point x="452" y="1364" type="curve" smooth="yes"/>
      <point x="435" y="1364"/>
      <point x="422" y="1273"/>
      <point x="422" y="1267" type="curve" smooth="yes"/>
      <point x="422" y="1151"/>
      <point x="428" y="1025"/>
      <point x="433" y="1005" type="curve"/>
      <point x="418" y="1011"/>
      <point x="325" y="1016"/>
      <point x="209" y="1016" type="curve" smooth="yes"/>
      <point x="198" y="1016"/>
      <point x="112" y="1003"/>
      <point x="112" y="986" type="curve" smooth="yes"/>
      <point x="112" y="969"/>
      <point x="198" y="956"/>
      <point x="209" y="956" type="curve" smooth="yes"/>
      <point x="320" y="956"/>
      <point x="422" y="963"/>
      <point x="434" y="969" type="curve"/>
      <point x="429" y="950"/>
      <point x="422" y="767"/>
      <point x="422" y="639" type="curve" smooth="yes"/>
      <point x="422" y="425" type="line" smooth="yes"/>
      <point x="422" y="297"/>
      <point x="429" y="114"/>
      <point x="434" y="95" type="curve"/>
      <point x="422" y="101"/>
      <point x="320" y="108"/>
      <point x="209" y="108" type="curve" smooth="yes"/>
      <point x="198" y="108"/>
      <point x="112" y="95"/>
      <point x="112" y="78" type="curve" smooth="yes"/>
      <point x="112" y="61"/>
      <point x="198" y="48"/>
      <point x="209" y="48" type="curve" smooth="yes"/>
      <point x="325" y="48"/>
      <point x="418" y="53"/>
      <point x="433" y="59" type="curve"/>
      <point x="428" y="39"/>
      <point x="422" y="-87"/>
      <point x="422" y="-203" type="curve" smooth="yes"/>
      <point x="422" y="-209"/>
      <point x="435" y="-300"/>
    </contour>
  </outline>
</glyph>
<glyph name="bullet" format="2">
  <advance width="624"/>
  <unicode hex="2022"/>
  <note>
bullet
</note>
  <outline>
    <contour>
      <point x="311" y="569" type="curve" smooth="yes"/>
      <point x="411" y="569"/>
      <point x="494" y="651"/>
      <point x="494" y="752" type="curve" smooth="yes"/>
      <point x="494" y="853"/>
      <point x="413" y="933"/>
      <point x="313" y="933" type="curve" smooth="yes"/>
      <point x="212" y="933"/>
      <point x="130" y="853"/>
      <point x="130" y="752" type="curve" smooth="yes"/>
      <point x="130" y="651"/>
      <point x="212" y="569"/>
    </contour>
  </outline>
</glyph>
<glyph name="perthousand" format="2">
  <advance width="2302"/>
  <unicode hex="2030"/>
  <note>
perthousand
</note>
  <outline>
    <contour>
      <point x="301" y="-41" type="line"/>
      <point x="349" y="-41" type="line"/>
      <point x="1271" y="1451" type="line"/>
      <point x="1223" y="1451" type="line"/>
    </contour>
    <contour>
      <point x="1194" y="-19" type="curve" smooth="yes"/>
      <point x="1367" y="-19"/>
      <point x="1471" y="156"/>
      <point x="1471" y="383" type="curve" smooth="yes"/>
      <point x="1471" y="612"/>
      <point x="1363" y="784"/>
      <point x="1194" y="784" type="curve" smooth="yes"/>
      <point x="1025" y="784"/>
      <point x="918" y="612"/>
      <point x="918" y="383" type="curve" smooth="yes"/>
      <point x="918" y="158"/>
      <point x="1021" y="-19"/>
    </contour>
    <contour>
      <point x="1194" y="-3" type="curve" smooth="yes"/>
      <point x="1059" y="-3"/>
      <point x="979" y="150"/>
      <point x="979" y="383" type="curve" smooth="yes"/>
      <point x="979" y="616"/>
      <point x="1059" y="770"/>
      <point x="1194" y="770" type="curve" smooth="yes"/>
      <point x="1329" y="770"/>
      <point x="1410" y="617"/>
      <point x="1410" y="383" type="curve" smooth="yes"/>
      <point x="1410" y="150"/>
      <point x="1330" y="-3"/>
    </contour>
    <contour>
      <point x="407" y="668" type="curve" smooth="yes"/>
      <point x="580" y="668"/>
      <point x="684" y="843"/>
      <point x="684" y="1069" type="curve" smooth="yes"/>
      <point x="684" y="1299"/>
      <point x="576" y="1471"/>
      <point x="407" y="1471" type="curve" smooth="yes"/>
      <point x="238" y="1471"/>
      <point x="131" y="1299"/>
      <point x="131" y="1069" type="curve" smooth="yes"/>
      <point x="131" y="845"/>
      <point x="234" y="668"/>
    </contour>
    <contour>
      <point x="407" y="683" type="curve" smooth="yes"/>
      <point x="272" y="683"/>
      <point x="192" y="837"/>
      <point x="192" y="1069" type="curve" smooth="yes"/>
      <point x="192" y="1303"/>
      <point x="272" y="1456"/>
      <point x="407" y="1456" type="curve" smooth="yes"/>
      <point x="542" y="1456"/>
      <point x="623" y="1304"/>
      <point x="623" y="1069" type="curve" smooth="yes"/>
      <point x="623" y="837"/>
      <point x="543" y="683"/>
    </contour>
    <contour>
      <point x="1894" y="-19" type="curve" smooth="yes"/>
      <point x="2067" y="-19"/>
      <point x="2171" y="156"/>
      <point x="2171" y="383" type="curve" smooth="yes"/>
      <point x="2171" y="612"/>
      <point x="2063" y="784"/>
      <point x="1894" y="784" type="curve" smooth="yes"/>
      <point x="1725" y="784"/>
      <point x="1618" y="612"/>
      <point x="1618" y="383" type="curve" smooth="yes"/>
      <point x="1618" y="158"/>
      <point x="1721" y="-19"/>
    </contour>
    <contour>
      <point x="1894" y="-3" type="curve" smooth="yes"/>
      <point x="1759" y="-3"/>
      <point x="1679" y="150"/>
      <point x="1679" y="383" type="curve" smooth="yes"/>
      <point x="1679" y="616"/>
      <point x="1759" y="770"/>
      <point x="1894" y="770" type="curve" smooth="yes"/>
      <point x="2029" y="770"/>
      <point x="2110" y="617"/>
      <point x="2110" y="383" type="curve" smooth="yes"/>
      <point x="2110" y="150"/>
      <point x="2030" y="-3"/>
    </contour>
  </outline>
</glyph>
<glyph name="guilsinglleft" format="2">
  <advance width="458"/>
  <unicode hex="2039"/>
  <note>
guilsinglleft
</note>
  <outline>
    <contour>
      <point x="362" y="4" type="line"/>
      <point x="366" y="22" type="line"/>
      <point x="120" y="422" type="line"/>
      <point x="366" y="822" type="line"/>
      <point x="362" y="840" type="line"/>
      <point x="70" y="422" type="line"/>
    </contour>
  </outline>
</glyph>
<glyph name="guilsinglright" format="2">
  <advance width="458"/>
  <unicode hex="203A"/>
  <note>
guilsinglright
</note>
  <outline>
    <contour>
      <point x="96" y="4" type="line"/>
      <point x="388" y="422" type="line"/>
      <point x="96" y="840" type="line"/>
      <point x="92" y="822" type="line"/>
      <point x="338" y="422" type="line"/>
      <point x="92" y="22" type="line"/>
    </contour>
  </outline>
</glyph>
<glyph name="peseta" format="2">
  <advance width="1238"/>
  <unicode hex="20A7"/>
  <anchor x="701" y="5" name="_bottom"/>
  <anchor x="701" y="482" name="bar"/>
  <anchor x="701" y="-282" name="bottom"/>
  <anchor x="700" y="1430" name="top"/>
  <outline>
    <contour>
      <point x="121" y="646" type="line"/>
      <point x="499" y="646" type="line"/>
      <point x="499" y="672" type="line"/>
      <point x="121" y="672" type="line"/>
    </contour>
    <component base="P" xOffset="217"/>
  </outline>
</glyph>
<glyph name="kip" format="2">
  <advance width="1347"/>
  <unicode hex="20AD"/>
  <outline>
    <contour>
      <point x="1147" y="0" type="line"/>
      <point x="1223" y="0" type="line"/>
      <point x="558" y="739" type="line"/>
      <point x="508" y="711" type="line"/>
    </contour>
    <contour>
      <point x="228" y="0" type="line"/>
      <point x="288" y="0" type="line"/>
      <point x="288" y="1430" type="line"/>
      <point x="228" y="1430" type="line"/>
    </contour>
    <contour>
      <point x="259" y="702" type="line"/>
      <point x="567" y="702" type="line"/>
      <point x="567" y="728" type="line"/>
      <point x="259" y="728" type="line"/>
    </contour>
    <contour>
      <point x="523" y="721" type="line"/>
      <point x="566" y="727" type="line"/>
      <point x="1166" y="1430" type="line"/>
      <point x="1129" y="1430" type="line"/>
    </contour>
  </outline>
</glyph>
<glyph name="peso" format="2">
  <advance width="1242"/>
  <unicode hex="20B1"/>
  <anchor x="592" y="5" name="_bottom"/>
  <anchor x="592" y="482" name="bar"/>
  <anchor x="592" y="-282" name="bottom"/>
  <anchor x="591" y="1430" name="top"/>
  <outline>
    <contour>
      <point x="132" y="1126" type="line"/>
      <point x="1110" y="1126" type="line"/>
      <point x="1110" y="1152" type="line"/>
      <point x="132" y="1152" type="line"/>
    </contour>
    <contour>
      <point x="132" y="926" type="line"/>
      <point x="1110" y="926" type="line"/>
      <point x="1110" y="952" type="line"/>
      <point x="132" y="952" type="line"/>
    </contour>
    <component base="P" xOffset="108"/>
  </outline>
</glyph>
<glyph name="guarani" format="2">
  <advance width="1545"/>
  <unicode hex="20B2"/>
  <anchor x="756" y="0" name="bottom"/>
  <anchor x="756" y="1430" name="top"/>
  <outline>
    <contour>
      <point x="791" y="-6" type="curve" smooth="yes"/>
      <point x="1166" y="-6"/>
      <point x="1382" y="256"/>
      <point x="1414" y="624" type="curve"/>
      <point x="1357" y="624" type="line"/>
      <point x="1318" y="276"/>
      <point x="1101" y="35"/>
      <point x="791" y="24" type="curve"/>
      <point x="454" y="36"/>
      <point x="227" y="320"/>
      <point x="227" y="718" type="curve" smooth="yes"/>
      <point x="227" y="1122"/>
      <point x="461" y="1402"/>
      <point x="791" y="1410" type="curve"/>
      <point x="992" y="1405"/>
      <point x="1157" y="1300"/>
      <point x="1256" y="1127" type="curve"/>
      <point x="1335" y="1127" type="line"/>
      <point x="1230" y="1319"/>
      <point x="1043" y="1440"/>
      <point x="791" y="1440" type="curve" smooth="yes"/>
      <point x="388" y="1440"/>
      <point x="151" y="1131"/>
      <point x="151" y="715" type="curve" smooth="yes"/>
      <point x="151" y="301"/>
      <point x="385" y="-6"/>
    </contour>
    <contour>
      <point x="931" y="598" type="line"/>
      <point x="1375" y="598" type="line"/>
      <point x="1375" y="624" type="line"/>
      <point x="931" y="624" type="line"/>
    </contour>
    <contour>
      <point x="736" y="-177" type="line"/>
      <point x="776" y="-177" type="line"/>
      <point x="776" y="1581" type="line"/>
      <point x="736" y="1581" type="line"/>
    </contour>
  </outline>
</glyph>
<glyph name="ruble" format="2">
  <advance width="1249"/>
  <unicode hex="20BD"/>
  <anchor x="712" y="5" name="_bottom"/>
  <anchor x="712" y="482" name="bar"/>
  <anchor x="712" y="-282" name="bottom"/>
  <anchor x="711" y="1430" name="top"/>
  <outline>
    <contour>
      <point x="132" y="646" type="line"/>
      <point x="510" y="646" type="line"/>
      <point x="510" y="672" type="line"/>
      <point x="132" y="672" type="line"/>
    </contour>
    <contour>
      <point x="132" y="446" type="line"/>
      <point x="710" y="446" type="line"/>
      <point x="710" y="472" type="line"/>
      <point x="132" y="472" type="line"/>
    </contour>
    <component base="P" xOffset="228"/>
  </outline>
</glyph>
<glyph name="trademark" format="2">
  <advance width="1427"/>
  <unicode hex="2122"/>
  <note>
trademark
</note>
  <outline>
    <contour>
      <point x="676" y="900" type="line"/>
      <point x="756" y="900" type="line"/>
      <point x="756" y="1348" type="line"/>
      <point x="932" y="900" type="line"/>
      <point x="984" y="900" type="line"/>
      <point x="1152" y="1348" type="line"/>
      <point x="1152" y="900" type="line"/>
      <point x="1232" y="900" type="line"/>
      <point x="1232" y="1422" type="line"/>
      <point x="1104" y="1422" type="line"/>
      <point x="958" y="1026" type="line"/>
      <point x="802" y="1422" type="line"/>
      <point x="676" y="1422" type="line"/>
    </contour>
    <contour>
      <point x="294" y="900" type="line"/>
      <point x="386" y="900" type="line"/>
      <point x="386" y="1356" type="line"/>
      <point x="554" y="1356" type="line"/>
      <point x="554" y="1422" type="line"/>
      <point x="124" y="1422" type="line"/>
      <point x="124" y="1356" type="line"/>
      <point x="294" y="1356" type="line"/>
    </contour>
  </outline>
</glyph>
<glyph name="partialdiff" format="2">
  <advance width="918"/>
  <unicode hex="2202"/>
  <note>
partialdiff
</note>
  <outline>
    <contour>
      <point x="418" y="-14" type="curve" smooth="yes"/>
      <point x="630" y="-14"/>
      <point x="759" y="292"/>
      <point x="759" y="682" type="curve" smooth="yes"/>
      <point x="759" y="963"/>
      <point x="690" y="1251"/>
      <point x="460" y="1251" type="curve" smooth="yes"/>
      <point x="351" y="1251"/>
      <point x="272" y="1190"/>
      <point x="272" y="1141" type="curve" smooth="yes"/>
      <point x="272" y="1118"/>
      <point x="285" y="1112"/>
      <point x="293" y="1112" type="curve" smooth="yes"/>
      <point x="310" y="1112"/>
      <point x="316" y="1145"/>
      <point x="355" y="1172" type="curve" smooth="yes"/>
      <point x="382" y="1191"/>
      <point x="423" y="1200"/>
      <point x="485" y="1200" type="curve" smooth="yes"/>
      <point x="669" y="1200"/>
      <point x="709" y="977"/>
      <point x="709" y="760" type="curve" smooth="yes"/>
      <point x="709" y="690"/>
      <point x="706" y="603"/>
      <point x="700" y="501" type="curve"/>
      <point x="669" y="665"/>
      <point x="569" y="745"/>
      <point x="439" y="745" type="curve" smooth="yes"/>
      <point x="238" y="745"/>
      <point x="132" y="547"/>
      <point x="132" y="342" type="curve" smooth="yes"/>
      <point x="132" y="113"/>
      <point x="282" y="-14"/>
    </contour>
    <contour>
      <point x="395" y="14" type="curve" smooth="yes"/>
      <point x="330" y="14"/>
      <point x="197" y="47"/>
      <point x="197" y="311" type="curve" smooth="yes"/>
      <point x="197" y="528"/>
      <point x="288" y="710"/>
      <point x="456" y="710" type="curve" smooth="yes"/>
      <point x="591" y="710"/>
      <point x="661" y="593"/>
      <point x="661" y="446" type="curve" smooth="yes"/>
      <point x="661" y="218"/>
      <point x="558" y="14"/>
    </contour>
  </outline>
</glyph>
<glyph name="emptyset" format="2">
  <advance width="1200"/>
  <unicode hex="2205"/>
  <outline>
    <contour>
      <point x="549" y="-24" type="curve" smooth="yes"/>
      <point x="813" y="-24"/>
      <point x="1028" y="192"/>
      <point x="1028" y="457" type="curve" smooth="yes"/>
      <point x="1028" y="721"/>
      <point x="813" y="936"/>
      <point x="549" y="936" type="curve" smooth="yes"/>
      <point x="284" y="936"/>
      <point x="69" y="721"/>
      <point x="69" y="457" type="curve" smooth="yes"/>
      <point x="69" y="192"/>
      <point x="284" y="-24"/>
    </contour>
    <contour>
      <point x="549" y="21" type="curve" smooth="yes"/>
      <point x="308" y="21"/>
      <point x="113" y="216"/>
      <point x="113" y="457" type="curve" smooth="yes"/>
      <point x="113" y="697"/>
      <point x="308" y="892"/>
      <point x="549" y="892" type="curve" smooth="yes"/>
      <point x="789" y="892"/>
      <point x="984" y="697"/>
      <point x="984" y="457" type="curve" smooth="yes"/>
      <point x="984" y="216"/>
      <point x="789" y="21"/>
    </contour>
    <component base="slashlongcomb" xOffset="177" yOffset="-13"/>
  </outline>
</glyph>
<glyph name="product" format="2">
  <advance width="1486"/>
  <unicode hex="220F"/>
  <note>
product
</note>
  <outline>
    <contour>
      <point x="215" y="-385" type="line"/>
      <point x="277" y="-385" type="line"/>
      <point x="277" y="1254" type="line"/>
      <point x="1211" y="1254" type="line"/>
      <point x="1211" y="-385" type="line"/>
      <point x="1271" y="-385" type="line"/>
      <point x="1271" y="1280" type="line"/>
      <point x="215" y="1280" type="line"/>
    </contour>
  </outline>
</glyph>
<glyph name="summation" format="2">
  <advance width="1255"/>
  <unicode hex="2211"/>
  <note>
summation
</note>
  <outline>
    <contour>
      <point x="115" y="-295" type="line"/>
      <point x="1137" y="-295" type="line"/>
      <point x="1137" y="-234" type="line"/>
      <point x="244" y="-234" type="line"/>
      <point x="951" y="551" type="line"/>
      <point x="273" y="1286" type="line"/>
      <point x="1121" y="1286" type="line"/>
      <point x="1121" y="1357" type="line"/>
      <point x="147" y="1357" type="line"/>
      <point x="147" y="1289" type="line"/>
      <point x="833" y="546" type="line"/>
      <point x="115" y="-252" type="line"/>
    </contour>
  </outline>
</glyph>
<glyph name="minus" format="2">
  <advance width="1000"/>
  <unicode hex="2212"/>
  <note>
minus
</note>
  <outline>
    <contour>
      <point x="152" y="653" type="line"/>
      <point x="928" y="653" type="line"/>
      <point x="928" y="683" type="line"/>
      <point x="152" y="683" type="line"/>
    </contour>
  </outline>
</glyph>
<glyph name="fraction" format="2">
  <unicode hex="2215"/>
  <note>
fraction
</note>
  <outline>
    <contour>
      <point x="-485" y="-41" type="line"/>
      <point x="-437" y="-41" type="line"/>
      <point x="485" y="1451" type="line"/>
      <point x="437" y="1451" type="line"/>
    </contour>
  </outline>
</glyph>
<glyph name="radical" format="2">
  <advance width="1367"/>
  <unicode hex="221A"/>
  <note>
radical
</note>
  <guideline x="858" y="862" angle="249.8125"/>
  <outline>
    <contour>
      <point x="537" y="-46" type="line"/>
      <point x="557" y="-46" type="line"/>
      <point x="1130" y="1507" type="line"/>
      <point x="1260" y="1507" type="line"/>
      <point x="1260" y="1576" type="line"/>
      <point x="1106" y="1576" type="line"/>
      <point x="560" y="91" type="line"/>
      <point x="260" y="925" type="line"/>
      <point x="105" y="869" type="line"/>
      <point x="126" y="812" type="line"/>
      <point x="217" y="845" type="line"/>
    </contour>
  </outline>
</glyph>
<glyph name="infinity" format="2">
  <advance width="1426"/>
  <unicode hex="221E"/>
  <note>
infinity
</note>
  <outline>
    <contour>
      <point x="414" y="308" type="curve" smooth="yes"/>
      <point x="533" y="308"/>
      <point x="614" y="377"/>
      <point x="717" y="565" type="curve"/>
      <point x="816" y="387"/>
      <point x="906" y="310"/>
      <point x="1012" y="310" type="curve" smooth="yes"/>
      <point x="1155" y="310"/>
      <point x="1279" y="446"/>
      <point x="1279" y="602" type="curve" smooth="yes"/>
      <point x="1279" y="772"/>
      <point x="1170" y="890"/>
      <point x="1012" y="890" type="curve" smooth="yes"/>
      <point x="892" y="890"/>
      <point x="804" y="815"/>
      <point x="710" y="632" type="curve"/>
      <point x="621" y="804"/>
      <point x="524" y="888"/>
      <point x="416" y="888" type="curve" smooth="yes"/>
      <point x="272" y="888"/>
      <point x="147" y="752"/>
      <point x="147" y="596" type="curve" smooth="yes"/>
      <point x="147" y="426"/>
      <point x="257" y="308"/>
    </contour>
    <contour>
      <point x="394" y="357" type="curve" smooth="yes"/>
      <point x="290" y="357"/>
      <point x="186" y="463"/>
      <point x="186" y="569" type="curve" smooth="yes"/>
      <point x="186" y="721"/>
      <point x="290" y="844"/>
      <point x="418" y="844" type="curve" smooth="yes"/>
      <point x="511" y="844"/>
      <point x="610" y="760"/>
      <point x="693" y="611" type="curve"/>
      <point x="606" y="424"/>
      <point x="527" y="357"/>
    </contour>
    <contour>
      <point x="1012" y="354" type="curve" smooth="yes"/>
      <point x="918" y="354"/>
      <point x="820" y="437"/>
      <point x="736" y="588" type="curve"/>
      <point x="821" y="771"/>
      <point x="904" y="841"/>
      <point x="1034" y="841" type="curve" smooth="yes"/>
      <point x="1138" y="841"/>
      <point x="1242" y="734"/>
      <point x="1242" y="627" type="curve" smooth="yes"/>
      <point x="1242" y="478"/>
      <point x="1137" y="354"/>
    </contour>
  </outline>
</glyph>
<glyph name="notequal" format="2">
  <advance width="1000"/>
  <unicode hex="2260"/>
  <note>
notequal
</note>
  <outline>
    <contour>
      <point x="671" y="1083" type="line"/>
      <point x="361" y="233" type="line"/>
      <point x="396" y="233" type="line"/>
      <point x="706" y="1083" type="line"/>
    </contour>
    <component base="equal"/>
  </outline>
</glyph>
<glyph name="lozenge" format="2">
  <advance width="1214"/>
  <unicode hex="25CA"/>
  <note>
lozenge
</note>
  <outline>
    <contour>
      <point x="607" y="-212" type="line"/>
      <point x="974" y="578" type="line"/>
      <point x="607" y="1362" type="line"/>
      <point x="240" y="578" type="line"/>
    </contour>
    <contour>
      <point x="607" y="-496" type="line"/>
      <point x="110" y="578" type="line"/>
      <point x="607" y="1641" type="line"/>
      <point x="1104" y="578" type="line"/>
    </contour>
  </outline>
</glyph>
<glyph name="fi" format="2">
  <advance width="611"/>
  <unicode hex="F001"/>
  <note>
fi
</note>
  <anchor x="323" y="0" name="caret_1"/>
  <outline>
    <contour>
      <point x="165" y="0" type="line"/>
      <point x="217" y="0" type="line"/>
      <point x="217" y="929" type="line"/>
      <point x="172" y="884" type="line"/>
      <point x="441" y="884" type="line"/>
      <point x="441" y="910" type="line"/>
      <point x="172" y="910" type="line"/>
      <point x="217" y="865" type="line"/>
      <point x="217" y="1155" type="line" smooth="yes"/>
      <point x="217" y="1429"/>
      <point x="239" y="1502"/>
      <point x="355" y="1502" type="curve"/>
      <point x="437" y="1502"/>
      <point x="472" y="1456"/>
      <point x="472" y="1380" type="curve" smooth="yes"/>
      <point x="472" y="1338"/>
      <point x="461" y="1313"/>
      <point x="453" y="1298" type="curve"/>
      <point x="498" y="1298" type="line"/>
      <point x="513" y="1343"/>
      <point x="516" y="1385"/>
      <point x="516" y="1396" type="curve" smooth="yes"/>
      <point x="516" y="1461"/>
      <point x="487" y="1531"/>
      <point x="348" y="1531" type="curve" smooth="yes"/>
      <point x="161" y="1531"/>
      <point x="165" y="1355"/>
      <point x="165" y="1155" type="curve" smooth="yes"/>
      <point x="165" y="865" type="line"/>
      <point x="210" y="910" type="line"/>
      <point x="45" y="910" type="line"/>
      <point x="45" y="884" type="line"/>
      <point x="210" y="884" type="line"/>
      <point x="165" y="929" type="line"/>
    </contour>
    <contour>
      <point x="436" y="2" type="line"/>
      <point x="488" y="2" type="line"/>
      <point x="488" y="910" type="line"/>
      <point x="436" y="910" type="line"/>
    </contour>
  </outline>
</glyph>
<glyph name="fl" format="2">
  <advance width="602"/>
  <unicode hex="F002"/>
  <note>
fl
</note>
  <anchor x="302" y="0" name="caret_1"/>
  <outline>
    <contour>
      <point x="165" y="0" type="line"/>
      <point x="217" y="0" type="line"/>
      <point x="217" y="1155" type="line" smooth="yes"/>
      <point x="217" y="1429"/>
      <point x="239" y="1502"/>
      <point x="325" y="1502" type="curve"/>
      <point x="397" y="1502"/>
      <point x="408" y="1429"/>
      <point x="408" y="1380" type="curve"/>
      <point x="438" y="1298" type="line"/>
      <point x="453" y="1343"/>
      <point x="460" y="1374"/>
      <point x="460" y="1403" type="curve" smooth="yes"/>
      <point x="460" y="1470"/>
      <point x="413" y="1531"/>
      <point x="318" y="1531" type="curve" smooth="yes"/>
      <point x="157" y="1531"/>
      <point x="165" y="1355"/>
      <point x="165" y="1155" type="curve" smooth="yes"/>
    </contour>
    <contour>
      <point x="45" y="884" type="line"/>
      <point x="341" y="884" type="line"/>
      <point x="341" y="910" type="line"/>
      <point x="45" y="910" type="line"/>
    </contour>
    <contour>
      <point x="408" y="0" type="line"/>
      <point x="460" y="0" type="line"/>
      <point x="460" y="1403" type="line"/>
      <point x="408" y="1404" type="line"/>
    </contour>
  </outline>
</glyph>
<glyph name="W.rvrn" format="2">
  <advance width="1955"/>
  <note>
W
</note>
  <anchor x="977" y="0" name="bottom"/>
  <anchor x="977" y="1430" name="top"/>
  <outline>
    <contour>
      <point x="1299" y="-41" type="line"/>
      <point x="1881" y="1429" type="line"/>
      <point x="1870" y="1429" type="line"/>
      <point x="1304" y="0" type="line"/>
      <point x="1333" y="58" type="line"/>
      <point x="781" y="1430" type="line"/>
      <point x="703" y="1429" type="line"/>
    </contour>
    <contour>
      <point x="669" y="-41" type="line"/>
      <point x="995" y="784" type="line"/>
      <point x="990" y="797" type="line"/>
      <point x="674" y="0" type="line"/>
      <point x="703" y="58" type="line"/>
      <point x="151" y="1430" type="line"/>
      <point x="73" y="1429" type="line"/>
    </contour>
  </outline>
</glyph>
<glyph name="_cyrillic_bar.case" format="2">
  <advance width="1144"/>
  <anchor x="677" y="471" name="_center"/>
  <outline>
    <contour>
      <point x="483" y="485" type="line"/>
      <point x="921" y="485" type="line"/>
      <point x="921" y="511" type="line"/>
      <point x="483" y="511" type="line"/>
    </contour>
  </outline>
</glyph>
